<?xml version="1.0" encoding="utf-8"?> <!-- Generator: Adobe Illustrator 21.0.0, SVG Export Plug-In . SVG Version: 6.00 Build 0)  --> <svg version="1.1" xmlns="http://www.w3.org/2000/svg" xmlns:xlink="http://www.w3.org/1999/xlink" x="0px" y="0px" viewBox="0 0 170 300" style="enable-background:new 0 0 170 300;" xml:space="preserve"> <style> path,line,circle,rect,polygon { vector-effect: non-scaling-stroke } </style> <g id="content"> <rect x="1727.193" y="262.373" style="fill:none;" width="233.241" height="120"/>  <rect x="1200.712" y="262.373" style="fill:none;" width="233.241" height="120"/>  <rect x="1453.952" y="262.373" style="fill:none;" width="233.241" height="120"/>  <rect x="927.471" y="676.184" style="fill:none;" width="233.241" height="120"/>  <rect x="927.471" y="262.373" style="fill:none;" width="233.241" height="120"/>         <g>  </g>          <g>  <rect x="1717.193" y="207.618" style="fill:#231F20;" width="79.5" height="30.984"/>  </g> <g>  <rect x="917.471" y="-318.998" style="fill:#231F20;" width="188.107" height="30.984"/>  </g> <g>  <rect x="1190.712" y="207.619" style="fill:#231F20;" width="122.955" height="30.984"/>  </g> <g>  <rect x="917.471" y="207.619" style="fill:#231F20;" width="171.124" height="30.984"/>  </g> <g>  <rect x="917.471" y="635.098" style="fill:#231F20;" width="171.124" height="30.984"/>  </g>                                     <g> <g> <rect x="927.471" y="908.986" style="fill:none;" width="277.879" height="17.816"/>  </g> <rect x="927.807" y="936.19" style="fill:#004E87;stroke:#E0E0E0;stroke-miterlimit:10;" width="11" height="11"/> <g>  </g> <rect x="1021.777" y="936.19" style="fill:#85B4D3;stroke:#E0E0E0;stroke-miterlimit:10;" width="11" height="11"/> <g>  </g> </g> <g> <g> <rect x="927.471" y="985.986" style="fill:none;" width="277.879" height="17.816"/>  </g> <rect x="927.807" y="1013.19" style="fill:#004E87;stroke:#E0E0E0;stroke-miterlimit:10;" width="11" height="11"/> <g>  </g> <rect x="927.807" y="1035.44" style="fill:#85B4D3;stroke:#E0E0E0;stroke-miterlimit:10;" width="11" height="11"/> </g>   <g> <rect x="927.471" y="449.569" style="fill:none;" width="527.974" height="20.999"/>  <rect x="917.471" y="442.156" width="547.974" height="33.411"/> <rect x="927.471" y="449.569" style="fill:none;" width="527.974" height="20.999"/>  </g> </g> <g id="ai2html-settings"> <rect x="-705.497" y="218.569" style="fill:none;" width="499" height="462"/>  </g> <g id="Layer_6"> </g> <g id="Layer_3"> <g> <g> <line style="fill:none;" x1="33.926" y1="258.883" x2="160.987" y2="258.883"/> <g> <g> <line style="fill:none;" x1="38.161" y1="258.883" x2="38.161" y2="254.702"/> <line style="fill:none;" x1="46.632" y1="258.883" x2="46.632" y2="254.702"/> <line style="fill:none;" x1="55.103" y1="258.883" x2="55.103" y2="254.702"/> <line style="fill:none;" x1="63.573" y1="258.883" x2="63.573" y2="254.702"/> <line style="fill:none;" x1="72.044" y1="258.883" x2="72.044" y2="254.702"/> <line style="fill:none;" x1="80.515" y1="258.883" x2="80.515" y2="254.702"/> <line style="fill:none;" x1="88.986" y1="258.883" x2="88.986" y2="254.702"/> <line style="fill:none;" x1="97.456" y1="258.883" x2="97.456" y2="254.702"/> <line style="fill:none;" x1="105.927" y1="258.883" x2="105.927" y2="254.702"/> <line style="fill:none;" x1="114.398" y1="258.883" x2="114.398" y2="254.702"/> <line style="fill:none;" x1="122.869" y1="258.883" x2="122.869" y2="254.702"/> <line style="fill:none;" x1="131.339" y1="258.883" x2="131.339" y2="254.702"/> <line style="fill:none;" x1="139.81" y1="258.883" x2="139.81" y2="254.702"/> <line style="fill:none;" x1="148.281" y1="258.883" x2="148.281" y2="254.702"/> <line style="fill:none;" x1="156.752" y1="258.883" x2="156.752" y2="254.702"/> </g> <g> </g> </g> </g> <g> <g>          </g> <line style="fill:none;" x1="33.926" y1="258.883" x2="28.926" y2="91.622"/> <g> <g> <line style="fill:none;" x1="33.926" y1="258.883" x2="160.987" y2="258.883"/> <line style="fill:none;stroke:#E0E0E0;stroke-miterlimit:10;" x1="28.926" y1="237.976" x2="160.987" y2="237.976"/> <line style="fill:none;stroke:#E0E0E0;stroke-miterlimit:10;" x1="28.926" y1="217.068" x2="160.987" y2="217.068"/> <line style="fill:none;stroke:#E0E0E0;stroke-miterlimit:10;" x1="28.926" y1="196.16" x2="160.987" y2="196.16"/> <line style="fill:none;stroke:#E0E0E0;stroke-miterlimit:10;" x1="28.926" y1="175.253" x2="160.987" y2="175.253"/> <line style="fill:none;stroke:#E0E0E0;stroke-miterlimit:10;" x1="28.926" y1="154.345" x2="160.987" y2="154.345"/> <line style="fill:none;stroke:#E0E0E0;stroke-miterlimit:10;" x1="28.926" y1="133.437" x2="160.987" y2="133.437"/> <line style="fill:none;stroke:#E0E0E0;stroke-miterlimit:10;" x1="28.926" y1="112.529" x2="160.987" y2="112.529"/> <line style="fill:none;stroke:#E0E0E0;stroke-miterlimit:10;" x1="28.926" y1="91.622" x2="160.987" y2="91.622"/> </g> <g> </g> </g> </g> <g> <g> <g> <line style="fill:none;stroke:#024E87;stroke-width:4;stroke-linecap:round;stroke-linejoin:round;stroke-miterlimit:10;" x1="46.632" y1="130.301" x2="38.161" y2="129.465"/> <line style="fill:none;stroke:#024E87;stroke-width:4;stroke-linecap:round;stroke-linejoin:round;stroke-miterlimit:10;" x1="55.103" y1="129.256" x2="46.632" y2="130.301"/> <line style="fill:none;stroke:#024E87;stroke-width:4;stroke-linecap:round;stroke-linejoin:round;stroke-miterlimit:10;" x1="63.573" y1="129.256" x2="55.103" y2="129.256"/> <line style="fill:none;stroke:#024E87;stroke-width:4;stroke-linecap:round;stroke-linejoin:round;stroke-miterlimit:10;" x1="72.044" y1="126.538" x2="63.573" y2="129.256"/> <line style="fill:none;stroke:#024E87;stroke-width:4;stroke-linecap:round;stroke-linejoin:round;stroke-miterlimit:10;" x1="80.515" y1="123.401" x2="72.044" y2="126.538"/> <line style="fill:none;stroke:#024E87;stroke-width:4;stroke-linecap:round;stroke-linejoin:round;stroke-miterlimit:10;" x1="88.986" y1="123.192" x2="80.515" y2="123.401"/> <line style="fill:none;stroke:#024E87;stroke-width:4;stroke-linecap:round;stroke-linejoin:round;stroke-miterlimit:10;" x1="97.456" y1="122.983" x2="88.986" y2="123.192"/> <line style="fill:none;stroke:#024E87;stroke-width:4;stroke-linecap:round;stroke-linejoin:round;stroke-miterlimit:10;" x1="105.927" y1="122.356" x2="97.456" y2="122.983"/> <line style="fill:none;stroke:#024E87;stroke-width:4;stroke-linecap:round;stroke-linejoin:round;stroke-miterlimit:10;" x1="114.398" y1="122.356" x2="105.927" y2="122.356"/> <line style="fill:none;stroke:#024E87;stroke-width:4;stroke-linecap:round;stroke-linejoin:round;stroke-miterlimit:10;" x1="122.869" y1="126.538" x2="114.398" y2="122.356"/> <line style="fill:none;stroke:#024E87;stroke-width:4;stroke-linecap:round;stroke-linejoin:round;stroke-miterlimit:10;" x1="131.339" y1="121.102" x2="122.869" y2="126.538"/> <line style="fill:none;stroke:#024E87;stroke-width:4;stroke-linecap:round;stroke-linejoin:round;stroke-miterlimit:10;" x1="139.81" y1="120.893" x2="131.339" y2="121.102"/> <line style="fill:none;stroke:#024E87;stroke-width:4;stroke-linecap:round;stroke-linejoin:round;stroke-miterlimit:10;" x1="148.281" y1="120.683" x2="139.81" y2="120.893"/> <line style="fill:none;stroke:#024E87;stroke-width:4;stroke-linecap:round;stroke-linejoin:round;stroke-miterlimit:10;" x1="156.752" y1="117.965" x2="148.281" y2="120.683"/> </g> </g> <g> <g> <line style="fill:none;stroke:#7493C1;stroke-width:2;stroke-linecap:round;stroke-linejoin:round;stroke-miterlimit:10;" x1="46.632" y1="193.651" x2="38.161" y2="194.906"/> <line style="fill:none;stroke:#7493C1;stroke-width:2;stroke-linecap:round;stroke-linejoin:round;stroke-miterlimit:10;" x1="55.103" y1="196.16" x2="46.632" y2="193.651"/> <line style="fill:none;stroke:#7493C1;stroke-width:2;stroke-linecap:round;stroke-linejoin:round;stroke-miterlimit:10;" x1="63.573" y1="196.369" x2="55.103" y2="196.16"/> <line style="fill:none;stroke:#7493C1;stroke-width:2;stroke-linecap:round;stroke-linejoin:round;stroke-miterlimit:10;" x1="72.044" y1="199.087" x2="63.573" y2="196.369"/> <line style="fill:none;stroke:#7493C1;stroke-width:2;stroke-linecap:round;stroke-linejoin:round;stroke-miterlimit:10;" x1="80.515" y1="201.387" x2="72.044" y2="199.087"/> <line style="fill:none;stroke:#7493C1;stroke-width:2;stroke-linecap:round;stroke-linejoin:round;stroke-miterlimit:10;" x1="88.986" y1="200.76" x2="80.515" y2="201.387"/> <line style="fill:none;stroke:#7493C1;stroke-width:2;stroke-linecap:round;stroke-linejoin:round;stroke-miterlimit:10;" x1="97.456" y1="201.178" x2="88.986" y2="200.76"/> <line style="fill:none;stroke:#7493C1;stroke-width:2;stroke-linecap:round;stroke-linejoin:round;stroke-miterlimit:10;" x1="105.927" y1="211.214" x2="97.456" y2="201.178"/> <line style="fill:none;stroke:#7493C1;stroke-width:2;stroke-linecap:round;stroke-linejoin:round;stroke-miterlimit:10;" x1="114.398" y1="212.05" x2="105.927" y2="211.214"/> <line style="fill:none;stroke:#7493C1;stroke-width:2;stroke-linecap:round;stroke-linejoin:round;stroke-miterlimit:10;" x1="122.869" y1="203.269" x2="114.398" y2="212.05"/> <line style="fill:none;stroke:#7493C1;stroke-width:2;stroke-linecap:round;stroke-linejoin:round;stroke-miterlimit:10;" x1="131.339" y1="204.314" x2="122.869" y2="203.269"/> <line style="fill:none;stroke:#7493C1;stroke-width:2;stroke-linecap:round;stroke-linejoin:round;stroke-miterlimit:10;" x1="139.81" y1="204.314" x2="131.339" y2="204.314"/> <line style="fill:none;stroke:#7493C1;stroke-width:2;stroke-linecap:round;stroke-linejoin:round;stroke-miterlimit:10;" x1="148.281" y1="204.523" x2="139.81" y2="204.314"/> <line style="fill:none;stroke:#7493C1;stroke-width:2;stroke-linecap:round;stroke-linejoin:round;stroke-miterlimit:10;" x1="156.752" y1="206.823" x2="148.281" y2="204.523"/> </g> </g> <g> <g> <line style="fill:none;stroke:#AAAAAA;stroke-width:2;stroke-linecap:round;stroke-linejoin:round;stroke-miterlimit:10;" x1="46.632" y1="243.621" x2="38.161" y2="243.412"/> <line style="fill:none;stroke:#AAAAAA;stroke-width:2;stroke-linecap:round;stroke-linejoin:round;stroke-miterlimit:10;" x1="55.103" y1="242.157" x2="46.632" y2="243.621"/> <line style="fill:none;stroke:#AAAAAA;stroke-width:2;stroke-linecap:round;stroke-linejoin:round;stroke-miterlimit:10;" x1="63.573" y1="242.157" x2="55.103" y2="242.157"/> <line style="fill:none;stroke:#AAAAAA;stroke-width:2;stroke-linecap:round;stroke-linejoin:round;stroke-miterlimit:10;" x1="72.044" y1="241.948" x2="63.573" y2="242.157"/> <line style="fill:none;stroke:#AAAAAA;stroke-width:2;stroke-linecap:round;stroke-linejoin:round;stroke-miterlimit:10;" x1="80.515" y1="242.785" x2="72.044" y2="241.948"/> <line style="fill:none;stroke:#AAAAAA;stroke-width:2;stroke-linecap:round;stroke-linejoin:round;stroke-miterlimit:10;" x1="88.986" y1="243.621" x2="80.515" y2="242.785"/> <line style="fill:none;stroke:#AAAAAA;stroke-width:2;stroke-linecap:round;stroke-linejoin:round;stroke-miterlimit:10;" x1="97.456" y1="243.412" x2="88.986" y2="243.621"/> <line style="fill:none;stroke:#AAAAAA;stroke-width:2;stroke-linecap:round;stroke-linejoin:round;stroke-miterlimit:10;" x1="105.927" y1="234.003" x2="97.456" y2="243.412"/> <line style="fill:none;stroke:#AAAAAA;stroke-width:2;stroke-linecap:round;stroke-linejoin:round;stroke-miterlimit:10;" x1="114.398" y1="232.958" x2="105.927" y2="234.003"/> <line style="fill:none;stroke:#AAAAAA;stroke-width:2;stroke-linecap:round;stroke-linejoin:round;stroke-miterlimit:10;" x1="122.869" y1="237.767" x2="114.398" y2="232.958"/> <line style="fill:none;stroke:#AAAAAA;stroke-width:2;stroke-linecap:round;stroke-linejoin:round;stroke-miterlimit:10;" x1="131.339" y1="241.948" x2="122.869" y2="237.767"/> <line style="fill:none;stroke:#AAAAAA;stroke-width:2;stroke-linecap:round;stroke-linejoin:round;stroke-miterlimit:10;" x1="139.81" y1="242.366" x2="131.339" y2="241.948"/> <line style="fill:none;stroke:#AAAAAA;stroke-width:2;stroke-linecap:round;stroke-linejoin:round;stroke-miterlimit:10;" x1="148.281" y1="242.575" x2="139.81" y2="242.366"/> <line style="fill:none;stroke:#AAAAAA;stroke-width:2;stroke-linecap:round;stroke-linejoin:round;stroke-miterlimit:10;" x1="156.752" y1="242.785" x2="148.281" y2="242.575"/> </g> </g> </g> <g> <g> </g> <g> </g> <g> </g> </g> </g> <rect x="50.987" y="88.115" style="fill:#FFFFFF;" width="120.337" height="7.942"/> <rect x="50.987" y="172.379" style="fill:#FFFFFF;" width="120.337" height="7.942"/> <g> <g> <line style="fill:none;" x1="34.333" y1="662.87" x2="279.345" y2="662.87"/> <g> <g> <line style="fill:none;" x1="42.5" y1="662.87" x2="42.5" y2="658.513"/> <line style="fill:none;" x1="58.834" y1="662.87" x2="58.834" y2="658.513"/> <line style="fill:none;" x1="75.168" y1="662.87" x2="75.168" y2="658.513"/> <line style="fill:none;" x1="91.502" y1="662.87" x2="91.502" y2="658.513"/> <line style="fill:none;" x1="107.837" y1="662.87" x2="107.837" y2="658.513"/> <line style="fill:none;" x1="124.171" y1="662.87" x2="124.171" y2="658.513"/> <line style="fill:none;" x1="140.505" y1="662.87" x2="140.505" y2="658.513"/> <line style="fill:none;" x1="156.839" y1="662.87" x2="156.839" y2="658.513"/> <line style="fill:none;" x1="173.173" y1="662.87" x2="173.173" y2="658.513"/> <line style="fill:none;" x1="189.507" y1="662.87" x2="189.507" y2="658.513"/> <line style="fill:none;" x1="205.841" y1="662.87" x2="205.841" y2="658.513"/> <line style="fill:none;" x1="222.176" y1="662.87" x2="222.176" y2="658.513"/> <line style="fill:none;" x1="238.51" y1="662.87" x2="238.51" y2="658.513"/> <line style="fill:none;" x1="254.844" y1="662.87" x2="254.844" y2="658.513"/> <line style="fill:none;" x1="271.178" y1="662.87" x2="271.178" y2="658.513"/> </g> <g> </g> </g> </g> <g> <g>          </g> <line style="fill:none;" x1="34.333" y1="662.87" x2="27.333" y2="488.608"/> <g> <g> <line style="fill:none;" x1="34.333" y1="662.87" x2="279.345" y2="662.87"/> <line style="fill:none;stroke:#E0E0E0;stroke-miterlimit:10;" x1="27.333" y1="641.087" x2="279.345" y2="641.087"/> <line style="fill:none;stroke:#E0E0E0;stroke-miterlimit:10;" x1="27.333" y1="619.304" x2="279.345" y2="619.304"/> <line style="fill:none;stroke:#E0E0E0;stroke-miterlimit:10;" x1="27.333" y1="597.522" x2="279.345" y2="597.522"/> <line style="fill:none;stroke:#E0E0E0;stroke-miterlimit:10;" x1="27.333" y1="575.739" x2="279.345" y2="575.739"/> <line style="fill:none;stroke:#E0E0E0;stroke-miterlimit:10;" x1="27.333" y1="553.956" x2="279.345" y2="553.956"/> <line style="fill:none;stroke:#E0E0E0;stroke-miterlimit:10;" x1="27.333" y1="532.174" x2="279.345" y2="532.174"/> <line style="fill:none;stroke:#E0E0E0;stroke-miterlimit:10;" x1="27.333" y1="510.391" x2="279.345" y2="510.391"/> <line style="fill:none;stroke:#E0E0E0;stroke-miterlimit:10;" x1="27.333" y1="488.608" x2="279.345" y2="488.608"/> </g> <g> </g> </g> </g> <g> <g> <g> <line style="fill:none;stroke:#024E87;stroke-width:4;stroke-linecap:round;stroke-linejoin:round;stroke-miterlimit:10;" x1="58.834" y1="528.906" x2="42.5" y2="528.035"/> <line style="fill:none;stroke:#024E87;stroke-width:4;stroke-linecap:round;stroke-linejoin:round;stroke-miterlimit:10;" x1="75.168" y1="527.817" x2="58.834" y2="528.906"/> <line style="fill:none;stroke:#024E87;stroke-width:4;stroke-linecap:round;stroke-linejoin:round;stroke-miterlimit:10;" x1="91.502" y1="527.817" x2="75.168" y2="527.817"/> <line style="fill:none;stroke:#024E87;stroke-width:4;stroke-linecap:round;stroke-linejoin:round;stroke-miterlimit:10;" x1="107.837" y1="524.985" x2="91.502" y2="527.817"/> <line style="fill:none;stroke:#024E87;stroke-width:4;stroke-linecap:round;stroke-linejoin:round;stroke-miterlimit:10;" x1="124.171" y1="521.718" x2="107.837" y2="524.985"/> <line style="fill:none;stroke:#024E87;stroke-width:4;stroke-linecap:round;stroke-linejoin:round;stroke-miterlimit:10;" x1="140.505" y1="521.5" x2="124.171" y2="521.718"/> <line style="fill:none;stroke:#024E87;stroke-width:4;stroke-linecap:round;stroke-linejoin:round;stroke-miterlimit:10;" x1="156.839" y1="521.282" x2="140.505" y2="521.5"/> <line style="fill:none;stroke:#024E87;stroke-width:4;stroke-linecap:round;stroke-linejoin:round;stroke-miterlimit:10;" x1="173.173" y1="520.629" x2="156.839" y2="521.282"/> <line style="fill:none;stroke:#024E87;stroke-width:4;stroke-linecap:round;stroke-linejoin:round;stroke-miterlimit:10;" x1="189.507" y1="520.629" x2="173.173" y2="520.629"/> <line style="fill:none;stroke:#024E87;stroke-width:4;stroke-linecap:round;stroke-linejoin:round;stroke-miterlimit:10;" x1="205.841" y1="524.985" x2="189.507" y2="520.629"/> <line style="fill:none;stroke:#024E87;stroke-width:4;stroke-linecap:round;stroke-linejoin:round;stroke-miterlimit:10;" x1="222.176" y1="519.322" x2="205.841" y2="524.985"/> <line style="fill:none;stroke:#024E87;stroke-width:4;stroke-linecap:round;stroke-linejoin:round;stroke-miterlimit:10;" x1="238.51" y1="519.104" x2="222.176" y2="519.322"/> <line style="fill:none;stroke:#024E87;stroke-width:4;stroke-linecap:round;stroke-linejoin:round;stroke-miterlimit:10;" x1="254.844" y1="518.886" x2="238.51" y2="519.104"/> <line style="fill:none;stroke:#024E87;stroke-width:4;stroke-linecap:round;stroke-linejoin:round;stroke-miterlimit:10;" x1="271.178" y1="516.055" x2="254.844" y2="518.886"/> </g> </g> <g> <g> <line style="fill:none;stroke:#7493C1;stroke-width:2;stroke-linecap:round;stroke-linejoin:round;stroke-miterlimit:10;" x1="58.834" y1="594.908" x2="42.5" y2="596.215"/> <line style="fill:none;stroke:#7493C1;stroke-width:2;stroke-linecap:round;stroke-linejoin:round;stroke-miterlimit:10;" x1="75.168" y1="597.522" x2="58.834" y2="594.908"/> <line style="fill:none;stroke:#7493C1;stroke-width:2;stroke-linecap:round;stroke-linejoin:round;stroke-miterlimit:10;" x1="91.502" y1="597.74" x2="75.168" y2="597.522"/> <line style="fill:none;stroke:#7493C1;stroke-width:2;stroke-linecap:round;stroke-linejoin:round;stroke-miterlimit:10;" x1="107.837" y1="600.571" x2="91.502" y2="597.74"/> <line style="fill:none;stroke:#7493C1;stroke-width:2;stroke-linecap:round;stroke-linejoin:round;stroke-miterlimit:10;" x1="124.171" y1="602.967" x2="107.837" y2="600.571"/> <line style="fill:none;stroke:#7493C1;stroke-width:2;stroke-linecap:round;stroke-linejoin:round;stroke-miterlimit:10;" x1="140.505" y1="602.314" x2="124.171" y2="602.967"/> <line style="fill:none;stroke:#7493C1;stroke-width:2;stroke-linecap:round;stroke-linejoin:round;stroke-miterlimit:10;" x1="156.839" y1="602.75" x2="140.505" y2="602.314"/> <line style="fill:none;stroke:#7493C1;stroke-width:2;stroke-linecap:round;stroke-linejoin:round;stroke-miterlimit:10;" x1="173.173" y1="613.205" x2="156.839" y2="602.75"/> <line style="fill:none;stroke:#7493C1;stroke-width:2;stroke-linecap:round;stroke-linejoin:round;stroke-miterlimit:10;" x1="189.507" y1="614.077" x2="173.173" y2="613.205"/> <line style="fill:none;stroke:#7493C1;stroke-width:2;stroke-linecap:round;stroke-linejoin:round;stroke-miterlimit:10;" x1="205.841" y1="604.928" x2="189.507" y2="614.077"/> <line style="fill:none;stroke:#7493C1;stroke-width:2;stroke-linecap:round;stroke-linejoin:round;stroke-miterlimit:10;" x1="222.176" y1="606.017" x2="205.841" y2="604.928"/> <line style="fill:none;stroke:#7493C1;stroke-width:2;stroke-linecap:round;stroke-linejoin:round;stroke-miterlimit:10;" x1="238.51" y1="606.017" x2="222.176" y2="606.017"/> <line style="fill:none;stroke:#7493C1;stroke-width:2;stroke-linecap:round;stroke-linejoin:round;stroke-miterlimit:10;" x1="254.844" y1="606.235" x2="238.51" y2="606.017"/> <line style="fill:none;stroke:#7493C1;stroke-width:2;stroke-linecap:round;stroke-linejoin:round;stroke-miterlimit:10;" x1="271.178" y1="608.631" x2="254.844" y2="606.235"/> </g> </g> <g> <g> <line style="fill:none;stroke:#AAAAAA;stroke-width:2;stroke-linecap:round;stroke-linejoin:round;stroke-miterlimit:10;" x1="58.834" y1="646.968" x2="42.5" y2="646.751"/> <line style="fill:none;stroke:#AAAAAA;stroke-width:2;stroke-linecap:round;stroke-linejoin:round;stroke-miterlimit:10;" x1="75.168" y1="645.444" x2="58.834" y2="646.968"/> <line style="fill:none;stroke:#AAAAAA;stroke-width:2;stroke-linecap:round;stroke-linejoin:round;stroke-miterlimit:10;" x1="91.502" y1="645.444" x2="75.168" y2="645.444"/> <line style="fill:none;stroke:#AAAAAA;stroke-width:2;stroke-linecap:round;stroke-linejoin:round;stroke-miterlimit:10;" x1="107.837" y1="645.226" x2="91.502" y2="645.444"/> <line style="fill:none;stroke:#AAAAAA;stroke-width:2;stroke-linecap:round;stroke-linejoin:round;stroke-miterlimit:10;" x1="124.171" y1="646.097" x2="107.837" y2="645.226"/> <line style="fill:none;stroke:#AAAAAA;stroke-width:2;stroke-linecap:round;stroke-linejoin:round;stroke-miterlimit:10;" x1="140.505" y1="646.968" x2="124.171" y2="646.097"/> <line style="fill:none;stroke:#AAAAAA;stroke-width:2;stroke-linecap:round;stroke-linejoin:round;stroke-miterlimit:10;" x1="156.839" y1="646.751" x2="140.505" y2="646.968"/> <line style="fill:none;stroke:#AAAAAA;stroke-width:2;stroke-linecap:round;stroke-linejoin:round;stroke-miterlimit:10;" x1="173.173" y1="636.948" x2="156.839" y2="646.751"/> <line style="fill:none;stroke:#AAAAAA;stroke-width:2;stroke-linecap:round;stroke-linejoin:round;stroke-miterlimit:10;" x1="189.507" y1="635.859" x2="173.173" y2="636.948"/> <line style="fill:none;stroke:#AAAAAA;stroke-width:2;stroke-linecap:round;stroke-linejoin:round;stroke-miterlimit:10;" x1="205.841" y1="640.869" x2="189.507" y2="635.859"/> <line style="fill:none;stroke:#AAAAAA;stroke-width:2;stroke-linecap:round;stroke-linejoin:round;stroke-miterlimit:10;" x1="222.176" y1="645.226" x2="205.841" y2="640.869"/> <line style="fill:none;stroke:#AAAAAA;stroke-width:2;stroke-linecap:round;stroke-linejoin:round;stroke-miterlimit:10;" x1="238.51" y1="645.661" x2="222.176" y2="645.226"/> <line style="fill:none;stroke:#AAAAAA;stroke-width:2;stroke-linecap:round;stroke-linejoin:round;stroke-miterlimit:10;" x1="254.844" y1="645.879" x2="238.51" y2="645.661"/> <line style="fill:none;stroke:#AAAAAA;stroke-width:2;stroke-linecap:round;stroke-linejoin:round;stroke-miterlimit:10;" x1="271.178" y1="646.097" x2="254.844" y2="645.879"/> </g> </g> </g> <g> <g> </g> <g> </g> <g> </g> </g> </g> <g>         </g>  <g> <g> <g> <line style="fill:none;stroke:#000000;stroke-miterlimit:10;" x1="42.237" y1="669.148" x2="42.237" y2="663.218"/> <line style="fill:none;stroke:#000000;stroke-miterlimit:10;" x1="58.576" y1="669.148" x2="58.576" y2="663.218"/> <line style="fill:none;stroke:#000000;stroke-miterlimit:10;" x1="74.915" y1="669.148" x2="74.915" y2="663.218"/> <line style="fill:none;stroke:#000000;stroke-miterlimit:10;" x1="91.255" y1="669.148" x2="91.255" y2="663.218"/> <line style="fill:none;stroke:#000000;stroke-miterlimit:10;" x1="107.594" y1="669.148" x2="107.594" y2="663.218"/> <line style="fill:none;stroke:#000000;stroke-miterlimit:10;" x1="123.933" y1="669.148" x2="123.933" y2="663.218"/> <line style="fill:none;stroke:#000000;stroke-miterlimit:10;" x1="140.273" y1="669.148" x2="140.273" y2="663.218"/> <line style="fill:none;stroke:#000000;stroke-miterlimit:10;" x1="156.612" y1="669.148" x2="156.612" y2="663.218"/> <line style="fill:none;stroke:#000000;stroke-miterlimit:10;" x1="172.951" y1="669.148" x2="172.951" y2="663.218"/> <line style="fill:none;stroke:#000000;stroke-miterlimit:10;" x1="189.29" y1="669.148" x2="189.29" y2="663.218"/> <line style="fill:none;stroke:#000000;stroke-miterlimit:10;" x1="205.63" y1="669.148" x2="205.63" y2="663.218"/> <line style="fill:none;stroke:#000000;stroke-miterlimit:10;" x1="221.969" y1="669.148" x2="221.969" y2="663.218"/> <line style="fill:none;stroke:#000000;stroke-miterlimit:10;" x1="238.308" y1="669.148" x2="238.308" y2="663.218"/> <line style="fill:none;stroke:#000000;stroke-miterlimit:10;" x1="254.648" y1="669.148" x2="254.648" y2="663.218"/> <line style="fill:none;stroke:#000000;stroke-miterlimit:10;" x1="270.987" y1="669.148" x2="270.987" y2="663.218"/> </g> </g> <g> <g>  </g> <g>  </g> <g>  </g> <g>  </g> <g>  </g> <g>  </g> <g>  </g> <g>  </g> </g> </g>    <rect x="0" y="432.506" style="fill:none;" width="280" height="22.054"/>  <g> <rect x="115" y="464.73" style="fill:#FFFFFF;" width="165" height="27.277"/> <g>    </g> </g> <g> <rect x="115" y="545.983" style="fill:#FFFFFF;" width="165" height="41.927"/> <g>    </g> </g> <g> <g>   </g> </g> <g> <circle style="fill:none;stroke:#231F20;" cx="269.425" cy="607.705" r="9.5"/> <line style="fill:none;stroke:#231F20;" x1="269.425" y1="585.782" x2="269.425" y2="598.205"/> </g> <g> <circle style="fill:none;stroke:#231F20;" cx="269.425" cy="646.421" r="9.5"/> <polyline style="fill:none;stroke:#231F20;" points="269.425,636.921 269.425,628.498 158.25,628.498 		"/> </g> <g> <circle style="fill:none;stroke:#231F20;" cx="269.425" cy="516.329" r="9.5"/> <line style="fill:none;stroke:#231F20;" x1="269.425" y1="497.534" x2="269.425" y2="506.829"/> </g> <g>         </g> <line style="fill:#FFFFFF;stroke:#231F20;" x1="0" y1="258.883" x2="171.324" y2="258.883"/> <g> <g> <g> <line style="fill:none;stroke:#000000;stroke-width:2;stroke-miterlimit:10;" x1="38.025" y1="265.161" x2="38.025" y2="259.231"/> <line style="fill:none;stroke:#000000;stroke-miterlimit:10;" x1="46.498" y1="265.161" x2="46.498" y2="259.231"/> <line style="fill:none;stroke:#000000;stroke-miterlimit:10;" x1="54.971" y1="265.161" x2="54.971" y2="259.231"/> <line style="fill:none;stroke:#000000;stroke-miterlimit:10;" x1="63.445" y1="265.161" x2="63.445" y2="259.231"/> <line style="fill:none;stroke:#000000;stroke-width:2;stroke-miterlimit:10;" x1="71.918" y1="265.161" x2="71.918" y2="259.231"/> <line style="fill:none;stroke:#000000;stroke-miterlimit:10;" x1="80.392" y1="265.161" x2="80.392" y2="259.231"/> <line style="fill:none;stroke:#000000;stroke-miterlimit:10;" x1="88.865" y1="265.161" x2="88.865" y2="259.231"/> <line style="fill:none;stroke:#000000;stroke-miterlimit:10;" x1="97.338" y1="265.161" x2="97.338" y2="259.231"/> <line style="fill:none;stroke:#000000;stroke-miterlimit:10;" x1="105.812" y1="265.161" x2="105.812" y2="259.231"/> <line style="fill:none;stroke:#000000;stroke-width:2;stroke-miterlimit:10;" x1="114.285" y1="265.161" x2="114.285" y2="259.231"/> <line style="fill:none;stroke:#000000;stroke-miterlimit:10;" x1="122.759" y1="265.161" x2="122.759" y2="259.231"/> <line style="fill:none;stroke:#000000;stroke-miterlimit:10;" x1="131.232" y1="265.161" x2="131.232" y2="259.231"/> <line style="fill:none;stroke:#000000;stroke-miterlimit:10;" x1="139.706" y1="265.161" x2="139.706" y2="259.231"/> <line style="fill:none;stroke:#000000;stroke-miterlimit:10;" x1="148.179" y1="265.161" x2="148.179" y2="259.231"/> <line style="fill:none;stroke:#000000;stroke-width:2;stroke-miterlimit:10;" x1="156.652" y1="265.161" x2="156.652" y2="259.231"/> </g> </g> <g>     </g> </g>    <rect x="0" y="48.575" style="fill:none;" width="171.324" height="25.041"/>  <g> <g>   </g> </g> <g> <g>   </g> </g> <g> <g>   </g> </g> <g> <circle style="fill:none;stroke:#231F20;" cx="156.25" cy="206.719" r="9.5"/> <line style="fill:none;stroke:#231F20;" x1="156.25" y1="180.796" x2="156.25" y2="197.219"/> </g> <g> <circle style="fill:none;stroke:#231F20;" cx="157.408" cy="242.435" r="9.5"/> <polyline style="fill:none;stroke:#231F20;" points="157.408,232.935 157.408,225.512 112.398,225.512 		"/> </g> <g> <circle style="fill:none;stroke:#231F20;" cx="158.25" cy="118.343" r="9.5"/> <line style="fill:none;stroke:#231F20;" x1="158.25" y1="99.548" x2="158.25" y2="108.843"/> </g> <g> <g> <line style="fill:none;" x1="34.333" y1="1021.86" x2="320" y2="1021.86"/> <g> <g> <line style="fill:none;" x1="43.855" y1="1021.86" x2="43.855" y2="1017.504"/> <line style="fill:none;" x1="62.9" y1="1021.86" x2="62.9" y2="1017.504"/> <line style="fill:none;" x1="81.944" y1="1021.86" x2="81.944" y2="1017.504"/> <line style="fill:none;" x1="100.989" y1="1021.86" x2="100.989" y2="1017.504"/> <line style="fill:none;" x1="120.033" y1="1021.86" x2="120.033" y2="1017.504"/> <line style="fill:none;" x1="139.078" y1="1021.86" x2="139.078" y2="1017.504"/> <line style="fill:none;" x1="158.122" y1="1021.86" x2="158.122" y2="1017.504"/> <line style="fill:none;" x1="177.167" y1="1021.86" x2="177.167" y2="1017.504"/> <line style="fill:none;" x1="196.211" y1="1021.86" x2="196.211" y2="1017.504"/> <line style="fill:none;" x1="215.256" y1="1021.86" x2="215.256" y2="1017.504"/> <line style="fill:none;" x1="234.3" y1="1021.86" x2="234.3" y2="1017.504"/> <line style="fill:none;" x1="253.345" y1="1021.86" x2="253.345" y2="1017.504"/> <line style="fill:none;" x1="272.389" y1="1021.86" x2="272.389" y2="1017.504"/> <line style="fill:none;" x1="291.434" y1="1021.86" x2="291.434" y2="1017.504"/> <line style="fill:none;" x1="310.478" y1="1021.86" x2="310.478" y2="1017.504"/> </g> <g> </g> </g> </g> <g> <g>          </g> <line style="fill:none;" x1="34.333" y1="1021.86" x2="27.333" y2="847.599"/> <g> <g> <line style="fill:none;" x1="34.333" y1="1021.86" x2="320" y2="1021.86"/> <line style="fill:none;stroke:#E0E0E0;stroke-miterlimit:10;" x1="27.333" y1="1000.077" x2="320" y2="1000.077"/> <line style="fill:none;stroke:#E0E0E0;stroke-miterlimit:10;" x1="27.333" y1="978.295" x2="320" y2="978.295"/> <line style="fill:none;stroke:#E0E0E0;stroke-miterlimit:10;" x1="27.333" y1="956.512" x2="320" y2="956.512"/> <line style="fill:none;stroke:#E0E0E0;stroke-miterlimit:10;" x1="27.333" y1="934.729" x2="320" y2="934.729"/> <line style="fill:none;stroke:#E0E0E0;stroke-miterlimit:10;" x1="27.333" y1="912.947" x2="320" y2="912.947"/> <line style="fill:none;stroke:#E0E0E0;stroke-miterlimit:10;" x1="27.333" y1="891.164" x2="320" y2="891.164"/> <line style="fill:none;stroke:#E0E0E0;stroke-miterlimit:10;" x1="27.333" y1="869.381" x2="320" y2="869.381"/> <line style="fill:none;stroke:#E0E0E0;stroke-miterlimit:10;" x1="27.333" y1="847.599" x2="320" y2="847.599"/> </g> <g> </g> </g> </g> <g> <g> <g> <line style="fill:none;stroke:#024E87;stroke-width:4;stroke-linecap:round;stroke-linejoin:round;stroke-miterlimit:10;" x1="62.9" y1="887.897" x2="43.855" y2="887.025"/> <line style="fill:none;stroke:#024E87;stroke-width:4;stroke-linecap:round;stroke-linejoin:round;stroke-miterlimit:10;" x1="81.944" y1="886.807" x2="62.9" y2="887.897"/> <line style="fill:none;stroke:#024E87;stroke-width:4;stroke-linecap:round;stroke-linejoin:round;stroke-miterlimit:10;" x1="100.989" y1="886.807" x2="81.944" y2="886.807"/> <line style="fill:none;stroke:#024E87;stroke-width:4;stroke-linecap:round;stroke-linejoin:round;stroke-miterlimit:10;" x1="120.033" y1="883.976" x2="100.989" y2="886.807"/> <line style="fill:none;stroke:#024E87;stroke-width:4;stroke-linecap:round;stroke-linejoin:round;stroke-miterlimit:10;" x1="139.078" y1="880.708" x2="120.033" y2="883.976"/> <line style="fill:none;stroke:#024E87;stroke-width:4;stroke-linecap:round;stroke-linejoin:round;stroke-miterlimit:10;" x1="158.122" y1="880.49" x2="139.078" y2="880.708"/> <line style="fill:none;stroke:#024E87;stroke-width:4;stroke-linecap:round;stroke-linejoin:round;stroke-miterlimit:10;" x1="177.167" y1="880.273" x2="158.122" y2="880.49"/> <line style="fill:none;stroke:#024E87;stroke-width:4;stroke-linecap:round;stroke-linejoin:round;stroke-miterlimit:10;" x1="196.211" y1="879.619" x2="177.167" y2="880.273"/> <line style="fill:none;stroke:#024E87;stroke-width:4;stroke-linecap:round;stroke-linejoin:round;stroke-miterlimit:10;" x1="215.256" y1="879.619" x2="196.211" y2="879.619"/> <line style="fill:none;stroke:#024E87;stroke-width:4;stroke-linecap:round;stroke-linejoin:round;stroke-miterlimit:10;" x1="234.3" y1="883.976" x2="215.256" y2="879.619"/> <line style="fill:none;stroke:#024E87;stroke-width:4;stroke-linecap:round;stroke-linejoin:round;stroke-miterlimit:10;" x1="253.345" y1="878.312" x2="234.3" y2="883.976"/> <line style="fill:none;stroke:#024E87;stroke-width:4;stroke-linecap:round;stroke-linejoin:round;stroke-miterlimit:10;" x1="272.389" y1="878.094" x2="253.345" y2="878.312"/> <line style="fill:none;stroke:#024E87;stroke-width:4;stroke-linecap:round;stroke-linejoin:round;stroke-miterlimit:10;" x1="291.434" y1="877.877" x2="272.389" y2="878.094"/> <line style="fill:none;stroke:#024E87;stroke-width:4;stroke-linecap:round;stroke-linejoin:round;stroke-miterlimit:10;" x1="310.478" y1="875.045" x2="291.434" y2="877.877"/> </g> </g> <g> <g> <line style="fill:none;stroke:#7493C1;stroke-width:2;stroke-linecap:round;stroke-linejoin:round;stroke-miterlimit:10;" x1="62.9" y1="953.898" x2="43.855" y2="955.205"/> <line style="fill:none;stroke:#7493C1;stroke-width:2;stroke-linecap:round;stroke-linejoin:round;stroke-miterlimit:10;" x1="81.944" y1="956.512" x2="62.9" y2="953.898"/> <line style="fill:none;stroke:#7493C1;stroke-width:2;stroke-linecap:round;stroke-linejoin:round;stroke-miterlimit:10;" x1="100.989" y1="956.73" x2="81.944" y2="956.512"/> <line style="fill:none;stroke:#7493C1;stroke-width:2;stroke-linecap:round;stroke-linejoin:round;stroke-miterlimit:10;" x1="120.033" y1="959.562" x2="100.989" y2="956.73"/> <line style="fill:none;stroke:#7493C1;stroke-width:2;stroke-linecap:round;stroke-linejoin:round;stroke-miterlimit:10;" x1="139.078" y1="961.958" x2="120.033" y2="959.562"/> <line style="fill:none;stroke:#7493C1;stroke-width:2;stroke-linecap:round;stroke-linejoin:round;stroke-miterlimit:10;" x1="158.122" y1="961.304" x2="139.078" y2="961.958"/> <line style="fill:none;stroke:#7493C1;stroke-width:2;stroke-linecap:round;stroke-linejoin:round;stroke-miterlimit:10;" x1="177.167" y1="961.74" x2="158.122" y2="961.304"/> <line style="fill:none;stroke:#7493C1;stroke-width:2;stroke-linecap:round;stroke-linejoin:round;stroke-miterlimit:10;" x1="196.211" y1="972.196" x2="177.167" y2="961.74"/> <line style="fill:none;stroke:#7493C1;stroke-width:2;stroke-linecap:round;stroke-linejoin:round;stroke-miterlimit:10;" x1="215.256" y1="973.067" x2="196.211" y2="972.196"/> <line style="fill:none;stroke:#7493C1;stroke-width:2;stroke-linecap:round;stroke-linejoin:round;stroke-miterlimit:10;" x1="234.3" y1="963.918" x2="215.256" y2="973.067"/> <line style="fill:none;stroke:#7493C1;stroke-width:2;stroke-linecap:round;stroke-linejoin:round;stroke-miterlimit:10;" x1="253.345" y1="965.007" x2="234.3" y2="963.918"/> <line style="fill:none;stroke:#7493C1;stroke-width:2;stroke-linecap:round;stroke-linejoin:round;stroke-miterlimit:10;" x1="272.389" y1="965.007" x2="253.345" y2="965.007"/> <line style="fill:none;stroke:#7493C1;stroke-width:2;stroke-linecap:round;stroke-linejoin:round;stroke-miterlimit:10;" x1="291.434" y1="965.225" x2="272.389" y2="965.007"/> <line style="fill:none;stroke:#7493C1;stroke-width:2;stroke-linecap:round;stroke-linejoin:round;stroke-miterlimit:10;" x1="310.478" y1="967.621" x2="291.434" y2="965.225"/> </g> </g> <g> <g> <line style="fill:none;stroke:#AAAAAA;stroke-width:2;stroke-linecap:round;stroke-linejoin:round;stroke-miterlimit:10;" x1="62.9" y1="1005.959" x2="43.855" y2="1005.741"/> <line style="fill:none;stroke:#AAAAAA;stroke-width:2;stroke-linecap:round;stroke-linejoin:round;stroke-miterlimit:10;" x1="81.944" y1="1004.434" x2="62.9" y2="1005.959"/> <line style="fill:none;stroke:#AAAAAA;stroke-width:2;stroke-linecap:round;stroke-linejoin:round;stroke-miterlimit:10;" x1="100.989" y1="1004.434" x2="81.944" y2="1004.434"/> <line style="fill:none;stroke:#AAAAAA;stroke-width:2;stroke-linecap:round;stroke-linejoin:round;stroke-miterlimit:10;" x1="120.033" y1="1004.216" x2="100.989" y2="1004.434"/> <line style="fill:none;stroke:#AAAAAA;stroke-width:2;stroke-linecap:round;stroke-linejoin:round;stroke-miterlimit:10;" x1="139.078" y1="1005.087" x2="120.033" y2="1004.216"/> <line style="fill:none;stroke:#AAAAAA;stroke-width:2;stroke-linecap:round;stroke-linejoin:round;stroke-miterlimit:10;" x1="158.122" y1="1005.959" x2="139.078" y2="1005.087"/> <line style="fill:none;stroke:#AAAAAA;stroke-width:2;stroke-linecap:round;stroke-linejoin:round;stroke-miterlimit:10;" x1="177.167" y1="1005.741" x2="158.122" y2="1005.959"/> <line style="fill:none;stroke:#AAAAAA;stroke-width:2;stroke-linecap:round;stroke-linejoin:round;stroke-miterlimit:10;" x1="196.211" y1="995.939" x2="177.167" y2="1005.741"/> <line style="fill:none;stroke:#AAAAAA;stroke-width:2;stroke-linecap:round;stroke-linejoin:round;stroke-miterlimit:10;" x1="215.256" y1="994.85" x2="196.211" y2="995.939"/> <line style="fill:none;stroke:#AAAAAA;stroke-width:2;stroke-linecap:round;stroke-linejoin:round;stroke-miterlimit:10;" x1="234.3" y1="999.86" x2="215.256" y2="994.85"/> <line style="fill:none;stroke:#AAAAAA;stroke-width:2;stroke-linecap:round;stroke-linejoin:round;stroke-miterlimit:10;" x1="253.345" y1="1004.216" x2="234.3" y2="999.86"/> <line style="fill:none;stroke:#AAAAAA;stroke-width:2;stroke-linecap:round;stroke-linejoin:round;stroke-miterlimit:10;" x1="272.389" y1="1004.652" x2="253.345" y2="1004.216"/> <line style="fill:none;stroke:#AAAAAA;stroke-width:2;stroke-linecap:round;stroke-linejoin:round;stroke-miterlimit:10;" x1="291.434" y1="1004.87" x2="272.389" y2="1004.652"/> <line style="fill:none;stroke:#AAAAAA;stroke-width:2;stroke-linecap:round;stroke-linejoin:round;stroke-miterlimit:10;" x1="310.478" y1="1005.087" x2="291.434" y2="1004.87"/> </g> </g> </g> <g> <g> </g> <g> </g> <g> </g> </g> </g> <g>         </g>  <g> <g> <g> <line style="fill:none;stroke:#000000;stroke-miterlimit:10;" x1="43.548" y1="1028.138" x2="43.548" y2="1022.208"/> <line style="fill:none;stroke:#000000;stroke-miterlimit:10;" x1="62.599" y1="1028.138" x2="62.599" y2="1022.208"/> <line style="fill:none;stroke:#000000;stroke-miterlimit:10;" x1="81.649" y1="1028.138" x2="81.649" y2="1022.208"/> <line style="fill:none;stroke:#000000;stroke-miterlimit:10;" x1="100.7" y1="1028.138" x2="100.7" y2="1022.208"/> <line style="fill:none;stroke:#000000;stroke-miterlimit:10;" x1="119.75" y1="1028.138" x2="119.75" y2="1022.208"/> <line style="fill:none;stroke:#000000;stroke-miterlimit:10;" x1="138.801" y1="1028.138" x2="138.801" y2="1022.208"/> <line style="fill:none;stroke:#000000;stroke-miterlimit:10;" x1="157.851" y1="1028.138" x2="157.851" y2="1022.208"/> <line style="fill:none;stroke:#000000;stroke-miterlimit:10;" x1="176.902" y1="1028.138" x2="176.902" y2="1022.208"/> <line style="fill:none;stroke:#000000;stroke-miterlimit:10;" x1="195.952" y1="1028.138" x2="195.952" y2="1022.208"/> <line style="fill:none;stroke:#000000;stroke-miterlimit:10;" x1="215.003" y1="1028.138" x2="215.003" y2="1022.208"/> <line style="fill:none;stroke:#000000;stroke-miterlimit:10;" x1="234.053" y1="1028.138" x2="234.053" y2="1022.208"/> <line style="fill:none;stroke:#000000;stroke-miterlimit:10;" x1="253.104" y1="1028.138" x2="253.104" y2="1022.208"/> <line style="fill:none;stroke:#000000;stroke-miterlimit:10;" x1="272.154" y1="1028.138" x2="272.154" y2="1022.208"/> <line style="fill:none;stroke:#000000;stroke-miterlimit:10;" x1="291.205" y1="1028.138" x2="291.205" y2="1022.208"/> <line style="fill:none;stroke:#000000;stroke-miterlimit:10;" x1="310.255" y1="1028.138" x2="310.255" y2="1022.208"/> </g> </g> <g> <g>  </g> <g>  </g> <g>  </g> <g>  </g> <g>  </g> <g>  </g> <g>  </g> <g>  </g> </g> </g>   <rect x="0" y="791.497" style="fill:none;" width="280" height="22.054"/>  <g> <rect x="155" y="823.72" style="fill:#FFFFFF;" width="165" height="27.277"/> <g>    </g> </g> <g> <rect x="155" y="904.973" style="fill:#FFFFFF;" width="165" height="41.927"/> <g>    </g> </g> <g> <g>   </g> </g> <g> <circle style="fill:none;stroke:#231F20;" cx="309.425" cy="966.695" r="9.5"/> <line style="fill:none;stroke:#231F20;" x1="309.425" y1="944.772" x2="309.425" y2="957.195"/> </g> <g> <circle style="fill:none;stroke:#231F20;" cx="309.425" cy="1005.411" r="9.5"/> <polyline style="fill:none;stroke:#231F20;" points="309.425,995.911 309.425,987.488 198.25,987.488 		"/> </g> <g> <circle style="fill:none;stroke:#231F20;" cx="309.425" cy="875.319" r="9.5"/> <line style="fill:none;stroke:#231F20;" x1="309.425" y1="856.524" x2="309.425" y2="865.819"/> </g>   </g> <g id="Layer_1"> </g> </svg> 