<?xml version="1.0" encoding="utf-8"?> <!-- Generator: Adobe Illustrator 21.0.0, SVG Export Plug-In . SVG Version: 6.00 Build 0)  --> <svg version="1.1" xmlns="http://www.w3.org/2000/svg" xmlns:xlink="http://www.w3.org/1999/xlink" x="0px" y="0px" viewBox="0 0 280 300" style="enable-background:new 0 0 280 300;" xml:space="preserve"> <style> path,line,circle,rect,polygon { vector-effect: non-scaling-stroke } </style> <g id="content"> <rect x="1727.193" y="-141.613" style="fill:none;" width="233.241" height="120"/>  <rect x="1200.712" y="-141.613" style="fill:none;" width="233.241" height="120"/>  <rect x="1453.952" y="-141.613" style="fill:none;" width="233.241" height="120"/>  <rect x="927.471" y="272.198" style="fill:none;" width="233.241" height="120"/>  <rect x="927.471" y="-141.613" style="fill:none;" width="233.241" height="120"/>         <g>  </g>          <g>  <rect x="1717.193" y="-196.368" style="fill:#231F20;" width="79.5" height="30.984"/>  </g> <g>  <rect x="917.471" y="-722.985" style="fill:#231F20;" width="188.107" height="30.984"/>  </g> <g>  <rect x="1190.712" y="-196.368" style="fill:#231F20;" width="122.955" height="30.984"/>  </g> <g>  <rect x="917.471" y="-196.367" style="fill:#231F20;" width="171.124" height="30.984"/>  </g> <g>  <rect x="917.471" y="231.111" style="fill:#231F20;" width="171.124" height="30.984"/>  </g>                                     <g> <g> <rect x="927.471" y="505" style="fill:none;" width="277.879" height="17.816"/>  </g> <rect x="927.807" y="532.204" style="fill:#004E87;stroke:#E0E0E0;stroke-miterlimit:10;" width="11" height="11"/> <g>  </g> <rect x="1021.777" y="532.204" style="fill:#85B4D3;stroke:#E0E0E0;stroke-miterlimit:10;" width="11" height="11"/> <g>  </g> </g> <g> <g> <rect x="927.471" y="582" style="fill:none;" width="277.879" height="17.816"/>  </g> <rect x="927.807" y="609.204" style="fill:#004E87;stroke:#E0E0E0;stroke-miterlimit:10;" width="11" height="11"/> <g>  </g> <rect x="927.807" y="631.454" style="fill:#85B4D3;stroke:#E0E0E0;stroke-miterlimit:10;" width="11" height="11"/> </g>   <g> <rect x="927.471" y="45.582" style="fill:none;" width="527.974" height="20.999"/>  <rect x="917.471" y="38.17" width="547.974" height="33.411"/> <rect x="927.471" y="45.582" style="fill:none;" width="527.974" height="20.999"/>  </g> </g> <g id="ai2html-settings"> <rect x="-705.497" y="-185.418" style="fill:none;" width="499" height="462"/>  </g> <g id="Layer_6"> </g> <g id="Layer_3"> <g> <g> <line style="fill:none;" x1="33.926" y1="-145.103" x2="160.987" y2="-145.103"/> <g> <g> <line style="fill:none;" x1="38.161" y1="-145.103" x2="38.161" y2="-149.284"/> <line style="fill:none;" x1="46.632" y1="-145.103" x2="46.632" y2="-149.284"/> <line style="fill:none;" x1="55.103" y1="-145.103" x2="55.103" y2="-149.284"/> <line style="fill:none;" x1="63.573" y1="-145.103" x2="63.573" y2="-149.284"/> <line style="fill:none;" x1="72.044" y1="-145.103" x2="72.044" y2="-149.284"/> <line style="fill:none;" x1="80.515" y1="-145.103" x2="80.515" y2="-149.284"/> <line style="fill:none;" x1="88.986" y1="-145.103" x2="88.986" y2="-149.284"/> <line style="fill:none;" x1="97.456" y1="-145.103" x2="97.456" y2="-149.284"/> <line style="fill:none;" x1="105.927" y1="-145.103" x2="105.927" y2="-149.284"/> <line style="fill:none;" x1="114.398" y1="-145.103" x2="114.398" y2="-149.284"/> <line style="fill:none;" x1="122.869" y1="-145.103" x2="122.869" y2="-149.284"/> <line style="fill:none;" x1="131.339" y1="-145.103" x2="131.339" y2="-149.284"/> <line style="fill:none;" x1="139.81" y1="-145.103" x2="139.81" y2="-149.284"/> <line style="fill:none;" x1="148.281" y1="-145.103" x2="148.281" y2="-149.284"/> <line style="fill:none;" x1="156.752" y1="-145.103" x2="156.752" y2="-149.284"/> </g> <g> </g> </g> </g> <g> <g>          </g> <line style="fill:none;" x1="33.926" y1="-145.103" x2="28.926" y2="-312.365"/> <g> <g> <line style="fill:none;" x1="33.926" y1="-145.103" x2="160.987" y2="-145.103"/> <line style="fill:none;stroke:#E0E0E0;stroke-miterlimit:10;" x1="28.926" y1="-166.011" x2="160.987" y2="-166.011"/> <line style="fill:none;stroke:#E0E0E0;stroke-miterlimit:10;" x1="28.926" y1="-186.918" x2="160.987" y2="-186.918"/> <line style="fill:none;stroke:#E0E0E0;stroke-miterlimit:10;" x1="28.926" y1="-207.826" x2="160.987" y2="-207.826"/> <line style="fill:none;stroke:#E0E0E0;stroke-miterlimit:10;" x1="28.926" y1="-228.734" x2="160.987" y2="-228.734"/> <line style="fill:none;stroke:#E0E0E0;stroke-miterlimit:10;" x1="28.926" y1="-249.641" x2="160.987" y2="-249.641"/> <line style="fill:none;stroke:#E0E0E0;stroke-miterlimit:10;" x1="28.926" y1="-270.549" x2="160.987" y2="-270.549"/> <line style="fill:none;stroke:#E0E0E0;stroke-miterlimit:10;" x1="28.926" y1="-291.457" x2="160.987" y2="-291.457"/> <line style="fill:none;stroke:#E0E0E0;stroke-miterlimit:10;" x1="28.926" y1="-312.365" x2="160.987" y2="-312.365"/> </g> <g> </g> </g> </g> <g> <g> <g> <line style="fill:none;stroke:#024E87;stroke-width:4;stroke-linecap:round;stroke-linejoin:round;stroke-miterlimit:10;" x1="46.632" y1="-273.685" x2="38.161" y2="-274.522"/> <line style="fill:none;stroke:#024E87;stroke-width:4;stroke-linecap:round;stroke-linejoin:round;stroke-miterlimit:10;" x1="55.103" y1="-274.731" x2="46.632" y2="-273.685"/> <line style="fill:none;stroke:#024E87;stroke-width:4;stroke-linecap:round;stroke-linejoin:round;stroke-miterlimit:10;" x1="63.573" y1="-274.731" x2="55.103" y2="-274.731"/> <line style="fill:none;stroke:#024E87;stroke-width:4;stroke-linecap:round;stroke-linejoin:round;stroke-miterlimit:10;" x1="72.044" y1="-277.449" x2="63.573" y2="-274.731"/> <line style="fill:none;stroke:#024E87;stroke-width:4;stroke-linecap:round;stroke-linejoin:round;stroke-miterlimit:10;" x1="80.515" y1="-280.585" x2="72.044" y2="-277.449"/> <line style="fill:none;stroke:#024E87;stroke-width:4;stroke-linecap:round;stroke-linejoin:round;stroke-miterlimit:10;" x1="88.986" y1="-280.794" x2="80.515" y2="-280.585"/> <line style="fill:none;stroke:#024E87;stroke-width:4;stroke-linecap:round;stroke-linejoin:round;stroke-miterlimit:10;" x1="97.456" y1="-281.003" x2="88.986" y2="-280.794"/> <line style="fill:none;stroke:#024E87;stroke-width:4;stroke-linecap:round;stroke-linejoin:round;stroke-miterlimit:10;" x1="105.927" y1="-281.63" x2="97.456" y2="-281.003"/> <line style="fill:none;stroke:#024E87;stroke-width:4;stroke-linecap:round;stroke-linejoin:round;stroke-miterlimit:10;" x1="114.398" y1="-281.63" x2="105.927" y2="-281.63"/> <line style="fill:none;stroke:#024E87;stroke-width:4;stroke-linecap:round;stroke-linejoin:round;stroke-miterlimit:10;" x1="122.869" y1="-277.449" x2="114.398" y2="-281.63"/> <line style="fill:none;stroke:#024E87;stroke-width:4;stroke-linecap:round;stroke-linejoin:round;stroke-miterlimit:10;" x1="131.339" y1="-282.885" x2="122.869" y2="-277.449"/> <line style="fill:none;stroke:#024E87;stroke-width:4;stroke-linecap:round;stroke-linejoin:round;stroke-miterlimit:10;" x1="139.81" y1="-283.094" x2="131.339" y2="-282.885"/> <line style="fill:none;stroke:#024E87;stroke-width:4;stroke-linecap:round;stroke-linejoin:round;stroke-miterlimit:10;" x1="148.281" y1="-283.303" x2="139.81" y2="-283.094"/> <line style="fill:none;stroke:#024E87;stroke-width:4;stroke-linecap:round;stroke-linejoin:round;stroke-miterlimit:10;" x1="156.752" y1="-286.021" x2="148.281" y2="-283.303"/> </g> </g> <g> <g> <line style="fill:none;stroke:#7493C1;stroke-width:2;stroke-linecap:round;stroke-linejoin:round;stroke-miterlimit:10;" x1="46.632" y1="-210.335" x2="38.161" y2="-209.08"/> <line style="fill:none;stroke:#7493C1;stroke-width:2;stroke-linecap:round;stroke-linejoin:round;stroke-miterlimit:10;" x1="55.103" y1="-207.826" x2="46.632" y2="-210.335"/> <line style="fill:none;stroke:#7493C1;stroke-width:2;stroke-linecap:round;stroke-linejoin:round;stroke-miterlimit:10;" x1="63.573" y1="-207.617" x2="55.103" y2="-207.826"/> <line style="fill:none;stroke:#7493C1;stroke-width:2;stroke-linecap:round;stroke-linejoin:round;stroke-miterlimit:10;" x1="72.044" y1="-204.899" x2="63.573" y2="-207.617"/> <line style="fill:none;stroke:#7493C1;stroke-width:2;stroke-linecap:round;stroke-linejoin:round;stroke-miterlimit:10;" x1="80.515" y1="-202.599" x2="72.044" y2="-204.899"/> <line style="fill:none;stroke:#7493C1;stroke-width:2;stroke-linecap:round;stroke-linejoin:round;stroke-miterlimit:10;" x1="88.986" y1="-203.226" x2="80.515" y2="-202.599"/> <line style="fill:none;stroke:#7493C1;stroke-width:2;stroke-linecap:round;stroke-linejoin:round;stroke-miterlimit:10;" x1="97.456" y1="-202.808" x2="88.986" y2="-203.226"/> <line style="fill:none;stroke:#7493C1;stroke-width:2;stroke-linecap:round;stroke-linejoin:round;stroke-miterlimit:10;" x1="105.927" y1="-192.772" x2="97.456" y2="-202.808"/> <line style="fill:none;stroke:#7493C1;stroke-width:2;stroke-linecap:round;stroke-linejoin:round;stroke-miterlimit:10;" x1="114.398" y1="-191.936" x2="105.927" y2="-192.772"/> <line style="fill:none;stroke:#7493C1;stroke-width:2;stroke-linecap:round;stroke-linejoin:round;stroke-miterlimit:10;" x1="122.869" y1="-200.717" x2="114.398" y2="-191.936"/> <line style="fill:none;stroke:#7493C1;stroke-width:2;stroke-linecap:round;stroke-linejoin:round;stroke-miterlimit:10;" x1="131.339" y1="-199.672" x2="122.869" y2="-200.717"/> <line style="fill:none;stroke:#7493C1;stroke-width:2;stroke-linecap:round;stroke-linejoin:round;stroke-miterlimit:10;" x1="139.81" y1="-199.672" x2="131.339" y2="-199.672"/> <line style="fill:none;stroke:#7493C1;stroke-width:2;stroke-linecap:round;stroke-linejoin:round;stroke-miterlimit:10;" x1="148.281" y1="-199.463" x2="139.81" y2="-199.672"/> <line style="fill:none;stroke:#7493C1;stroke-width:2;stroke-linecap:round;stroke-linejoin:round;stroke-miterlimit:10;" x1="156.752" y1="-197.163" x2="148.281" y2="-199.463"/> </g> </g> <g> <g> <line style="fill:none;stroke:#AAAAAA;stroke-width:2;stroke-linecap:round;stroke-linejoin:round;stroke-miterlimit:10;" x1="46.632" y1="-160.366" x2="38.161" y2="-160.575"/> <line style="fill:none;stroke:#AAAAAA;stroke-width:2;stroke-linecap:round;stroke-linejoin:round;stroke-miterlimit:10;" x1="55.103" y1="-161.829" x2="46.632" y2="-160.366"/> <line style="fill:none;stroke:#AAAAAA;stroke-width:2;stroke-linecap:round;stroke-linejoin:round;stroke-miterlimit:10;" x1="63.573" y1="-161.829" x2="55.103" y2="-161.829"/> <line style="fill:none;stroke:#AAAAAA;stroke-width:2;stroke-linecap:round;stroke-linejoin:round;stroke-miterlimit:10;" x1="72.044" y1="-162.038" x2="63.573" y2="-161.829"/> <line style="fill:none;stroke:#AAAAAA;stroke-width:2;stroke-linecap:round;stroke-linejoin:round;stroke-miterlimit:10;" x1="80.515" y1="-161.202" x2="72.044" y2="-162.038"/> <line style="fill:none;stroke:#AAAAAA;stroke-width:2;stroke-linecap:round;stroke-linejoin:round;stroke-miterlimit:10;" x1="88.986" y1="-160.366" x2="80.515" y2="-161.202"/> <line style="fill:none;stroke:#AAAAAA;stroke-width:2;stroke-linecap:round;stroke-linejoin:round;stroke-miterlimit:10;" x1="97.456" y1="-160.575" x2="88.986" y2="-160.366"/> <line style="fill:none;stroke:#AAAAAA;stroke-width:2;stroke-linecap:round;stroke-linejoin:round;stroke-miterlimit:10;" x1="105.927" y1="-169.983" x2="97.456" y2="-160.575"/> <line style="fill:none;stroke:#AAAAAA;stroke-width:2;stroke-linecap:round;stroke-linejoin:round;stroke-miterlimit:10;" x1="114.398" y1="-171.028" x2="105.927" y2="-169.983"/> <line style="fill:none;stroke:#AAAAAA;stroke-width:2;stroke-linecap:round;stroke-linejoin:round;stroke-miterlimit:10;" x1="122.869" y1="-166.22" x2="114.398" y2="-171.028"/> <line style="fill:none;stroke:#AAAAAA;stroke-width:2;stroke-linecap:round;stroke-linejoin:round;stroke-miterlimit:10;" x1="131.339" y1="-162.038" x2="122.869" y2="-166.22"/> <line style="fill:none;stroke:#AAAAAA;stroke-width:2;stroke-linecap:round;stroke-linejoin:round;stroke-miterlimit:10;" x1="139.81" y1="-161.62" x2="131.339" y2="-162.038"/> <line style="fill:none;stroke:#AAAAAA;stroke-width:2;stroke-linecap:round;stroke-linejoin:round;stroke-miterlimit:10;" x1="148.281" y1="-161.411" x2="139.81" y2="-161.62"/> <line style="fill:none;stroke:#AAAAAA;stroke-width:2;stroke-linecap:round;stroke-linejoin:round;stroke-miterlimit:10;" x1="156.752" y1="-161.202" x2="148.281" y2="-161.411"/> </g> </g> </g> <g> <g> </g> <g> </g> <g> </g> </g> </g>   <g> <g> <line style="fill:none;" x1="34.333" y1="258.883" x2="279.345" y2="258.883"/> <g> <g> <line style="fill:none;" x1="42.5" y1="258.883" x2="42.5" y2="254.527"/> <line style="fill:none;" x1="58.834" y1="258.883" x2="58.834" y2="254.527"/> <line style="fill:none;" x1="75.168" y1="258.883" x2="75.168" y2="254.527"/> <line style="fill:none;" x1="91.502" y1="258.883" x2="91.502" y2="254.527"/> <line style="fill:none;" x1="107.837" y1="258.883" x2="107.837" y2="254.527"/> <line style="fill:none;" x1="124.171" y1="258.883" x2="124.171" y2="254.527"/> <line style="fill:none;" x1="140.505" y1="258.883" x2="140.505" y2="254.527"/> <line style="fill:none;" x1="156.839" y1="258.883" x2="156.839" y2="254.527"/> <line style="fill:none;" x1="173.173" y1="258.883" x2="173.173" y2="254.527"/> <line style="fill:none;" x1="189.507" y1="258.883" x2="189.507" y2="254.527"/> <line style="fill:none;" x1="205.841" y1="258.883" x2="205.841" y2="254.527"/> <line style="fill:none;" x1="222.176" y1="258.883" x2="222.176" y2="254.527"/> <line style="fill:none;" x1="238.51" y1="258.883" x2="238.51" y2="254.527"/> <line style="fill:none;" x1="254.844" y1="258.883" x2="254.844" y2="254.527"/> <line style="fill:none;" x1="271.178" y1="258.883" x2="271.178" y2="254.527"/> </g> <g> </g> </g> </g> <g> <g>          </g> <line style="fill:none;" x1="34.333" y1="258.883" x2="27.333" y2="84.622"/> <g> <g> <line style="fill:none;" x1="34.333" y1="258.883" x2="279.345" y2="258.883"/> <line style="fill:none;stroke:#E0E0E0;stroke-miterlimit:10;" x1="27.333" y1="237.101" x2="279.345" y2="237.101"/> <line style="fill:none;stroke:#E0E0E0;stroke-miterlimit:10;" x1="27.333" y1="215.318" x2="279.345" y2="215.318"/> <line style="fill:none;stroke:#E0E0E0;stroke-miterlimit:10;" x1="27.333" y1="193.535" x2="279.345" y2="193.535"/> <line style="fill:none;stroke:#E0E0E0;stroke-miterlimit:10;" x1="27.333" y1="171.753" x2="279.345" y2="171.753"/> <line style="fill:none;stroke:#E0E0E0;stroke-miterlimit:10;" x1="27.333" y1="149.97" x2="279.345" y2="149.97"/> <line style="fill:none;stroke:#E0E0E0;stroke-miterlimit:10;" x1="27.333" y1="128.187" x2="279.345" y2="128.187"/> <line style="fill:none;stroke:#E0E0E0;stroke-miterlimit:10;" x1="27.333" y1="106.405" x2="279.345" y2="106.405"/> <line style="fill:none;stroke:#E0E0E0;stroke-miterlimit:10;" x1="27.333" y1="84.622" x2="279.345" y2="84.622"/> </g> <g> </g> </g> </g> <g> <g> <g> <line style="fill:none;stroke:#024E87;stroke-width:4;stroke-linecap:round;stroke-linejoin:round;stroke-miterlimit:10;" x1="58.834" y1="124.92" x2="42.5" y2="124.049"/> <line style="fill:none;stroke:#024E87;stroke-width:4;stroke-linecap:round;stroke-linejoin:round;stroke-miterlimit:10;" x1="75.168" y1="123.831" x2="58.834" y2="124.92"/> <line style="fill:none;stroke:#024E87;stroke-width:4;stroke-linecap:round;stroke-linejoin:round;stroke-miterlimit:10;" x1="91.502" y1="123.831" x2="75.168" y2="123.831"/> <line style="fill:none;stroke:#024E87;stroke-width:4;stroke-linecap:round;stroke-linejoin:round;stroke-miterlimit:10;" x1="107.837" y1="120.999" x2="91.502" y2="123.831"/> <line style="fill:none;stroke:#024E87;stroke-width:4;stroke-linecap:round;stroke-linejoin:round;stroke-miterlimit:10;" x1="124.171" y1="117.732" x2="107.837" y2="120.999"/> <line style="fill:none;stroke:#024E87;stroke-width:4;stroke-linecap:round;stroke-linejoin:round;stroke-miterlimit:10;" x1="140.505" y1="117.514" x2="124.171" y2="117.732"/> <line style="fill:none;stroke:#024E87;stroke-width:4;stroke-linecap:round;stroke-linejoin:round;stroke-miterlimit:10;" x1="156.839" y1="117.296" x2="140.505" y2="117.514"/> <line style="fill:none;stroke:#024E87;stroke-width:4;stroke-linecap:round;stroke-linejoin:round;stroke-miterlimit:10;" x1="173.173" y1="116.643" x2="156.839" y2="117.296"/> <line style="fill:none;stroke:#024E87;stroke-width:4;stroke-linecap:round;stroke-linejoin:round;stroke-miterlimit:10;" x1="189.507" y1="116.643" x2="173.173" y2="116.643"/> <line style="fill:none;stroke:#024E87;stroke-width:4;stroke-linecap:round;stroke-linejoin:round;stroke-miterlimit:10;" x1="205.841" y1="120.999" x2="189.507" y2="116.643"/> <line style="fill:none;stroke:#024E87;stroke-width:4;stroke-linecap:round;stroke-linejoin:round;stroke-miterlimit:10;" x1="222.176" y1="115.336" x2="205.841" y2="120.999"/> <line style="fill:none;stroke:#024E87;stroke-width:4;stroke-linecap:round;stroke-linejoin:round;stroke-miterlimit:10;" x1="238.51" y1="115.118" x2="222.176" y2="115.336"/> <line style="fill:none;stroke:#024E87;stroke-width:4;stroke-linecap:round;stroke-linejoin:round;stroke-miterlimit:10;" x1="254.844" y1="114.9" x2="238.51" y2="115.118"/> <line style="fill:none;stroke:#024E87;stroke-width:4;stroke-linecap:round;stroke-linejoin:round;stroke-miterlimit:10;" x1="271.178" y1="112.068" x2="254.844" y2="114.9"/> </g> </g> <g> <g> <line style="fill:none;stroke:#7493C1;stroke-width:2;stroke-linecap:round;stroke-linejoin:round;stroke-miterlimit:10;" x1="58.834" y1="190.921" x2="42.5" y2="192.228"/> <line style="fill:none;stroke:#7493C1;stroke-width:2;stroke-linecap:round;stroke-linejoin:round;stroke-miterlimit:10;" x1="75.168" y1="193.535" x2="58.834" y2="190.921"/> <line style="fill:none;stroke:#7493C1;stroke-width:2;stroke-linecap:round;stroke-linejoin:round;stroke-miterlimit:10;" x1="91.502" y1="193.753" x2="75.168" y2="193.535"/> <line style="fill:none;stroke:#7493C1;stroke-width:2;stroke-linecap:round;stroke-linejoin:round;stroke-miterlimit:10;" x1="107.837" y1="196.585" x2="91.502" y2="193.753"/> <line style="fill:none;stroke:#7493C1;stroke-width:2;stroke-linecap:round;stroke-linejoin:round;stroke-miterlimit:10;" x1="124.171" y1="198.981" x2="107.837" y2="196.585"/> <line style="fill:none;stroke:#7493C1;stroke-width:2;stroke-linecap:round;stroke-linejoin:round;stroke-miterlimit:10;" x1="140.505" y1="198.328" x2="124.171" y2="198.981"/> <line style="fill:none;stroke:#7493C1;stroke-width:2;stroke-linecap:round;stroke-linejoin:round;stroke-miterlimit:10;" x1="156.839" y1="198.763" x2="140.505" y2="198.328"/> <line style="fill:none;stroke:#7493C1;stroke-width:2;stroke-linecap:round;stroke-linejoin:round;stroke-miterlimit:10;" x1="173.173" y1="209.219" x2="156.839" y2="198.763"/> <line style="fill:none;stroke:#7493C1;stroke-width:2;stroke-linecap:round;stroke-linejoin:round;stroke-miterlimit:10;" x1="189.507" y1="210.09" x2="173.173" y2="209.219"/> <line style="fill:none;stroke:#7493C1;stroke-width:2;stroke-linecap:round;stroke-linejoin:round;stroke-miterlimit:10;" x1="205.841" y1="200.942" x2="189.507" y2="210.09"/> <line style="fill:none;stroke:#7493C1;stroke-width:2;stroke-linecap:round;stroke-linejoin:round;stroke-miterlimit:10;" x1="222.176" y1="202.031" x2="205.841" y2="200.942"/> <line style="fill:none;stroke:#7493C1;stroke-width:2;stroke-linecap:round;stroke-linejoin:round;stroke-miterlimit:10;" x1="238.51" y1="202.031" x2="222.176" y2="202.031"/> <line style="fill:none;stroke:#7493C1;stroke-width:2;stroke-linecap:round;stroke-linejoin:round;stroke-miterlimit:10;" x1="254.844" y1="202.248" x2="238.51" y2="202.031"/> <line style="fill:none;stroke:#7493C1;stroke-width:2;stroke-linecap:round;stroke-linejoin:round;stroke-miterlimit:10;" x1="271.178" y1="204.645" x2="254.844" y2="202.248"/> </g> </g> <g> <g> <line style="fill:none;stroke:#AAAAAA;stroke-width:2;stroke-linecap:round;stroke-linejoin:round;stroke-miterlimit:10;" x1="58.834" y1="242.982" x2="42.5" y2="242.764"/> <line style="fill:none;stroke:#AAAAAA;stroke-width:2;stroke-linecap:round;stroke-linejoin:round;stroke-miterlimit:10;" x1="75.168" y1="241.457" x2="58.834" y2="242.982"/> <line style="fill:none;stroke:#AAAAAA;stroke-width:2;stroke-linecap:round;stroke-linejoin:round;stroke-miterlimit:10;" x1="91.502" y1="241.457" x2="75.168" y2="241.457"/> <line style="fill:none;stroke:#AAAAAA;stroke-width:2;stroke-linecap:round;stroke-linejoin:round;stroke-miterlimit:10;" x1="107.837" y1="241.239" x2="91.502" y2="241.457"/> <line style="fill:none;stroke:#AAAAAA;stroke-width:2;stroke-linecap:round;stroke-linejoin:round;stroke-miterlimit:10;" x1="124.171" y1="242.111" x2="107.837" y2="241.239"/> <line style="fill:none;stroke:#AAAAAA;stroke-width:2;stroke-linecap:round;stroke-linejoin:round;stroke-miterlimit:10;" x1="140.505" y1="242.982" x2="124.171" y2="242.111"/> <line style="fill:none;stroke:#AAAAAA;stroke-width:2;stroke-linecap:round;stroke-linejoin:round;stroke-miterlimit:10;" x1="156.839" y1="242.764" x2="140.505" y2="242.982"/> <line style="fill:none;stroke:#AAAAAA;stroke-width:2;stroke-linecap:round;stroke-linejoin:round;stroke-miterlimit:10;" x1="173.173" y1="232.962" x2="156.839" y2="242.764"/> <line style="fill:none;stroke:#AAAAAA;stroke-width:2;stroke-linecap:round;stroke-linejoin:round;stroke-miterlimit:10;" x1="189.507" y1="231.873" x2="173.173" y2="232.962"/> <line style="fill:none;stroke:#AAAAAA;stroke-width:2;stroke-linecap:round;stroke-linejoin:round;stroke-miterlimit:10;" x1="205.841" y1="236.883" x2="189.507" y2="231.873"/> <line style="fill:none;stroke:#AAAAAA;stroke-width:2;stroke-linecap:round;stroke-linejoin:round;stroke-miterlimit:10;" x1="222.176" y1="241.239" x2="205.841" y2="236.883"/> <line style="fill:none;stroke:#AAAAAA;stroke-width:2;stroke-linecap:round;stroke-linejoin:round;stroke-miterlimit:10;" x1="238.51" y1="241.675" x2="222.176" y2="241.239"/> <line style="fill:none;stroke:#AAAAAA;stroke-width:2;stroke-linecap:round;stroke-linejoin:round;stroke-miterlimit:10;" x1="254.844" y1="241.893" x2="238.51" y2="241.675"/> <line style="fill:none;stroke:#AAAAAA;stroke-width:2;stroke-linecap:round;stroke-linejoin:round;stroke-miterlimit:10;" x1="271.178" y1="242.111" x2="254.844" y2="241.893"/> </g> </g> </g> <g> <g> </g> <g> </g> <g> </g> </g> </g> <g>         </g> <line style="fill:#FFFFFF;stroke:#231F20;" x1="0" y1="258.883" x2="279.345" y2="258.883"/> <g> <g> <g> <line style="fill:none;stroke:#000000;stroke-miterlimit:10;" x1="42.237" y1="265.161" x2="42.237" y2="259.231"/> <line style="fill:none;stroke:#000000;stroke-miterlimit:10;" x1="58.576" y1="265.161" x2="58.576" y2="259.231"/> <line style="fill:none;stroke:#000000;stroke-miterlimit:10;" x1="74.915" y1="265.161" x2="74.915" y2="259.231"/> <line style="fill:none;stroke:#000000;stroke-miterlimit:10;" x1="91.255" y1="265.161" x2="91.255" y2="259.231"/> <line style="fill:none;stroke:#000000;stroke-miterlimit:10;" x1="107.594" y1="265.161" x2="107.594" y2="259.231"/> <line style="fill:none;stroke:#000000;stroke-miterlimit:10;" x1="123.933" y1="265.161" x2="123.933" y2="259.231"/> <line style="fill:none;stroke:#000000;stroke-miterlimit:10;" x1="140.273" y1="265.161" x2="140.273" y2="259.231"/> <line style="fill:none;stroke:#000000;stroke-miterlimit:10;" x1="156.612" y1="265.161" x2="156.612" y2="259.231"/> <line style="fill:none;stroke:#000000;stroke-miterlimit:10;" x1="172.951" y1="265.161" x2="172.951" y2="259.231"/> <line style="fill:none;stroke:#000000;stroke-miterlimit:10;" x1="189.29" y1="265.161" x2="189.29" y2="259.231"/> <line style="fill:none;stroke:#000000;stroke-miterlimit:10;" x1="205.63" y1="265.161" x2="205.63" y2="259.231"/> <line style="fill:none;stroke:#000000;stroke-miterlimit:10;" x1="221.969" y1="265.161" x2="221.969" y2="259.231"/> <line style="fill:none;stroke:#000000;stroke-miterlimit:10;" x1="238.308" y1="265.161" x2="238.308" y2="259.231"/> <line style="fill:none;stroke:#000000;stroke-miterlimit:10;" x1="254.648" y1="265.161" x2="254.648" y2="259.231"/> <line style="fill:none;stroke:#000000;stroke-miterlimit:10;" x1="270.987" y1="265.161" x2="270.987" y2="259.231"/> </g> </g> <g>         </g> </g>    <rect x="0" y="28.52" style="fill:none;" width="280" height="22.054"/>  <g> <rect x="115" y="60.743" style="fill:#FFFFFF;" width="165" height="27.277"/> <g>    </g> </g> <g> <rect x="115" y="141.997" style="fill:#FFFFFF;" width="165" height="41.927"/> <g>    </g> </g> <g> <g>   </g> </g> <g> <circle style="fill:none;stroke:#231F20;" cx="269.425" cy="203.719" r="9.5"/> <line style="fill:none;stroke:#231F20;" x1="269.425" y1="181.796" x2="269.425" y2="194.219"/> </g> <g> <circle style="fill:none;stroke:#231F20;" cx="269.425" cy="242.435" r="9.5"/> <polyline style="fill:none;stroke:#231F20;" points="269.425,232.935 269.425,224.512 158.25,224.512 		"/> </g> <g> <circle style="fill:none;stroke:#231F20;" cx="269.425" cy="112.343" r="9.5"/> <line style="fill:none;stroke:#231F20;" x1="269.425" y1="93.548" x2="269.425" y2="102.843"/> </g> <g>         </g>  <g> <g> <g> <line style="fill:none;stroke:#000000;stroke-width:2;stroke-miterlimit:10;" x1="38.025" y1="-138.825" x2="38.025" y2="-144.755"/> <line style="fill:none;stroke:#000000;stroke-miterlimit:10;" x1="46.498" y1="-138.825" x2="46.498" y2="-144.755"/> <line style="fill:none;stroke:#000000;stroke-miterlimit:10;" x1="54.971" y1="-138.825" x2="54.971" y2="-144.755"/> <line style="fill:none;stroke:#000000;stroke-miterlimit:10;" x1="63.445" y1="-138.825" x2="63.445" y2="-144.755"/> <line style="fill:none;stroke:#000000;stroke-width:2;stroke-miterlimit:10;" x1="71.918" y1="-138.825" x2="71.918" y2="-144.755"/> <line style="fill:none;stroke:#000000;stroke-miterlimit:10;" x1="80.392" y1="-138.825" x2="80.392" y2="-144.755"/> <line style="fill:none;stroke:#000000;stroke-miterlimit:10;" x1="88.865" y1="-138.825" x2="88.865" y2="-144.755"/> <line style="fill:none;stroke:#000000;stroke-miterlimit:10;" x1="97.338" y1="-138.825" x2="97.338" y2="-144.755"/> <line style="fill:none;stroke:#000000;stroke-miterlimit:10;" x1="105.812" y1="-138.825" x2="105.812" y2="-144.755"/> <line style="fill:none;stroke:#000000;stroke-width:2;stroke-miterlimit:10;" x1="114.285" y1="-138.825" x2="114.285" y2="-144.755"/> <line style="fill:none;stroke:#000000;stroke-miterlimit:10;" x1="122.759" y1="-138.825" x2="122.759" y2="-144.755"/> <line style="fill:none;stroke:#000000;stroke-miterlimit:10;" x1="131.232" y1="-138.825" x2="131.232" y2="-144.755"/> <line style="fill:none;stroke:#000000;stroke-miterlimit:10;" x1="139.706" y1="-138.825" x2="139.706" y2="-144.755"/> <line style="fill:none;stroke:#000000;stroke-miterlimit:10;" x1="148.179" y1="-138.825" x2="148.179" y2="-144.755"/> <line style="fill:none;stroke:#000000;stroke-width:2;stroke-miterlimit:10;" x1="156.652" y1="-138.825" x2="156.652" y2="-144.755"/> </g> </g> <g> <g>  </g> <g>  </g> <g>  </g> <g>  </g> </g> </g>    <rect x="0" y="-355.412" style="fill:none;" width="171.324" height="25.041"/>  <g> <g>   </g> </g> <g> <g>   </g> </g> <g> <g>   </g> </g> <g> <circle style="fill:none;stroke:#231F20;" cx="156.25" cy="-197.268" r="9.5"/> <line style="fill:none;stroke:#231F20;" x1="156.25" y1="-223.191" x2="156.25" y2="-206.768"/> </g> <g> <circle style="fill:none;stroke:#231F20;" cx="157.408" cy="-161.551" r="9.5"/> <polyline style="fill:none;stroke:#231F20;" points="157.408,-171.051 157.408,-178.475 112.398,-178.475 		"/> </g> <g> <circle style="fill:none;stroke:#231F20;" cx="158.25" cy="-285.644" r="9.5"/> <line style="fill:none;stroke:#231F20;" x1="158.25" y1="-304.438" x2="158.25" y2="-295.144"/> </g> <g> <g> <line style="fill:none;" x1="34.333" y1="617.874" x2="320" y2="617.874"/> <g> <g> <line style="fill:none;" x1="43.855" y1="617.874" x2="43.855" y2="613.517"/> <line style="fill:none;" x1="62.9" y1="617.874" x2="62.9" y2="613.517"/> <line style="fill:none;" x1="81.944" y1="617.874" x2="81.944" y2="613.517"/> <line style="fill:none;" x1="100.989" y1="617.874" x2="100.989" y2="613.517"/> <line style="fill:none;" x1="120.033" y1="617.874" x2="120.033" y2="613.517"/> <line style="fill:none;" x1="139.078" y1="617.874" x2="139.078" y2="613.517"/> <line style="fill:none;" x1="158.122" y1="617.874" x2="158.122" y2="613.517"/> <line style="fill:none;" x1="177.167" y1="617.874" x2="177.167" y2="613.517"/> <line style="fill:none;" x1="196.211" y1="617.874" x2="196.211" y2="613.517"/> <line style="fill:none;" x1="215.256" y1="617.874" x2="215.256" y2="613.517"/> <line style="fill:none;" x1="234.3" y1="617.874" x2="234.3" y2="613.517"/> <line style="fill:none;" x1="253.345" y1="617.874" x2="253.345" y2="613.517"/> <line style="fill:none;" x1="272.389" y1="617.874" x2="272.389" y2="613.517"/> <line style="fill:none;" x1="291.434" y1="617.874" x2="291.434" y2="613.517"/> <line style="fill:none;" x1="310.478" y1="617.874" x2="310.478" y2="613.517"/> </g> <g> </g> </g> </g> <g> <g>          </g> <line style="fill:none;" x1="34.333" y1="617.874" x2="27.333" y2="443.612"/> <g> <g> <line style="fill:none;" x1="34.333" y1="617.874" x2="320" y2="617.874"/> <line style="fill:none;stroke:#E0E0E0;stroke-miterlimit:10;" x1="27.333" y1="596.091" x2="320" y2="596.091"/> <line style="fill:none;stroke:#E0E0E0;stroke-miterlimit:10;" x1="27.333" y1="574.308" x2="320" y2="574.308"/> <line style="fill:none;stroke:#E0E0E0;stroke-miterlimit:10;" x1="27.333" y1="552.526" x2="320" y2="552.526"/> <line style="fill:none;stroke:#E0E0E0;stroke-miterlimit:10;" x1="27.333" y1="530.743" x2="320" y2="530.743"/> <line style="fill:none;stroke:#E0E0E0;stroke-miterlimit:10;" x1="27.333" y1="508.96" x2="320" y2="508.96"/> <line style="fill:none;stroke:#E0E0E0;stroke-miterlimit:10;" x1="27.333" y1="487.178" x2="320" y2="487.178"/> <line style="fill:none;stroke:#E0E0E0;stroke-miterlimit:10;" x1="27.333" y1="465.395" x2="320" y2="465.395"/> <line style="fill:none;stroke:#E0E0E0;stroke-miterlimit:10;" x1="27.333" y1="443.612" x2="320" y2="443.612"/> </g> <g> </g> </g> </g> <g> <g> <g> <line style="fill:none;stroke:#024E87;stroke-width:4;stroke-linecap:round;stroke-linejoin:round;stroke-miterlimit:10;" x1="62.9" y1="483.91" x2="43.855" y2="483.039"/> <line style="fill:none;stroke:#024E87;stroke-width:4;stroke-linecap:round;stroke-linejoin:round;stroke-miterlimit:10;" x1="81.944" y1="482.821" x2="62.9" y2="483.91"/> <line style="fill:none;stroke:#024E87;stroke-width:4;stroke-linecap:round;stroke-linejoin:round;stroke-miterlimit:10;" x1="100.989" y1="482.821" x2="81.944" y2="482.821"/> <line style="fill:none;stroke:#024E87;stroke-width:4;stroke-linecap:round;stroke-linejoin:round;stroke-miterlimit:10;" x1="120.033" y1="479.989" x2="100.989" y2="482.821"/> <line style="fill:none;stroke:#024E87;stroke-width:4;stroke-linecap:round;stroke-linejoin:round;stroke-miterlimit:10;" x1="139.078" y1="476.722" x2="120.033" y2="479.989"/> <line style="fill:none;stroke:#024E87;stroke-width:4;stroke-linecap:round;stroke-linejoin:round;stroke-miterlimit:10;" x1="158.122" y1="476.504" x2="139.078" y2="476.722"/> <line style="fill:none;stroke:#024E87;stroke-width:4;stroke-linecap:round;stroke-linejoin:round;stroke-miterlimit:10;" x1="177.167" y1="476.286" x2="158.122" y2="476.504"/> <line style="fill:none;stroke:#024E87;stroke-width:4;stroke-linecap:round;stroke-linejoin:round;stroke-miterlimit:10;" x1="196.211" y1="475.633" x2="177.167" y2="476.286"/> <line style="fill:none;stroke:#024E87;stroke-width:4;stroke-linecap:round;stroke-linejoin:round;stroke-miterlimit:10;" x1="215.256" y1="475.633" x2="196.211" y2="475.633"/> <line style="fill:none;stroke:#024E87;stroke-width:4;stroke-linecap:round;stroke-linejoin:round;stroke-miterlimit:10;" x1="234.3" y1="479.989" x2="215.256" y2="475.633"/> <line style="fill:none;stroke:#024E87;stroke-width:4;stroke-linecap:round;stroke-linejoin:round;stroke-miterlimit:10;" x1="253.345" y1="474.326" x2="234.3" y2="479.989"/> <line style="fill:none;stroke:#024E87;stroke-width:4;stroke-linecap:round;stroke-linejoin:round;stroke-miterlimit:10;" x1="272.389" y1="474.108" x2="253.345" y2="474.326"/> <line style="fill:none;stroke:#024E87;stroke-width:4;stroke-linecap:round;stroke-linejoin:round;stroke-miterlimit:10;" x1="291.434" y1="473.89" x2="272.389" y2="474.108"/> <line style="fill:none;stroke:#024E87;stroke-width:4;stroke-linecap:round;stroke-linejoin:round;stroke-miterlimit:10;" x1="310.478" y1="471.058" x2="291.434" y2="473.89"/> </g> </g> <g> <g> <line style="fill:none;stroke:#7493C1;stroke-width:2;stroke-linecap:round;stroke-linejoin:round;stroke-miterlimit:10;" x1="62.9" y1="549.912" x2="43.855" y2="551.219"/> <line style="fill:none;stroke:#7493C1;stroke-width:2;stroke-linecap:round;stroke-linejoin:round;stroke-miterlimit:10;" x1="81.944" y1="552.526" x2="62.9" y2="549.912"/> <line style="fill:none;stroke:#7493C1;stroke-width:2;stroke-linecap:round;stroke-linejoin:round;stroke-miterlimit:10;" x1="100.989" y1="552.744" x2="81.944" y2="552.526"/> <line style="fill:none;stroke:#7493C1;stroke-width:2;stroke-linecap:round;stroke-linejoin:round;stroke-miterlimit:10;" x1="120.033" y1="555.575" x2="100.989" y2="552.744"/> <line style="fill:none;stroke:#7493C1;stroke-width:2;stroke-linecap:round;stroke-linejoin:round;stroke-miterlimit:10;" x1="139.078" y1="557.971" x2="120.033" y2="555.575"/> <line style="fill:none;stroke:#7493C1;stroke-width:2;stroke-linecap:round;stroke-linejoin:round;stroke-miterlimit:10;" x1="158.122" y1="557.318" x2="139.078" y2="557.971"/> <line style="fill:none;stroke:#7493C1;stroke-width:2;stroke-linecap:round;stroke-linejoin:round;stroke-miterlimit:10;" x1="177.167" y1="557.754" x2="158.122" y2="557.318"/> <line style="fill:none;stroke:#7493C1;stroke-width:2;stroke-linecap:round;stroke-linejoin:round;stroke-miterlimit:10;" x1="196.211" y1="568.209" x2="177.167" y2="557.754"/> <line style="fill:none;stroke:#7493C1;stroke-width:2;stroke-linecap:round;stroke-linejoin:round;stroke-miterlimit:10;" x1="215.256" y1="569.081" x2="196.211" y2="568.209"/> <line style="fill:none;stroke:#7493C1;stroke-width:2;stroke-linecap:round;stroke-linejoin:round;stroke-miterlimit:10;" x1="234.3" y1="559.932" x2="215.256" y2="569.081"/> <line style="fill:none;stroke:#7493C1;stroke-width:2;stroke-linecap:round;stroke-linejoin:round;stroke-miterlimit:10;" x1="253.345" y1="561.021" x2="234.3" y2="559.932"/> <line style="fill:none;stroke:#7493C1;stroke-width:2;stroke-linecap:round;stroke-linejoin:round;stroke-miterlimit:10;" x1="272.389" y1="561.021" x2="253.345" y2="561.021"/> <line style="fill:none;stroke:#7493C1;stroke-width:2;stroke-linecap:round;stroke-linejoin:round;stroke-miterlimit:10;" x1="291.434" y1="561.239" x2="272.389" y2="561.021"/> <line style="fill:none;stroke:#7493C1;stroke-width:2;stroke-linecap:round;stroke-linejoin:round;stroke-miterlimit:10;" x1="310.478" y1="563.635" x2="291.434" y2="561.239"/> </g> </g> <g> <g> <line style="fill:none;stroke:#AAAAAA;stroke-width:2;stroke-linecap:round;stroke-linejoin:round;stroke-miterlimit:10;" x1="62.9" y1="601.972" x2="43.855" y2="601.755"/> <line style="fill:none;stroke:#AAAAAA;stroke-width:2;stroke-linecap:round;stroke-linejoin:round;stroke-miterlimit:10;" x1="81.944" y1="600.448" x2="62.9" y2="601.972"/> <line style="fill:none;stroke:#AAAAAA;stroke-width:2;stroke-linecap:round;stroke-linejoin:round;stroke-miterlimit:10;" x1="100.989" y1="600.448" x2="81.944" y2="600.448"/> <line style="fill:none;stroke:#AAAAAA;stroke-width:2;stroke-linecap:round;stroke-linejoin:round;stroke-miterlimit:10;" x1="120.033" y1="600.23" x2="100.989" y2="600.448"/> <line style="fill:none;stroke:#AAAAAA;stroke-width:2;stroke-linecap:round;stroke-linejoin:round;stroke-miterlimit:10;" x1="139.078" y1="601.101" x2="120.033" y2="600.23"/> <line style="fill:none;stroke:#AAAAAA;stroke-width:2;stroke-linecap:round;stroke-linejoin:round;stroke-miterlimit:10;" x1="158.122" y1="601.972" x2="139.078" y2="601.101"/> <line style="fill:none;stroke:#AAAAAA;stroke-width:2;stroke-linecap:round;stroke-linejoin:round;stroke-miterlimit:10;" x1="177.167" y1="601.755" x2="158.122" y2="601.972"/> <line style="fill:none;stroke:#AAAAAA;stroke-width:2;stroke-linecap:round;stroke-linejoin:round;stroke-miterlimit:10;" x1="196.211" y1="591.952" x2="177.167" y2="601.755"/> <line style="fill:none;stroke:#AAAAAA;stroke-width:2;stroke-linecap:round;stroke-linejoin:round;stroke-miterlimit:10;" x1="215.256" y1="590.863" x2="196.211" y2="591.952"/> <line style="fill:none;stroke:#AAAAAA;stroke-width:2;stroke-linecap:round;stroke-linejoin:round;stroke-miterlimit:10;" x1="234.3" y1="595.873" x2="215.256" y2="590.863"/> <line style="fill:none;stroke:#AAAAAA;stroke-width:2;stroke-linecap:round;stroke-linejoin:round;stroke-miterlimit:10;" x1="253.345" y1="600.23" x2="234.3" y2="595.873"/> <line style="fill:none;stroke:#AAAAAA;stroke-width:2;stroke-linecap:round;stroke-linejoin:round;stroke-miterlimit:10;" x1="272.389" y1="600.665" x2="253.345" y2="600.23"/> <line style="fill:none;stroke:#AAAAAA;stroke-width:2;stroke-linecap:round;stroke-linejoin:round;stroke-miterlimit:10;" x1="291.434" y1="600.883" x2="272.389" y2="600.665"/> <line style="fill:none;stroke:#AAAAAA;stroke-width:2;stroke-linecap:round;stroke-linejoin:round;stroke-miterlimit:10;" x1="310.478" y1="601.101" x2="291.434" y2="600.883"/> </g> </g> </g> <g> <g> </g> <g> </g> <g> </g> </g> </g> <g>         </g>  <g> <g> <g> <line style="fill:none;stroke:#000000;stroke-miterlimit:10;" x1="43.548" y1="624.152" x2="43.548" y2="618.222"/> <line style="fill:none;stroke:#000000;stroke-miterlimit:10;" x1="62.599" y1="624.152" x2="62.599" y2="618.222"/> <line style="fill:none;stroke:#000000;stroke-miterlimit:10;" x1="81.649" y1="624.152" x2="81.649" y2="618.222"/> <line style="fill:none;stroke:#000000;stroke-miterlimit:10;" x1="100.7" y1="624.152" x2="100.7" y2="618.222"/> <line style="fill:none;stroke:#000000;stroke-miterlimit:10;" x1="119.75" y1="624.152" x2="119.75" y2="618.222"/> <line style="fill:none;stroke:#000000;stroke-miterlimit:10;" x1="138.801" y1="624.152" x2="138.801" y2="618.222"/> <line style="fill:none;stroke:#000000;stroke-miterlimit:10;" x1="157.851" y1="624.152" x2="157.851" y2="618.222"/> <line style="fill:none;stroke:#000000;stroke-miterlimit:10;" x1="176.902" y1="624.152" x2="176.902" y2="618.222"/> <line style="fill:none;stroke:#000000;stroke-miterlimit:10;" x1="195.952" y1="624.152" x2="195.952" y2="618.222"/> <line style="fill:none;stroke:#000000;stroke-miterlimit:10;" x1="215.003" y1="624.152" x2="215.003" y2="618.222"/> <line style="fill:none;stroke:#000000;stroke-miterlimit:10;" x1="234.053" y1="624.152" x2="234.053" y2="618.222"/> <line style="fill:none;stroke:#000000;stroke-miterlimit:10;" x1="253.104" y1="624.152" x2="253.104" y2="618.222"/> <line style="fill:none;stroke:#000000;stroke-miterlimit:10;" x1="272.154" y1="624.152" x2="272.154" y2="618.222"/> <line style="fill:none;stroke:#000000;stroke-miterlimit:10;" x1="291.205" y1="624.152" x2="291.205" y2="618.222"/> <line style="fill:none;stroke:#000000;stroke-miterlimit:10;" x1="310.255" y1="624.152" x2="310.255" y2="618.222"/> </g> </g> <g> <g>  </g> <g>  </g> <g>  </g> <g>  </g> <g>  </g> <g>  </g> <g>  </g> <g>  </g> </g> </g>   <rect x="0" y="387.51" style="fill:none;" width="280" height="22.054"/>  <g> <rect x="155" y="419.733" style="fill:#FFFFFF;" width="165" height="27.277"/> <g>    </g> </g> <g> <rect x="155" y="500.987" style="fill:#FFFFFF;" width="165" height="41.927"/> <g>    </g> </g> <g> <g>   </g> </g> <g> <circle style="fill:none;stroke:#231F20;" cx="309.425" cy="562.709" r="9.5"/> <line style="fill:none;stroke:#231F20;" x1="309.425" y1="540.786" x2="309.425" y2="553.209"/> </g> <g> <circle style="fill:none;stroke:#231F20;" cx="309.425" cy="601.425" r="9.5"/> <polyline style="fill:none;stroke:#231F20;" points="309.425,591.925 309.425,583.502 198.25,583.502 		"/> </g> <g> <circle style="fill:none;stroke:#231F20;" cx="309.425" cy="471.333" r="9.5"/> <line style="fill:none;stroke:#231F20;" x1="309.425" y1="452.538" x2="309.425" y2="461.833"/> </g>   </g> <g id="Layer_1"> </g> </svg> 