<?xml version="1.0" encoding="utf-8"?> <!-- Generator: Adobe Illustrator 21.0.0, SVG Export Plug-In . SVG Version: 6.00 Build 0)  --> <svg version="1.1" xmlns="http://www.w3.org/2000/svg" xmlns:xlink="http://www.w3.org/1999/xlink" x="0px" y="0px" viewBox="0 0 170 300" style="enable-background:new 0 0 170 300;" xml:space="preserve"> <style> path,line,circle,rect,polygon { vector-effect: non-scaling-stroke } </style> <g id="content"> <rect x="1727.193" y="262.373" style="fill:none;" width="233.241" height="120"/>  <rect x="1200.712" y="262.373" style="fill:none;" width="233.241" height="120"/>  <rect x="1453.952" y="262.373" style="fill:none;" width="233.241" height="120"/>  <rect x="927.471" y="676.184" style="fill:none;" width="233.241" height="120"/>  <rect x="927.471" y="262.373" style="fill:none;" width="233.241" height="120"/>         <g>  </g>          <g>  <rect x="1717.193" y="207.618" style="fill:#231F20;" width="79.5" height="30.984"/>  </g> <g>  <rect x="917.471" y="-318.998" style="fill:#231F20;" width="188.107" height="30.984"/>  </g> <g>  <rect x="1190.712" y="207.619" style="fill:#231F20;" width="122.955" height="30.984"/>  </g> <g>  <rect x="917.471" y="207.619" style="fill:#231F20;" width="171.124" height="30.984"/>  </g> <g>  <rect x="917.471" y="635.098" style="fill:#231F20;" width="171.124" height="30.984"/>  </g>                                     <g> <g> <rect x="927.471" y="908.986" style="fill:none;" width="277.879" height="17.816"/>  </g> <rect x="927.807" y="936.19" style="fill:#004E87;stroke:#E0E0E0;stroke-miterlimit:10;" width="11" height="11"/> <g>  </g> <rect x="1021.777" y="936.19" style="fill:#85B4D3;stroke:#E0E0E0;stroke-miterlimit:10;" width="11" height="11"/> <g>  </g> </g> <g> <g> <rect x="927.471" y="985.986" style="fill:none;" width="277.879" height="17.816"/>  </g> <rect x="927.807" y="1013.19" style="fill:#004E87;stroke:#E0E0E0;stroke-miterlimit:10;" width="11" height="11"/> <g>  </g> <rect x="927.807" y="1035.44" style="fill:#85B4D3;stroke:#E0E0E0;stroke-miterlimit:10;" width="11" height="11"/> </g>   <g> <rect x="927.471" y="449.569" style="fill:none;" width="527.974" height="20.999"/>  <rect x="917.471" y="442.156" width="547.974" height="33.411"/> <rect x="927.471" y="449.569" style="fill:none;" width="527.974" height="20.999"/>  </g> </g> <g id="ai2html-settings"> <rect x="-705.497" y="218.569" style="fill:none;" width="499" height="462"/>  </g> <g id="Layer_6"> </g> <g id="Layer_3"> <g> <g> <line style="fill:none;" x1="33.926" y1="258.883" x2="160.987" y2="258.883"/> <g> <g> <line style="fill:none;" x1="38.161" y1="258.883" x2="38.161" y2="254.702"/> <line style="fill:none;" x1="46.632" y1="258.883" x2="46.632" y2="254.702"/> <line style="fill:none;" x1="55.103" y1="258.883" x2="55.103" y2="254.702"/> <line style="fill:none;" x1="63.573" y1="258.883" x2="63.573" y2="254.702"/> <line style="fill:none;" x1="72.044" y1="258.883" x2="72.044" y2="254.702"/> <line style="fill:none;" x1="80.515" y1="258.883" x2="80.515" y2="254.702"/> <line style="fill:none;" x1="88.986" y1="258.883" x2="88.986" y2="254.702"/> <line style="fill:none;" x1="97.456" y1="258.883" x2="97.456" y2="254.702"/> <line style="fill:none;" x1="105.927" y1="258.883" x2="105.927" y2="254.702"/> <line style="fill:none;" x1="114.398" y1="258.883" x2="114.398" y2="254.702"/> <line style="fill:none;" x1="122.869" y1="258.883" x2="122.869" y2="254.702"/> <line style="fill:none;" x1="131.339" y1="258.883" x2="131.339" y2="254.702"/> <line style="fill:none;" x1="139.81" y1="258.883" x2="139.81" y2="254.702"/> <line style="fill:none;" x1="148.281" y1="258.883" x2="148.281" y2="254.702"/> <line style="fill:none;" x1="156.752" y1="258.883" x2="156.752" y2="254.702"/> </g> <g> </g> </g> </g> <g> <g>          </g> <line style="fill:none;" x1="33.926" y1="258.883" x2="28.926" y2="91.622"/> <g> <g> <line style="fill:none;" x1="33.926" y1="258.883" x2="160.987" y2="258.883"/> <line style="fill:none;stroke:#E0E0E0;stroke-miterlimit:10;" x1="28.926" y1="237.976" x2="160.987" y2="237.976"/> <line style="fill:none;stroke:#E0E0E0;stroke-miterlimit:10;" x1="28.926" y1="217.068" x2="160.987" y2="217.068"/> <line style="fill:none;stroke:#E0E0E0;stroke-miterlimit:10;" x1="28.926" y1="196.16" x2="160.987" y2="196.16"/> <line style="fill:none;stroke:#E0E0E0;stroke-miterlimit:10;" x1="28.926" y1="175.253" x2="160.987" y2="175.253"/> <line style="fill:none;stroke:#E0E0E0;stroke-miterlimit:10;" x1="28.926" y1="154.345" x2="160.987" y2="154.345"/> <line style="fill:none;stroke:#E0E0E0;stroke-miterlimit:10;" x1="28.926" y1="133.437" x2="160.987" y2="133.437"/> <line style="fill:none;stroke:#E0E0E0;stroke-miterlimit:10;" x1="28.926" y1="112.529" x2="160.987" y2="112.529"/> <line style="fill:none;stroke:#E0E0E0;stroke-miterlimit:10;" x1="28.926" y1="91.622" x2="160.987" y2="91.622"/> </g> <g> </g> </g> </g> <g> <g> <g> <line style="fill:none;stroke:#024E87;stroke-width:4;stroke-linecap:round;stroke-linejoin:round;stroke-miterlimit:10;" x1="46.632" y1="130.301" x2="38.161" y2="129.465"/> <line style="fill:none;stroke:#024E87;stroke-width:4;stroke-linecap:round;stroke-linejoin:round;stroke-miterlimit:10;" x1="55.103" y1="129.256" x2="46.632" y2="130.301"/> <line style="fill:none;stroke:#024E87;stroke-width:4;stroke-linecap:round;stroke-linejoin:round;stroke-miterlimit:10;" x1="63.573" y1="129.256" x2="55.103" y2="129.256"/> <line style="fill:none;stroke:#024E87;stroke-width:4;stroke-linecap:round;stroke-linejoin:round;stroke-miterlimit:10;" x1="72.044" y1="126.538" x2="63.573" y2="129.256"/> <line style="fill:none;stroke:#024E87;stroke-width:4;stroke-linecap:round;stroke-linejoin:round;stroke-miterlimit:10;" x1="80.515" y1="123.401" x2="72.044" y2="126.538"/> <line style="fill:none;stroke:#024E87;stroke-width:4;stroke-linecap:round;stroke-linejoin:round;stroke-miterlimit:10;" x1="88.986" y1="123.192" x2="80.515" y2="123.401"/> <line style="fill:none;stroke:#024E87;stroke-width:4;stroke-linecap:round;stroke-linejoin:round;stroke-miterlimit:10;" x1="97.456" y1="122.983" x2="88.986" y2="123.192"/> <line style="fill:none;stroke:#024E87;stroke-width:4;stroke-linecap:round;stroke-linejoin:round;stroke-miterlimit:10;" x1="105.927" y1="122.356" x2="97.456" y2="122.983"/> <line style="fill:none;stroke:#024E87;stroke-width:4;stroke-linecap:round;stroke-linejoin:round;stroke-miterlimit:10;" x1="114.398" y1="122.356" x2="105.927" y2="122.356"/> <line style="fill:none;stroke:#024E87;stroke-width:4;stroke-linecap:round;stroke-linejoin:round;stroke-miterlimit:10;" x1="122.869" y1="126.538" x2="114.398" y2="122.356"/> <line style="fill:none;stroke:#024E87;stroke-width:4;stroke-linecap:round;stroke-linejoin:round;stroke-miterlimit:10;" x1="131.339" y1="121.102" x2="122.869" y2="126.538"/> <line style="fill:none;stroke:#024E87;stroke-width:4;stroke-linecap:round;stroke-linejoin:round;stroke-miterlimit:10;" x1="139.81" y1="120.893" x2="131.339" y2="121.102"/> <line style="fill:none;stroke:#024E87;stroke-width:4;stroke-linecap:round;stroke-linejoin:round;stroke-miterlimit:10;" x1="148.281" y1="120.683" x2="139.81" y2="120.893"/> <line style="fill:none;stroke:#024E87;stroke-width:4;stroke-linecap:round;stroke-linejoin:round;stroke-miterlimit:10;" x1="156.752" y1="117.965" x2="148.281" y2="120.683"/> </g> </g> <g> <g> <line style="fill:none;stroke:#7493C1;stroke-width:2;stroke-linecap:round;stroke-linejoin:round;stroke-miterlimit:10;" x1="46.632" y1="193.651" x2="38.161" y2="194.906"/> <line style="fill:none;stroke:#7493C1;stroke-width:2;stroke-linecap:round;stroke-linejoin:round;stroke-miterlimit:10;" x1="55.103" y1="196.16" x2="46.632" y2="193.651"/> <line style="fill:none;stroke:#7493C1;stroke-width:2;stroke-linecap:round;stroke-linejoin:round;stroke-miterlimit:10;" x1="63.573" y1="196.369" x2="55.103" y2="196.16"/> <line style="fill:none;stroke:#7493C1;stroke-width:2;stroke-linecap:round;stroke-linejoin:round;stroke-miterlimit:10;" x1="72.044" y1="199.087" x2="63.573" y2="196.369"/> <line style="fill:none;stroke:#7493C1;stroke-width:2;stroke-linecap:round;stroke-linejoin:round;stroke-miterlimit:10;" x1="80.515" y1="201.387" x2="72.044" y2="199.087"/> <line style="fill:none;stroke:#7493C1;stroke-width:2;stroke-linecap:round;stroke-linejoin:round;stroke-miterlimit:10;" x1="88.986" y1="200.76" x2="80.515" y2="201.387"/> <line style="fill:none;stroke:#7493C1;stroke-width:2;stroke-linecap:round;stroke-linejoin:round;stroke-miterlimit:10;" x1="97.456" y1="201.178" x2="88.986" y2="200.76"/> <line style="fill:none;stroke:#7493C1;stroke-width:2;stroke-linecap:round;stroke-linejoin:round;stroke-miterlimit:10;" x1="105.927" y1="211.214" x2="97.456" y2="201.178"/> <line style="fill:none;stroke:#7493C1;stroke-width:2;stroke-linecap:round;stroke-linejoin:round;stroke-miterlimit:10;" x1="114.398" y1="212.05" x2="105.927" y2="211.214"/> <line style="fill:none;stroke:#7493C1;stroke-width:2;stroke-linecap:round;stroke-linejoin:round;stroke-miterlimit:10;" x1="122.869" y1="203.269" x2="114.398" y2="212.05"/> <line style="fill:none;stroke:#7493C1;stroke-width:2;stroke-linecap:round;stroke-linejoin:round;stroke-miterlimit:10;" x1="131.339" y1="204.314" x2="122.869" y2="203.269"/> <line style="fill:none;stroke:#7493C1;stroke-width:2;stroke-linecap:round;stroke-linejoin:round;stroke-miterlimit:10;" x1="139.81" y1="204.314" x2="131.339" y2="204.314"/> <line style="fill:none;stroke:#7493C1;stroke-width:2;stroke-linecap:round;stroke-linejoin:round;stroke-miterlimit:10;" x1="148.281" y1="204.523" x2="139.81" y2="204.314"/> <line style="fill:none;stroke:#7493C1;stroke-width:2;stroke-linecap:round;stroke-linejoin:round;stroke-miterlimit:10;" x1="156.752" y1="206.823" x2="148.281" y2="204.523"/> </g> </g> <g> <g> <line style="fill:none;stroke:#AAAAAA;stroke-width:2;stroke-linecap:round;stroke-linejoin:round;stroke-miterlimit:10;" x1="46.632" y1="243.621" x2="38.161" y2="243.412"/> <line style="fill:none;stroke:#AAAAAA;stroke-width:2;stroke-linecap:round;stroke-linejoin:round;stroke-miterlimit:10;" x1="55.103" y1="242.157" x2="46.632" y2="243.621"/> <line style="fill:none;stroke:#AAAAAA;stroke-width:2;stroke-linecap:round;stroke-linejoin:round;stroke-miterlimit:10;" x1="63.573" y1="242.157" x2="55.103" y2="242.157"/> <line style="fill:none;stroke:#AAAAAA;stroke-width:2;stroke-linecap:round;stroke-linejoin:round;stroke-miterlimit:10;" x1="72.044" y1="241.948" x2="63.573" y2="242.157"/> <line style="fill:none;stroke:#AAAAAA;stroke-width:2;stroke-linecap:round;stroke-linejoin:round;stroke-miterlimit:10;" x1="80.515" y1="242.785" x2="72.044" y2="241.948"/> <line style="fill:none;stroke:#AAAAAA;stroke-width:2;stroke-linecap:round;stroke-linejoin:round;stroke-miterlimit:10;" x1="88.986" y1="243.621" x2="80.515" y2="242.785"/> <line style="fill:none;stroke:#AAAAAA;stroke-width:2;stroke-linecap:round;stroke-linejoin:round;stroke-miterlimit:10;" x1="97.456" y1="243.412" x2="88.986" y2="243.621"/> <line style="fill:none;stroke:#AAAAAA;stroke-width:2;stroke-linecap:round;stroke-linejoin:round;stroke-miterlimit:10;" x1="105.927" y1="234.003" x2="97.456" y2="243.412"/> <line style="fill:none;stroke:#AAAAAA;stroke-width:2;stroke-linecap:round;stroke-linejoin:round;stroke-miterlimit:10;" x1="114.398" y1="232.958" x2="105.927" y2="234.003"/> <line style="fill:none;stroke:#AAAAAA;stroke-width:2;stroke-linecap:round;stroke-linejoin:round;stroke-miterlimit:10;" x1="122.869" y1="237.767" x2="114.398" y2="232.958"/> <line style="fill:none;stroke:#AAAAAA;stroke-width:2;stroke-linecap:round;stroke-linejoin:round;stroke-miterlimit:10;" x1="131.339" y1="241.948" x2="122.869" y2="237.767"/> <line style="fill:none;stroke:#AAAAAA;stroke-width:2;stroke-linecap:round;stroke-linejoin:round;stroke-miterlimit:10;" x1="139.81" y1="242.366" x2="131.339" y2="241.948"/> <line style="fill:none;stroke:#AAAAAA;stroke-width:2;stroke-linecap:round;stroke-linejoin:round;stroke-miterlimit:10;" x1="148.281" y1="242.575" x2="139.81" y2="242.366"/> <line style="fill:none;stroke:#AAAAAA;stroke-width:2;stroke-linecap:round;stroke-linejoin:round;stroke-miterlimit:10;" x1="156.752" y1="242.785" x2="148.281" y2="242.575"/> </g> </g> </g> <g> <g> </g> <g> </g> <g> </g> </g> </g> <rect x="50.987" y="88.115" style="fill:#FFFFFF;" width="120.337" height="7.942"/> <rect x="50.987" y="172.379" style="fill:#FFFFFF;" width="120.337" height="7.942"/> <g> <g> <line style="fill:none;" x1="34.333" y1="662.87" x2="279.345" y2="662.87"/> <g> <g> <line style="fill:none;" x1="42.5" y1="662.87" x2="42.5" y2="658.513"/> <line style="fill:none;" x1="58.834" y1="662.87" x2="58.834" y2="658.513"/> <line style="fill:none;" x1="75.168" y1="662.87" x2="75.168" y2="658.513"/> <line style="fill:none;" x1="91.502" y1="662.87" x2="91.502" y2="658.513"/> <line style="fill:none;" x1="107.837" y1="662.87" x2="107.837" y2="658.513"/> <line style="fill:none;" x1="124.171" y1="662.87" x2="124.171" y2="658.513"/> <line style="fill:none;" x1="140.505" y1="662.87" x2="140.505" y2="658.513"/> <line style="fill:none;" x1="156.839" y1="662.87" x2="156.839" y2="658.513"/> <line style="fill:none;" x1="173.173" y1="662.87" x2="173.173" y2="658.513"/> <line style="fill:none;" x1="189.507" y1="662.87" x2="189.507" y2="658.513"/> <line style="fill:none;" x1="205.841" y1="662.87" x2="205.841" y2="658.513"/> <line style="fill:none;" x1="222.176" y1="662.87" x2="222.176" y2="658.513"/> <line style="fill:none;" x1="238.51" y1="662.87" x2="238.51" y2="658.513"/> <line style="fill:none;" x1="254.844" y1="662.87" x2="254.844" y2="658.513"/> <line style="fill:none;" x1="271.178" y1="662.87" x2="271.178" y2="658.513"/> </g> <g> </g> </g> </g> <g> <g>          </g> <line style="fill:none;" x1="34.333" y1="662.87" x2="27.333" y2="488.608"/> <g> <g> <line style="fill:none;" x1="34.333" y1="662.87" x2="279.345" y2="662.87"/> <line style="fill:none;stroke:#E0E0E0;stroke-miterlimit:10;" x1="27.333" y1="641.087" x2="279.345" y2="641.087"/> <line style="fill:none;stroke:#E0E0E0;stroke-miterlimit:10;" x1="27.333" y1="619.304" x2="279.345" y2="619.304"/> <line style="fill:none;stroke:#E0E0E0;stroke-miterlimit:10;" x1="27.333" y1="597.522" x2="279.345" y2="597.522"/> <line style="fill:none;stroke:#E0E0E0;stroke-miterlimit:10;" x1="27.333" y1="575.739" x2="279.345" y2="575.739"/> <line style="fill:none;stroke:#E0E0E0;stroke-miterlimit:10;" x1="27.333" y1="553.956" x2="279.345" y2="553.956"/> <line style="fill:none;stroke:#E0E0E0;stroke-miterlimit:10;" x1="27.333" y1="532.174" x2="279.345" y2="532.174"/> <line style="fill:none;stroke:#E0E0E0;stroke-miterlimit:10;" x1="27.333" y1="510.391" x2="279.345" y2="510.391"/> <line style="fill:none;stroke:#E0E0E0;stroke-miterlimit:10;" x1="27.333" y1="488.608" x2="279.345" y2="488.608"/> </g> <g> </g> </g> </g> <g> <g> <g> <line style="fill:none;stroke:#024E87;stroke-width:4;stroke-linecap:round;stroke-linejoin:round;stroke-miterlimit:10;" x1="58.834" y1="528.906" x2="42.5" y2="528.035"/> <line style="fill:none;stroke:#024E87;stroke-width:4;stroke-linecap:round;stroke-linejoin:round;stroke-miterlimit:10;" x1="75.168" y1="527.817" x2="58.834" y2="528.906"/> <line style="fill:none;stroke:#024E87;stroke-width:4;stroke-linecap:round;stroke-linejoin:round;stroke-miterlimit:10;" x1="91.502" y1="527.817" x2="75.168" y2="527.817"/> <line style="fill:none;stroke:#024E87;stroke-width:4;stroke-linecap:round;stroke-linejoin:round;stroke-miterlimit:10;" x1="107.837" y1="524.985" x2="91.502" y2="527.817"/> <line style="fill:none;stroke:#024E87;stroke-width:4;stroke-linecap:round;stroke-linejoin:round;stroke-miterlimit:10;" x1="124.171" y1="521.718" x2="107.837" y2="524.985"/> <line style="fill:none;stroke:#024E87;stroke-width:4;stroke-linecap:round;stroke-linejoin:round;stroke-miterlimit:10;" x1="140.505" y1="521.5" x2="124.171" y2="521.718"/> <line style="fill:none;stroke:#024E87;stroke-width:4;stroke-linecap:round;stroke-linejoin:round;stroke-miterlimit:10;" x1="156.839" y1="521.282" x2="140.505" y2="521.5"/> <line style="fill:none;stroke:#024E87;stroke-width:4;stroke-linecap:round;stroke-linejoin:round;stroke-miterlimit:10;" x1="173.173" y1="520.629" x2="156.839" y2="521.282"/> <line style="fill:none;stroke:#024E87;stroke-width:4;stroke-linecap:round;stroke-linejoin:round;stroke-miterlimit:10;" x1="189.507" y1="520.629" x2="173.173" y2="520.629"/> <line style="fill:none;stroke:#024E87;stroke-width:4;stroke-linecap:round;stroke-linejoin:round;stroke-miterlimit:10;" x1="205.841" y1="524.985" x2="189.507" y2="520.629"/> <line style="fill:none;stroke:#024E87;stroke-width:4;stroke-linecap:round;stroke-linejoin:round;stroke-miterlimit:10;" x1="222.176" y1="519.322" x2="205.841" y2="524.985"/> <line style="fill:none;stroke:#024E87;stroke-width:4;stroke-linecap:round;stroke-linejoin:round;stroke-miterlimit:10;" x1="238.51" y1="519.104" x2="222.176" y2="519.322"/> <line style="fill:none;stroke:#024E87;stroke-width:4;stroke-linecap:round;stroke-linejoin:round;stroke-miterlimit:10;" x1="254.844" y1="518.886" x2="238.51" y2="519.104"/> <line style="fill:none;stroke:#024E87;stroke-width:4;stroke-linecap:round;stroke-linejoin:round;stroke-miterlimit:10;" x1="271.178" y1="516.055" x2="254.844" y2="518.886"/> </g> </g> <g> <g> <line style="fill:none;stroke:#7493C1;stroke-width:2;stroke-linecap:round;stroke-linejoin:round;stroke-miterlimit:10;" x1="58.834" y1="594.908" x2="42.5" y2="596.215"/> <line style="fill:none;stroke:#7493C1;stroke-width:2;stroke-linecap:round;stroke-linejoin:round;stroke-miterlimit:10;" x1="75.168" y1="597.522" x2="58.834" y2="594.908"/> <line style="fill:none;stroke:#7493C1;stroke-width:2;stroke-linecap:round;stroke-linejoin:round;stroke-miterlimit:10;" x1="91.502" y1="597.74" x2="75.168" y2="597.522"/> <line style="fill:none;stroke:#7493C1;stroke-width:2;stroke-linecap:round;stroke-linejoin:round;stroke-miterlimit:10;" x1="107.837" y1="600.571" x2="91.502" y2="597.74"/> <line style="fill:none;stroke:#7493C1;stroke-width:2;stroke-linecap:round;stroke-linejoin:round;stroke-miterlimit:10;" x1="124.171" y1="602.967" x2="107.837" y2="600.571"/> <line style="fill:none;stroke:#7493C1;stroke-width:2;stroke-linecap:round;stroke-linejoin:round;stroke-miterlimit:10;" x1="140.505" y1="602.314" x2="124.171" y2="602.967"/> <line style="fill:none;stroke:#7493C1;stroke-width:2;stroke-linecap:round;stroke-linejoin:round;stroke-miterlimit:10;" x1="156.839" y1="602.75" x2="140.505" y2="602.314"/> <line style="fill:none;stroke:#7493C1;stroke-width:2;stroke-linecap:round;stroke-linejoin:round;stroke-miterlimit:10;" x1="173.173" y1="613.205" x2="156.839" y2="602.75"/> <line style="fill:none;stroke:#7493C1;stroke-width:2;stroke-linecap:round;stroke-linejoin:round;stroke-miterlimit:10;" x1="189.507" y1="614.077" x2="173.173" y2="613.205"/> <line style="fill:none;stroke:#7493C1;stroke-width:2;stroke-linecap:round;stroke-linejoin:round;stroke-miterlimit:10;" x1="205.841" y1="604.928" x2="189.507" y2="614.077"/> <line style="fill:none;stroke:#7493C1;stroke-width:2;stroke-linecap:round;stroke-linejoin:round;stroke-miterlimit:10;" x1="222.176" y1="606.017" x2="205.841" y2="604.928"/> <line style="fill:none;stroke:#7493C1;stroke-width:2;stroke-linecap:round;stroke-linejoin:round;stroke-miterlimit:10;" x1="238.51" y1="606.017" x2="222.176" y2="606.017"/> <line style="fill:none;stroke:#7493C1;stroke-width:2;stroke-linecap:round;stroke-linejoin:round;stroke-miterlimit:10;" x1="254.844" y1="606.235" x2="238.51" y2="606.017"/> <line style="fill:none;stroke:#7493C1;stroke-width:2;stroke-linecap:round;stroke-linejoin:round;stroke-miterlimit:10;" x1="271.178" y1="608.631" x2="254.844" y2="606.235"/> </g> </g> <g> <g> <line style="fill:none;stroke:#AAAAAA;stroke-width:2;stroke-linecap:round;stroke-linejoin:round;stroke-miterlimit:10;" x1="58.834" y1="646.968" x2="42.5" y2="646.751"/> <line style="fill:none;stroke:#AAAAAA;stroke-width:2;stroke-linecap:round;stroke-linejoin:round;stroke-miterlimit:10;" x1="75.168" y1="645.444" x2="58.834" y2="646.968"/> <line style="fill:none;stroke:#AAAAAA;stroke-width:2;stroke-linecap:round;stroke-linejoin:round;stroke-miterlimit:10;" x1="91.502" y1="645.444" x2="75.168" y2="645.444"/> <line style="fill:none;stroke:#AAAAAA;stroke-width:2;stroke-linecap:round;stroke-linejoin:round;stroke-miterlimit:10;" x1="107.837" y1="645.226" x2="91.502" y2="645.444"/> <line style="fill:none;stroke:#AAAAAA;stroke-width:2;stroke-linecap:round;stroke-linejoin:round;stroke-miterlimit:10;" x1="124.171" y1="646.097" x2="107.837" y2="645.226"/> <line style="fill:none;stroke:#AAAAAA;stroke-width:2;stroke-linecap:round;stroke-linejoin:round;stroke-miterlimit:10;" x1="140.505" y1="646.968" x2="124.171" y2="646.097"/> <line style="fill:none;stroke:#AAAAAA;stroke-width:2;stroke-linecap:round;stroke-linejoin:round;stroke-miterlimit:10;" x1="156.839" y1="646.751" x2="140.505" y2="646.968"/> <line style="fill:none;stroke:#AAAAAA;stroke-width:2;stroke-linecap:round;stroke-linejoin:round;stroke-miterlimit:10;" x1="173.173" y1="636.948" x2="156.839" y2="646.751"/> <line style="fill:none;stroke:#AAAAAA;stroke-width:2;stroke-linecap:round;stroke-linejoin:round;stroke-miterlimit:10;" x1="189.507" y1="635.859" x2="173.173" y2="636.948"/> <line style="fill:none;stroke:#AAAAAA;stroke-width:2;stroke-linecap:round;stroke-linejoin:round;stroke-miterlimit:10;" x1="205.841" y1="640.869" x2="189.507" y2="635.859"/> <line style="fill:none;stroke:#AAAAAA;stroke-width:2;stroke-linecap:round;stroke-linejoin:round;stroke-miterlimit:10;" x1="222.176" y1="645.226" x2="205.841" y2="640.869"/> <line style="fill:none;stroke:#AAAAAA;stroke-width:2;stroke-linecap:round;stroke-linejoin:round;stroke-miterlimit:10;" x1="238.51" y1="645.661" x2="222.176" y2="645.226"/> <line style="fill:none;stroke:#AAAAAA;stroke-width:2;stroke-linecap:round;stroke-linejoin:round;stroke-miterlimit:10;" x1="254.844" y1="645.879" x2="238.51" y2="645.661"/> <line style="fill:none;stroke:#AAAAAA;stroke-width:2;stroke-linecap:round;stroke-linejoin:round;stroke-miterlimit:10;" x1="271.178" y1="646.097" x2="254.844" y2="645.879"/> </g> </g> </g> <g> <g> </g> <g> </g> <g> </g> </g> </g> <g>         </g>  <g> <g> <g> <line style="fill:none;stroke:#000000;stroke-miterlimit:10;" x1="42.237" y1="669.148" x2="42.237" y2="663.218"/> <line style="fill:none;stroke:#000000;stroke-miterlimit:10;" x1="58.576" y1="669.148" x2="58.576" y2="663.218"/> <line style="fill:none;stroke:#000000;stroke-miterlimit:10;" x1="74.915" y1="669.148" x2="74.915" y2="663.218"/> <line style="fill:none;stroke:#000000;stroke-miterlimit:10;" x1="91.255" y1="669.148" x2="91.255" y2="663.218"/> <line style="fill:none;stroke:#000000;stroke-miterlimit:10;" x1="107.594" y1="669.148" x2="107.594" y2="663.218"/> <line style="fill:none;stroke:#000000;stroke-miterlimit:10;" x1="123.933" y1="669.148" x2="123.933" y2="663.218"/> <line style="fill:none;stroke:#000000;stroke-miterlimit:10;" x1="140.273" y1="669.148" x2="140.273" y2="663.218"/> <line style="fill:none;stroke:#000000;stroke-miterlimit:10;" x1="156.612" y1="669.148" x2="156.612" y2="663.218"/> <line style="fill:none;stroke:#000000;stroke-miterlimit:10;" x1="172.951" y1="669.148" x2="172.951" y2="663.218"/> <line style="fill:none;stroke:#000000;stroke-miterlimit:10;" x1="189.29" y1="669.148" x2="189.29" y2="663.218"/> <line style="fill:none;stroke:#000000;stroke-miterlimit:10;" x1="205.63" y1="669.148" x2="205.63" y2="663.218"/> <line style="fill:none;stroke:#000000;stroke-miterlimit:10;" x1="221.969" y1="669.148" x2="221.969" y2="663.218"/> <line style="fill:none;stroke:#000000;stroke-miterlimit:10;" x1="238.308" y1="669.148" x2="238.308" y2="663.218"/> <line style="fill:none;stroke:#000000;stroke-miterlimit:10;" x1="254.648" y1="669.148" x2="254.648" y2="663.218"/> <line style="fill:none;stroke:#000000;stroke-miterlimit:10;" x1="270.987" y1="669.148" x2="270.987" y2="663.218"/> </g> </g> <g> <g>  </g> <g>  </g> <g>  </g> <g>  </g> <g>  </g> <g>  </g> <g>  </g> <g>  </g> </g> </g>    <rect x="0" y="432.506" style="fill:none;" width="280" height="22.054"/>  <g> <rect x="115" y="464.73" style="fill:#FFFFFF;" width="165" height="27.277"/> <g>    </g> </g> <g> <rect x="115" y="545.983" style="fill:#FFFFFF;" width="165" height="41.927"/> <g>    </g> </g> <g> <g>   </g> </g> <g> <circle style="fill:none;stroke:#231F20;" cx="269.425" cy="607.705" r="9.5"/> <line style="fill:none;stroke:#231F20;" x1="269.425" y1="585.782" x2="269.425" y2="598.205"/> </g> <g> <circle style="fill:none;stroke:#231F20;" cx="269.425" cy="646.421" r="9.5"/> <polyline style="fill:none;stroke:#231F20;" points="269.425,636.921 269.425,628.498 158.25,628.498 		"/> </g> <g> <circle style="fill:none;stroke:#231F20;" cx="269.425" cy="516.329" r="9.5"/> <line style="fill:none;stroke:#231F20;" x1="269.425" y1="497.534" x2="269.425" y2="506.829"/> </g> <g>         </g> <line style="fill:#FFFFFF;stroke:#231F20;" x1="0" y1="258.883" x2="171.324" y2="258.883"/> <g> <g> <g> <line style="fill:none;stroke:#000000;stroke-width:2;stroke-miterlimit:10;" x1="38.025" y1="265.161" x2="38.025" y2="259.231"/> <line style="fill:none;stroke:#000000;stroke-miterlimit:10;" x1="46.498" y1="265.161" x2="46.498" y2="259.231"/> <line style="fill:none;stroke:#000000;stroke-miterlimit:10;" x1="54.971" y1="265.161" x2="54.971" y2="259.231"/> <line style="fill:none;stroke:#000000;stroke-miterlimit:10;" x1="63.445" y1="265.161" x2="63.445" y2="259.231"/> <line style="fill:none;stroke:#000000;stroke-width:2;stroke-miterlimit:10;" x1="71.918" y1="265.161" x2="71.918" y2="259.231"/> <line style="fill:none;stroke:#000000;stroke-miterlimit:10;" x1="80.392" y1="265.161" x2="80.392" y2="259.231"/> <line style="fill:none;stroke:#000000;stroke-miterlimit:10;" x1="88.865" y1="265.161" x2="88.865" y2="259.231"/> <line style="fill:none;stroke:#000000;stroke-miterlimit:10;" x1="97.338" y1="265.161" x2="97.338" y2="259.231"/> <line style="fill:none;stroke:#000000;stroke-miterlimit:10;" x1="105.812" y1="265.161" x2="105.812" y2="259.231"/> <line style="fill:none;stroke:#000000;stroke-width:2;stroke-miterlimit:10;" x1="114.285" y1="265.161" x2="114.285" y2="259.231"/> <line style="fill:none;stroke:#000000;stroke-miterlimit:10;" x1="122.759" y1="265.161" x2="122.759" y2="259.231"/> <line style="fill:none;stroke:#000000;stroke-miterlimit:10;" x1="131.232" y1="265.161" x2="131.232" y2="259.231"/> <line style="fill:none;stroke:#000000;stroke-miterlimit:10;" x1="139.706" y1="265.161" x2="139.706" y2="259.231"/> <line style="fill:none;stroke:#000000;stroke-miterlimit:10;" x1="148.179" y1="265.161" x2="148.179" y2="259.231"/> <line style="fill:none;stroke:#000000;stroke-width:2;stroke-miterlimit:10;" x1="156.652" y1="265.161" x2="156.652" y2="259.231"/> </g> </g> <g>     </g> </g>    <rect x="0" y="48.575" style="fill:none;" width="171.324" height="25.041"/>  <g> <g>   </g> </g> <g> <g>   </g> </g> <g> <g>   </g> </g> <g> <circle style="fill:none;stroke:#231F20;" cx="156.25" cy="206.719" r="9.5"/> <line style="fill:none;stroke:#231F20;" x1="156.25" y1="180.796" x2="156.25" y2="197.219"/> </g> <g> <circle style="fill:none;stroke:#231F20;" cx="157.408" cy="242.435" r="9.5"/> <polyline style="fill:none;stroke:#231F20;" points="157.408,232.935 157.408,225.512 112.398,225.512 		"/> </g> <g> <circle style="fill:none;stroke:#231F20;" cx="158.25" cy="118.343" r="9.5"/> <line style="fill:none;stroke:#231F20;" x1="158.25" y1="99.548" x2="158.25" y2="108.843"/> </g> <g> <g> <line style="fill:none;" x1="34.333" y1="1021.86" x2="320" y2="1021.86"/> <g> <g> <line style="fill:none;" x1="43.855" y1="1021.86" x2="43.855" y2="1017.504"/> <line style="fill:none;" x1="62.9" y1="1021.86" x2="62.9" y2="1017.504"/> <line style="fill:none;" x1="81.944" y1="1021.86" x2="81.944" y2="1017.504"/> <line style="fill:none;" x1="100.989" y1="1021.86" x2="100.989" y2="1017.504"/> <line style="fill:none;" x1="120.033" y1="1021.86" x2="120.033" y2="1017.504"/> <line style="fill:none;" x1="139.078" y1="1021.86" x2="139.078" y2="1017.504"/> <line style="fill:none;" x1="158.122" y1="1021.86" x2="158.122" y2="1017.504"/> <line style="fill:none;" x1="177.167" y1="1021.86" x2="177.167" y2="1017.504"/> <line style="fill:none;" x1="196.211" y1="1021.86" x2="196.211" y2="1017.504"/> <line style="fill:none;" x1="215.256" y1="1021.86" x2="215.256" y2="1017.504"/> <line style="fill:none;" x1="234.3" y1="1021.86" x2="234.3" y2="1017.504"/> <line style="fill:none;" x1="253.345" y1="1021.86" x2="253.345" y2="1017.504"/> <line style="fill:none;" x1="272.389" y1="1021.86" x2="272.389" y2="1017.504"/> <line style="fill:none;" x1="291.434" y1="1021.86" x2="291.434" y2="1017.504"/> <line style="fill:none;" x1="310.478" y1="1021.86" x2="310.478" y2="1017.504"/> </g> <g> </g> </g> </g> <g> <g>          </g> <line style="fill:none;" x1="34.333" y1="1021.86" x2="27.333" y2="847.599"/> <g> <g> <line style="fill:none;" x1="34.333" y1="1021.86" x2="320" y2="1021.86"/> <line style="fill:none;stroke:#E0E0E0;stroke-miterlimit:10;" x1="27.333" y1="1000.077" x2="320" y2="1000.077"/> <line style="fill:none;stroke:#E0E0E0;stroke-miterlimit:10;" x1="27.333" y1="978.295" x2="320" y2="978.295"/> <line style="fill:none;stroke:#E0E0E0;stroke-miterlimit:10;" x1="27.333" y1="956.512" x2="320" y2="956.512"/> <line style="fill:none;stroke:#E0E0E0;stroke-miterlimit:10;" x1="27.333" y1="934.729" x2="320" y2="934.729"/> <line style="fill:none;stroke:#E0E0E0;stroke-miterlimit:10;" x1="27.333" y1="912.947" x2="320" y2="912.947"/> <line style="fill:none;stroke:#E0E0E0;stroke-miterlimit:10;" x1="27.333" y1="891.164" x2="320" y2="891.164"/> <line style="fill:none;stroke:#E0E0E0;stroke-miterlimit:10;" x1="27.333" y1="869.381" x2="320" y2="869.381"/> <line style="fill:none;stroke:#E0E0E0;stroke-miterlimit:10;" x1="27.333" y1="847.599" x2="320" y2="847.599"/> </g> <g> </g> </g> </g> <g> <g> <g> <line style="fill:none;stroke:#024E87;stroke-width:4;stroke-linecap:round;stroke-linejoin:round;stroke-miterlimit:10;" x1="62.9" y1="887.897" x2="43.855" y2="887.025"/> <line style="fill:none;stroke:#024E87;stroke-width:4;stroke-linecap:round;stroke-linejoin:round;stroke-miterlimit:10;" x1="81.944" y1="886.807" x2="62.9" y2="887.897"/> <line style="fill:none;stroke:#024E87;stroke-width:4;stroke-linecap:round;stroke-linejoin:round;stroke-miterlimit:10;" x1="100.989" y1="886.807" x2="81.944" y2="886.807"/> <line style="fill:none;stroke:#024E87;stroke-width:4;stroke-linecap:round;stroke-linejoin:round;stroke-miterlimit:10;" x1="120.033" y1="883.976" x2="100.989" y2="886.807"/> <line style="fill:none;stroke:#024E87;stroke-width:4;stroke-linecap:round;stroke-linejoin:round;stroke-miterlimit:10;" x1="139.078" y1="880.708" x2="120.033" y2="883.976"/> <line style="fill:none;stroke:#024E87;stroke-width:4;stroke-linecap:round;stroke-linejoin:round;stroke-miterlimit:10;" x1="158.122" y1="880.49" x2="139.078" y2="880.708"/> <line style="fill:none;stroke:#024E87;stroke-width:4;stroke-linecap:round;stroke-linejoin:round;stroke-miterlimit:10;" x1="177.167" y1="880.273" x2="158.122" y2="880.49"/> <line style="fill:none;stroke:#024E87;stroke-width:4;stroke-linecap:round;stroke-linejoin:round;stroke-miterlimit:10;" x1="196.211" y1="879.619" x2="177.167" y2="880.273"/> <line style="fill:none;stroke:#024E87;stroke-width:4;stroke-linecap:round;stroke-linejoin:round;stroke-miterlimit:10;" x1="215.256" y1="879.619" x2="196.211" y2="879.619"/> <line style="fill:none;stroke:#024E87;stroke-width:4;stroke-linecap:round;stroke-linejoin:round;stroke-miterlimit:10;" x1="234.3" y1="883.976" x2="215.256" y2="879.619"/> <line style="fill:none;stroke:#024E87;stroke-width:4;stroke-linecap:round;stroke-linejoin:round;stroke-miterlimit:10;" x1="253.345" y1="878.312" x2="234.3" y2="883.976"/> <line style="fill:none;stroke:#024E87;stroke-width:4;stroke-linecap:round;stroke-linejoin:round;stroke-miterlimit:10;" x1="272.389" y1="878.094" x2="253.345" y2="878.312"/> <line style="fill:none;stroke:#024E87;stroke-width:4;stroke-linecap:round;stroke-linejoin:round;stroke-miterlimit:10;" x1="291.434" y1="877.877" x2="272.389" y2="878.094"/> <line style="fill:none;stroke:#024E87;stroke-width:4;stroke-linecap:round;stroke-linejoin:round;stroke-miterlimit:10;" x1="310.478" y1="875.045" x2="291.434" y2="877.877"/> </g> </g> <g> <g> <line style="fill:none;stroke:#7493C1;stroke-width:2;stroke-linecap:round;stroke-linejoin:round;stroke-miterlimit:10;" x1="62.9" y1="953.898" x2="43.855" y2="955.205"/> <line style="fill:none;stroke:#7493C1;stroke-width:2;stroke-linecap:round;stroke-linejoin:round;stroke-miterlimit:10;" x1="81.944" y1="956.512" x2="62.9" y2="953.898"/> <line style="fill:none;stroke:#7493C1;stroke-width:2;stroke-linecap:round;stroke-linejoin:round;stroke-miterlimit:10;" x1="100.989" y1="956.73" x2="81.944" y2="956.512"/> <line style="fill:none;stroke:#7493C1;stroke-width:2;stroke-linecap:round;stroke-linejoin:round;stroke-miterlimit:10;" x1="120.033" y1="959.562" x2="100.989" y2="956.73"/> <line style="fill:none;stroke:#7493C1;stroke-width:2;stroke-linecap:round;stroke-linejoin:round;stroke-miterlimit:10;" x1="139.078" y1="961.958" x2="120.033" y2="959.562"/> <line style="fill:none;stroke:#7493C1;stroke-width:2;stroke-linecap:round;stroke-linejoin:round;stroke-miterlimit:10;" x1="158.122" y1="961.304" x2="139.078" y2="961.958"/> <line style="fill:none;stroke:#7493C1;stroke-width:2;stroke-linecap:round;stroke-linejoin:round;stroke-miterlimit:10;" x1="177.167" y1="961.74" x2="158.122" y2="961.304"/> <line style="fill:none;stroke:#7493C1;stroke-width:2;stroke-linecap:round;stroke-linejoin:round;stroke-miterlimit:10;" x1="196.211" y1="972.196" x2="177.167" y2="961.74"/> <line style="fill:none;stroke:#7493C1;stroke-width:2;stroke-linecap:round;stroke-linejoin:round;stroke-miterlimit:10;" x1="215.256" y1="973.067" x2="196.211" y2="972.196"/> <line style="fill:none;stroke:#7493C1;stroke-width:2;stroke-linecap:round;stroke-linejoin:round;stroke-miterlimit:10;" x1="234.3" y1="963.918" x2="215.256" y2="973.067"/> <line style="fill:none;stroke:#7493C1;stroke-width:2;stroke-linecap:round;stroke-linejoin:round;stroke-miterlimit:10;" x1="253.345" y1="965.007" x2="234.3" y2="963.918"/> <line style="fill:none;stroke:#7493C1;stroke-width:2;stroke-linecap:round;stroke-linejoin:round;stroke-miterlimit:10;" x1="272.389" y1="965.007" x2="253.345" y2="965.007"/> <line style="fill:none;stroke:#7493C1;stroke-width:2;stroke-linecap:round;stroke-linejoin:round;stroke-miterlimit:10;" x1="291.434" y1="965.225" x2="272.389" y2="965.007"/> <line style="fill:none;stroke:#7493C1;stroke-width:2;stroke-linecap:round;stroke-linejoin:round;stroke-miterlimit:10;" x1="310.478" y1="967.621" x2="291.434" y2="965.225"/> </g> </g> <g> <g> <line style="fill:none;stroke:#AAAAAA;stroke-width:2;stroke-linecap:round;stroke-linejoin:round;stroke-miterlimit:10;" x1="62.9" y1="1005.959" x2="43.855" y2="1005.741"/> <line style="fill:none;stroke:#AAAAAA;stroke-width:2;stroke-linecap:round;stroke-linejoin:round;stroke-miterlimit:10;" x1="81.944" y1="1004.434" x2="62.9" y2="1005.959"/> <line style="fill:none;stroke:#AAAAAA;stroke-width:2;stroke-linecap:round;stroke-linejoin:round;stroke-miterlimit:10;" x1="100.989" y1="1004.434" x2="81.944" y2="1004.434"/> <line style="fill:none;stroke:#AAAAAA;stroke-width:2;stroke-linecap:round;stroke-linejoin:round;stroke-miterlimit:10;" x1="120.033" y1="1004.216" x2="100.989" y2="1004.434"/> <line style="fill:none;stroke:#AAAAAA;stroke-width:2;stroke-linecap:round;stroke-linejoin:round;stroke-miterlimit:10;" x1="139.078" y1="1005.087" x2="120.033" y2="1004.216"/> <line style="fill:none;stroke:#AAAAAA;stroke-width:2;stroke-linecap:round;stroke-linejoin:round;stroke-miterlimit:10;" x1="158.122" y1="1005.959" x2="139.078" y2="1005.087"/> <line style="fill:none;stroke:#AAAAAA;stroke-width:2;stroke-linecap:round;stroke-linejoin:round;stroke-miterlimit:10;" x1="177.167" y1="1005.741" x2="158.122" y2="1005.959"/> <line style="fill:none;stroke:#AAAAAA;stroke-width:2;stroke-linecap:round;stroke-linejoin:round;stroke-miterlimit:10;" x1="196.211" y1="995.939" x2="177.167" y2="1005.741"/> <line style="fill:none;stroke:#AAAAAA;stroke-width:2;stroke-linecap:round;stroke-linejoin:round;stroke-miterlimit:10;" x1="215.256" y1="994.85" x2="196.211" y2="995.939"/> <line style="fill:none;stroke:#AAAAAA;stroke-width:2;stroke-linecap:round;stroke-linejoin:round;stroke-miterlimit:10;" x1="234.3" y1="999.86" x2="215.256" y2="994.85"/> <line style="fill:none;stroke:#AAAAAA;stroke-width:2;stroke-linecap:round;stroke-linejoin:round;stroke-miterlimit:10;" x1="253.345" y1="1004.216" x2="234.3" y2="999.86"/> <line style="fill:none;stroke:#AAAAAA;stroke-width:2;stroke-linecap:round;stroke-linejoin:round;stroke-miterlimit:10;" x1="272.389" y1="1004.652" x2="253.345" y2="1004.216"/> <line style="fill:none;stroke:#AAAAAA;stroke-width:2;stroke-linecap:round;stroke-linejoin:round;stroke-miterlimit:10;" x1="291.434" y1="1004.87" x2="272.389" y2="1004.652"/> <line style="fill:none;stroke:#AAAAAA;stroke-width:2;stroke-linecap:round;stroke-linejoin:round;stroke-miterlimit:10;" x1="310.478" y1="1005.087" x2="291.434" y2="1004.87"/> </g> </g> </g> <g> <g> </g> <g> </g> <g> </g> </g> </g> <g>         </g>  <g> <g> <g> <line style="fill:none;stroke:#000000;stroke-miterlimit:10;" x1="43.548" y1="1028.138" x2="43.548" y2="1022.208"/> <line style="fill:none;stroke:#000000;stroke-miterlimit:10;" x1="62.599" y1="1028.138" x2="62.599" y2="1022.208"/> <line style="fill:none;stroke:#000000;stroke-miterlimit:10;" x1="81.649" y1="1028.138" x2="81.649" y2="1022.208"/> <line style="fill:none;stroke:#000000;stroke-miterlimit:10;" x1="100.7" y1="1028.138" x2="100.7" y2="1022.208"/> <line style="fill:none;stroke:#000000;stroke-miterlimit:10;" x1="119.75" y1="1028.138" x2="119.75" y2="1022.208"/> <line style="fill:none;stroke:#000000;stroke-miterlimit:10;" x1="138.801" y1="1028.138" x2="138.801" y2="1022.208"/> <line style="fill:none;stroke:#000000;stroke-miterlimit:10;" x1="157.851" y1="1028.138" x2="157.851" y2="1022.208"/> <line style="fill:none;stroke:#000000;stroke-miterlimit:10;" x1="176.902" y1="1028.138" x2="176.902" y2="1022.208"/> <line style="fill:none;stroke:#000000;stroke-miterlimit:10;" x1="195.952" y1="1028.138" x2="195.952" y2="1022.208"/> <line style="fill:none;stroke:#000000;stroke-miterlimit:10;" x1="215.003" y1="1028.138" x2="215.003" y2="1022.208"/> <line style="fill:none;stroke:#000000;stroke-miterlimit:10;" x1="234.053" y1="1028.138" x2="234.053" y2="1022.208"/> <line style="fill:none;stroke:#000000;stroke-miterlimit:10;" x1="253.104" y1="1028.138" x2="253.104" y2="1022.208"/> <line style="fill:none;stroke:#000000;stroke-miterlimit:10;" x1="272.154" y1="1028.138" x2="272.154" y2="1022.208"/> <line style="fill:none;stroke:#000000;stroke-miterlimit:10;" x1="291.205" y1="1028.138" x2="291.205" y2="1022.208"/> <line style="fill:none;stroke:#000000;stroke-miterlimit:10;" x1="310.255" y1="1028.138" x2="310.255" y2="1022.208"/> </g> </g> <g> <g>  </g> <g>  </g> <g>  </g> <g>  </g> <g>  </g> <g>  </g> <g>  </g> <g>  </g> </g> </g>   <rect x="0" y="791.497" style="fill:none;" width="280" height="22.054"/>  <g> <rect x="155" y="823.72" style="fill:#FFFFFF;" width="165" height="27.277"/> <g>    </g> </g> <g> <rect x="155" y="904.973" style="fill:#FFFFFF;" width="165" height="41.927"/> <g>    </g> </g> <g> <g>   </g> </g> <g> <circle style="fill:none;stroke:#231F20;" cx="309.425" cy="966.695" r="9.5"/> <line style="fill:none;stroke:#231F20;" x1="309.425" y1="944.772" x2="309.425" y2="957.195"/> </g> <g> <circle style="fill:none;stroke:#231F20;" cx="309.425" cy="1005.411" r="9.5"/> <polyline style="fill:none;stroke:#231F20;" points="309.425,995.911 309.425,987.488 198.25,987.488 		"/> </g> <g> <circle style="fill:none;stroke:#231F20;" cx="309.425" cy="875.319" r="9.5"/> <line style="fill:none;stroke:#231F20;" x1="309.425" y1="856.524" x2="309.425" y2="865.819"/> </g>   <g> <path d="M41.937,941.654c2.058,0,3.987,0.372,5.788,1.114c1.771,0.772,3.314,1.815,4.63,3.13c1.314,1.315,2.357,2.858,3.13,4.63
			c0.742,1.801,1.114,3.73,1.114,5.788c0,1.972-0.372,3.858-1.114,5.659c-0.715,1.744-1.758,3.301-3.13,4.673
			c-1.344,1.372-2.915,2.43-4.716,3.172c-1.829,0.771-3.729,1.158-5.702,1.158c-1.943,0-3.815-0.386-5.616-1.158
			c-1.801-0.743-3.372-1.801-4.716-3.172c-1.372-1.343-2.43-2.916-3.172-4.716c-0.772-1.801-1.158-3.672-1.158-5.616
			c0-1.972,0.386-3.873,1.158-5.702c0.742-1.801,1.8-3.372,3.172-4.716c1.372-1.372,2.93-2.415,4.673-3.13
			C38.079,942.026,39.965,941.654,41.937,941.654z M42.28,904.614c2.059,0,3.987,0.372,5.788,1.114
			c1.771,0.772,3.315,1.815,4.63,3.13c1.314,1.315,2.358,2.858,3.13,4.63c0.742,1.801,1.114,3.73,1.114,5.788
			c0,1.972-0.372,3.858-1.114,5.659c-0.715,1.744-1.758,3.301-3.13,4.673c-1.344,1.372-2.915,2.43-4.716,3.172
			c-1.829,0.771-3.729,1.158-5.702,1.158c-2.601,0-5.03-0.657-7.288-1.972c-2.286-1.343-4.087-3.115-5.401-5.316
			c-1.315-2.201-1.972-4.658-1.972-7.374c0-2.658,0.656-5.116,1.972-7.374c1.314-2.229,3.115-4.015,5.401-5.359
			C37.278,905.257,39.708,904.614,42.28,904.614z M58.786,904.185l6.13-0.172c2.315-0.085,4.602-0.164,6.859-0.236
			c2.258-0.071,4.145-0.121,5.659-0.15c1.515-0.028,3.286-0.043,5.316-0.043c5.459,0,9.86,0.458,13.204,1.372
			c3.286,0.886,6.002,2.473,8.146,4.759c1.029,1.086,1.9,2.272,2.615,3.558c0.743,1.315,1.3,2.772,1.672,4.373
			c0.399,1.658,0.601,3.23,0.601,4.716c0,3.115-0.772,6.002-2.315,8.66c-1.601,2.687-3.873,4.945-6.816,6.774
			c3.258,2.058,5.659,4.33,7.202,6.816c1.543,2.486,2.315,5.402,2.315,8.746c0,5.573-1.801,10.061-5.402,13.461
			c-3.63,3.373-8.445,5.059-14.447,5.059H56.942v-0.986c1.857-0.343,3.301-0.686,4.33-1.029c0.943-0.286,2.015-0.786,3.215-1.5
			c1.772-0.915,3.33-2.144,4.674-3.687c2.457-2.972,3.687-6.345,3.687-10.118c0-2.029-0.357-3.972-1.072-5.83
			c-0.743-1.858-1.786-3.53-3.129-5.016c-1.43-1.458-3.073-2.658-4.931-3.601c-2.058-0.943-4.573-1.586-7.545-1.929v-1.072
			c3.258-0.657,5.83-1.529,7.717-2.615c1.743-0.971,3.258-2.214,4.544-3.73c2.401-2.8,3.602-6.159,3.602-10.075
			c0-4.515-1.602-8.288-4.802-11.318c-1.229-1.2-2.387-2.128-3.473-2.787C62.444,905.814,60.786,905.014,58.786,904.185z"/> <path d="M159.018,971.878h-44.586l23.364-29.324c0.172-0.199,0.322-0.378,0.45-0.536c0.129-0.157,0.307-0.378,0.536-0.665
			c0.172-0.2,0.328-0.386,0.472-0.557c0.143-0.172,0.3-0.371,0.472-0.601c0.086-0.143,0.264-0.378,0.536-0.707
			c0.271-0.329,0.478-0.593,0.621-0.793c0.343-0.429,0.543-0.671,0.601-0.729c2.771-3.401,4.901-6.188,6.388-8.36
			c1.314-1.915,2.215-3.687,2.701-5.316c0.485-1.629,0.729-3.473,0.729-5.531c0-2.915-0.629-5.587-1.887-8.017
			c-1.286-2.401-3.287-4.615-6.002-6.645c2.801-0.171,6.159-0.257,10.075-0.257c5.145,0,9.073,0.187,11.789,0.558
			c2.857,0.4,5.287,1.058,7.288,1.972c5.43,2.258,9.789,5.888,13.076,10.889c1.286,1.916,2.372,4.13,3.258,6.645
			c0.857,2.601,1.343,4.93,1.458,6.988c0.027,0.085,0.042,0.214,0.042,0.386s0.015,0.372,0.043,0.6
			c0.028,0.257,0.043,0.6,0.043,1.029v0.601L159.018,971.878z M130.852,904.357c2.686,0,5.158,0.658,7.416,1.972
			c2.258,1.315,4.044,3.101,5.359,5.359c1.314,2.258,1.972,4.73,1.972,7.417c0,2.687-0.657,5.13-1.972,7.331
			c-1.344,2.287-3.13,4.087-5.359,5.401c-2.287,1.344-4.759,2.015-7.416,2.015c-2.688,0-5.16-0.671-7.417-2.015
			c-2.229-1.314-4.016-3.115-5.359-5.401c-1.314-2.258-1.972-4.701-1.972-7.331c0-2.658,0.657-5.116,1.972-7.374
			c1.344-2.286,3.13-4.086,5.359-5.401C125.635,905.014,128.108,904.357,130.852,904.357z M166.778,971.878l23.879-30.224v30.224
			H166.778z"/> <path d="M234.256,903.928v68.379h-4.201c-4.773,0-9.218-0.871-13.333-2.615c-4.201-1.772-7.86-4.216-10.976-7.331
			c-3.172-3.115-5.616-6.745-7.331-10.889c-1.743-4.087-2.614-8.489-2.614-13.205c0-4.973,0.871-9.56,2.614-13.761
			c1.772-4.258,4.245-7.902,7.417-10.932c3.201-3.115,6.974-5.501,11.318-7.16c4.344-1.657,9.073-2.486,14.19-2.486H234.256z
			 M240.044,972.307v-68.379h3.516c4.888,0,9.488,0.857,13.805,2.572c4.4,1.8,8.188,4.216,11.36,7.245
			c3.201,3.086,5.702,6.703,7.503,10.846c1.801,4.145,2.7,8.603,2.7,13.376c0,4.973-0.872,9.546-2.614,13.719
			c-1.715,4.144-4.26,7.802-7.632,10.975c-3.258,3.087-7.116,5.474-11.575,7.16c-4.372,1.658-9.231,2.486-14.576,2.486H240.044z"/> </g> <g> <path d="M61.361,581.877H16.775l23.364-29.324c0.172-0.199,0.322-0.378,0.45-0.536c0.129-0.157,0.307-0.378,0.536-0.665
			c0.172-0.2,0.328-0.386,0.472-0.557c0.143-0.172,0.3-0.371,0.472-0.601c0.086-0.143,0.264-0.378,0.536-0.707
			c0.271-0.329,0.478-0.593,0.621-0.793c0.343-0.429,0.543-0.671,0.601-0.729c2.771-3.401,4.901-6.188,6.388-8.36
			c1.314-1.915,2.215-3.687,2.701-5.316c0.485-1.629,0.729-3.473,0.729-5.531c0-2.915-0.629-5.587-1.887-8.017
			c-1.286-2.401-3.287-4.615-6.002-6.645c2.801-0.171,6.159-0.257,10.075-0.257c5.145,0,9.073,0.187,11.789,0.558
			c2.857,0.4,5.287,1.058,7.288,1.972c5.43,2.258,9.789,5.888,13.076,10.889c1.286,1.916,2.372,4.13,3.258,6.645
			c0.857,2.601,1.343,4.93,1.458,6.988c0.027,0.085,0.042,0.214,0.042,0.386s0.015,0.372,0.043,0.6
			c0.028,0.257,0.043,0.6,0.043,1.029v0.601L61.361,581.877z M33.195,514.356c2.686,0,5.158,0.658,7.416,1.972
			c2.258,1.315,4.044,3.101,5.359,5.359c1.314,2.258,1.972,4.73,1.972,7.417c0,2.687-0.657,5.13-1.972,7.331
			c-1.344,2.287-3.13,4.087-5.359,5.401c-2.287,1.344-4.759,2.015-7.416,2.015c-2.688,0-5.16-0.671-7.417-2.015
			c-2.229-1.314-4.016-3.115-5.359-5.401c-1.314-2.258-1.972-4.701-1.972-7.331c0-2.658,0.657-5.116,1.972-7.374
			c1.344-2.286,3.13-4.086,5.359-5.401C27.978,515.013,30.451,514.356,33.195,514.356z M69.121,581.877L93,551.653v30.224H69.121z"/> <path d="M137.842,513.669v68.208h-21.95c-3.145,0-6.045-0.771-8.703-2.315c-2.657-1.543-4.758-3.644-6.302-6.302
			c-1.543-2.658-2.314-5.559-2.314-8.703c0-2.229,0.528-4.416,1.586-6.559c1.028-2.172,2.486-4.073,4.373-5.702
			c1.086-1,2.129-1.772,3.129-2.315c0.943-0.542,2.458-1.143,4.545-1.8v-0.214c-1.887-0.515-3.259-0.971-4.116-1.372
			c-1.028-0.457-2.144-1.157-3.344-2.101c-4.002-3.258-6.002-7.573-6.002-12.947c0-3.543,0.914-6.659,2.744-9.346
			c1.801-2.686,4.357-4.787,7.674-6.302c3.258-1.486,7.016-2.229,11.275-2.229H137.842z M143.545,581.877v-68.208h18.863
			c3.915,0,7.444,0.8,10.589,2.401c3.087,1.572,5.516,3.787,7.288,6.645c1.715,2.858,2.572,6.073,2.572,9.646
			c0,2.715-0.687,5.259-2.058,7.631c-1.372,2.373-3.316,4.302-5.831,5.788c-1.028,0.629-1.958,1.086-2.786,1.372
			c-0.915,0.343-2.058,0.643-3.43,0.9v0.214c2.429,0.429,4.415,1.101,5.959,2.015c1.801,1.001,3.258,2.229,4.373,3.687
			c1.286,1.458,2.286,3.102,3.001,4.93c0.742,1.915,1.114,3.744,1.114,5.487c0,3.258-0.743,6.202-2.229,8.832
			c-1.486,2.658-3.559,4.773-6.216,6.345c-2.658,1.543-5.545,2.315-8.66,2.315H143.545z"/> <path d="M227.1,513.927v68.379h-4.201c-4.773,0-9.218-0.871-13.333-2.615c-4.201-1.772-7.86-4.216-10.976-7.331
			c-3.172-3.115-5.616-6.745-7.331-10.889c-1.743-4.087-2.614-8.489-2.614-13.205c0-4.973,0.871-9.56,2.614-13.761
			c1.772-4.258,4.245-7.902,7.417-10.932c3.201-3.115,6.974-5.501,11.318-7.16c4.344-1.657,9.073-2.486,14.19-2.486H227.1z
			 M232.887,582.306v-68.379h3.516c4.888,0,9.488,0.857,13.805,2.572c4.4,1.8,8.188,4.216,11.36,7.245
			c3.201,3.086,5.702,6.703,7.503,10.846c1.801,4.145,2.7,8.603,2.7,13.376c0,4.973-0.872,9.546-2.614,13.719
			c-1.715,4.144-4.26,7.802-7.632,10.975c-3.258,3.087-7.116,5.474-11.575,7.16c-4.372,1.658-9.231,2.486-14.576,2.486H232.887z"/> </g> <g> <path d="M8.295,103.224l0.06-0.06h27.214v47.16H8.295V103.224z"/> <path d="M42.984,143.416v-40.251l0.061,0.06h22.039L42.984,143.416z M43.822,150.324l25.658-47.1h30.503l-25.479,47.1H43.822z"/> <path d="M129.08,102.925v47.698h-2.931c-3.33,0-6.43-0.608-9.301-1.824c-2.931-1.236-5.482-2.94-7.655-5.114
			c-2.213-2.173-3.918-4.705-5.114-7.596c-1.216-2.851-1.824-5.921-1.824-9.21c0-3.469,0.608-6.669,1.824-9.6
			c1.236-2.97,2.961-5.512,5.174-7.625c2.232-2.173,4.864-3.838,7.895-4.994s6.33-1.734,9.898-1.734H129.08z M133.117,150.623
			v-47.698h2.452c3.409,0,6.618,0.598,9.629,1.794c3.07,1.256,5.712,2.941,7.925,5.054c2.232,2.153,3.978,4.675,5.233,7.566
			s1.884,6.001,1.884,9.33c0,3.469-0.608,6.659-1.824,9.569c-1.196,2.891-2.971,5.443-5.323,7.656
			c-2.272,2.153-4.964,3.818-8.074,4.994c-3.05,1.156-6.439,1.734-10.167,1.734H133.117z"/> </g> </g> <g id="Layer_1"> </g> </svg> 