<?xml version="1.0" encoding="utf-8"?> <!-- Generator: Adobe Illustrator 21.0.0, SVG Export Plug-In . SVG Version: 6.00 Build 0)  --> <svg version="1.1" xmlns="http://www.w3.org/2000/svg" xmlns:xlink="http://www.w3.org/1999/xlink" x="0px" y="0px" viewBox="0 0 320 300" style="enable-background:new 0 0 320 300;" xml:space="preserve"> <style> path,line,circle,rect,polygon { vector-effect: non-scaling-stroke } </style> <g id="content"> <rect x="1727.193" y="-503.025" style="fill:none;" width="233.241" height="120"/>  <rect x="1200.712" y="-503.025" style="fill:none;" width="233.241" height="120"/>  <rect x="1453.953" y="-503.025" style="fill:none;" width="233.241" height="120"/>  <rect x="927.471" y="-89.214" style="fill:none;" width="233.241" height="120"/>  <rect x="927.471" y="-503.025" style="fill:none;" width="233.241" height="120"/>         <g>  </g>          <g>  <rect x="1717.193" y="-557.78" style="fill:#231F20;" width="79.5" height="30.984"/>  </g> <g>  <rect x="917.472" y="-1084.397" style="fill:#231F20;" width="188.107" height="30.984"/>  </g> <g>  <rect x="1190.712" y="-557.78" style="fill:#231F20;" width="122.955" height="30.984"/>  </g> <g>  <rect x="917.472" y="-557.779" style="fill:#231F20;" width="171.124" height="30.984"/>  </g> <g>  <rect x="917.472" y="-130.301" style="fill:#231F20;" width="171.124" height="30.984"/>  </g>                                     <g> <g> <rect x="927.472" y="143.588" style="fill:none;" width="277.879" height="17.816"/>  </g> <rect x="927.807" y="170.792" style="fill:#004E87;stroke:#E0E0E0;stroke-miterlimit:10;" width="11" height="11"/> <g>  </g> <rect x="1021.777" y="170.792" style="fill:#85B4D3;stroke:#E0E0E0;stroke-miterlimit:10;" width="11" height="11"/> <g>  </g> </g> <g> <g> <rect x="927.472" y="220.588" style="fill:none;" width="277.879" height="17.816"/>  </g> <rect x="927.807" y="247.792" style="fill:#004E87;stroke:#E0E0E0;stroke-miterlimit:10;" width="11" height="11"/> <g>  </g> <rect x="927.807" y="270.042" style="fill:#85B4D3;stroke:#E0E0E0;stroke-miterlimit:10;" width="11" height="11"/> </g>   <g> <rect x="927.471" y="-315.83" style="fill:none;" width="527.974" height="20.999"/>  <rect x="917.471" y="-323.242" width="547.974" height="33.411"/> <rect x="927.471" y="-315.83" style="fill:none;" width="527.974" height="20.999"/>  </g> </g> <g id="ai2html-settings"> <rect x="-705.497" y="-546.83" style="fill:none;" width="499" height="462"/>  </g> <g id="Layer_6"> </g> <g id="Layer_3"> <g> <g> <line style="fill:none;" x1="33.926" y1="-506.515" x2="160.987" y2="-506.515"/> <g> <g> <line style="fill:none;" x1="38.161" y1="-506.515" x2="38.161" y2="-510.696"/> <line style="fill:none;" x1="46.632" y1="-506.515" x2="46.632" y2="-510.696"/> <line style="fill:none;" x1="55.103" y1="-506.515" x2="55.103" y2="-510.696"/> <line style="fill:none;" x1="63.574" y1="-506.515" x2="63.574" y2="-510.696"/> <line style="fill:none;" x1="72.044" y1="-506.515" x2="72.044" y2="-510.696"/> <line style="fill:none;" x1="80.515" y1="-506.515" x2="80.515" y2="-510.696"/> <line style="fill:none;" x1="88.986" y1="-506.515" x2="88.986" y2="-510.696"/> <line style="fill:none;" x1="97.457" y1="-506.515" x2="97.457" y2="-510.696"/> <line style="fill:none;" x1="105.927" y1="-506.515" x2="105.927" y2="-510.696"/> <line style="fill:none;" x1="114.398" y1="-506.515" x2="114.398" y2="-510.696"/> <line style="fill:none;" x1="122.869" y1="-506.515" x2="122.869" y2="-510.696"/> <line style="fill:none;" x1="131.34" y1="-506.515" x2="131.34" y2="-510.696"/> <line style="fill:none;" x1="139.81" y1="-506.515" x2="139.81" y2="-510.696"/> <line style="fill:none;" x1="148.281" y1="-506.515" x2="148.281" y2="-510.696"/> <line style="fill:none;" x1="156.752" y1="-506.515" x2="156.752" y2="-510.696"/> </g> <g> </g> </g> </g> <g> <g>          </g> <line style="fill:none;" x1="33.926" y1="-506.515" x2="28.926" y2="-673.777"/> <g> <g> <line style="fill:none;" x1="33.926" y1="-506.515" x2="160.987" y2="-506.515"/> <line style="fill:none;stroke:#E0E0E0;stroke-miterlimit:10;" x1="28.926" y1="-527.423" x2="160.987" y2="-527.423"/> <line style="fill:none;stroke:#E0E0E0;stroke-miterlimit:10;" x1="28.926" y1="-548.33" x2="160.987" y2="-548.33"/> <line style="fill:none;stroke:#E0E0E0;stroke-miterlimit:10;" x1="28.926" y1="-569.238" x2="160.987" y2="-569.238"/> <line style="fill:none;stroke:#E0E0E0;stroke-miterlimit:10;" x1="28.926" y1="-590.146" x2="160.987" y2="-590.146"/> <line style="fill:none;stroke:#E0E0E0;stroke-miterlimit:10;" x1="28.926" y1="-611.054" x2="160.987" y2="-611.054"/> <line style="fill:none;stroke:#E0E0E0;stroke-miterlimit:10;" x1="28.926" y1="-631.961" x2="160.987" y2="-631.961"/> <line style="fill:none;stroke:#E0E0E0;stroke-miterlimit:10;" x1="28.926" y1="-652.869" x2="160.987" y2="-652.869"/> <line style="fill:none;stroke:#E0E0E0;stroke-miterlimit:10;" x1="28.926" y1="-673.777" x2="160.987" y2="-673.777"/> </g> <g> </g> </g> </g> <g> <g> <g> <line style="fill:none;stroke:#024E87;stroke-width:4;stroke-linecap:round;stroke-linejoin:round;stroke-miterlimit:10;" x1="46.632" y1="-635.097" x2="38.161" y2="-635.934"/> <line style="fill:none;stroke:#024E87;stroke-width:4;stroke-linecap:round;stroke-linejoin:round;stroke-miterlimit:10;" x1="55.103" y1="-636.143" x2="46.632" y2="-635.097"/> <line style="fill:none;stroke:#024E87;stroke-width:4;stroke-linecap:round;stroke-linejoin:round;stroke-miterlimit:10;" x1="63.574" y1="-636.143" x2="55.103" y2="-636.143"/> <line style="fill:none;stroke:#024E87;stroke-width:4;stroke-linecap:round;stroke-linejoin:round;stroke-miterlimit:10;" x1="72.044" y1="-638.861" x2="63.574" y2="-636.143"/> <line style="fill:none;stroke:#024E87;stroke-width:4;stroke-linecap:round;stroke-linejoin:round;stroke-miterlimit:10;" x1="80.515" y1="-641.997" x2="72.044" y2="-638.861"/> <line style="fill:none;stroke:#024E87;stroke-width:4;stroke-linecap:round;stroke-linejoin:round;stroke-miterlimit:10;" x1="88.986" y1="-642.206" x2="80.515" y2="-641.997"/> <line style="fill:none;stroke:#024E87;stroke-width:4;stroke-linecap:round;stroke-linejoin:round;stroke-miterlimit:10;" x1="97.457" y1="-642.415" x2="88.986" y2="-642.206"/> <line style="fill:none;stroke:#024E87;stroke-width:4;stroke-linecap:round;stroke-linejoin:round;stroke-miterlimit:10;" x1="105.927" y1="-643.042" x2="97.457" y2="-642.415"/> <line style="fill:none;stroke:#024E87;stroke-width:4;stroke-linecap:round;stroke-linejoin:round;stroke-miterlimit:10;" x1="114.398" y1="-643.042" x2="105.927" y2="-643.042"/> <line style="fill:none;stroke:#024E87;stroke-width:4;stroke-linecap:round;stroke-linejoin:round;stroke-miterlimit:10;" x1="122.869" y1="-638.861" x2="114.398" y2="-643.042"/> <line style="fill:none;stroke:#024E87;stroke-width:4;stroke-linecap:round;stroke-linejoin:round;stroke-miterlimit:10;" x1="131.34" y1="-644.297" x2="122.869" y2="-638.861"/> <line style="fill:none;stroke:#024E87;stroke-width:4;stroke-linecap:round;stroke-linejoin:round;stroke-miterlimit:10;" x1="139.81" y1="-644.506" x2="131.34" y2="-644.297"/> <line style="fill:none;stroke:#024E87;stroke-width:4;stroke-linecap:round;stroke-linejoin:round;stroke-miterlimit:10;" x1="148.281" y1="-644.715" x2="139.81" y2="-644.506"/> <line style="fill:none;stroke:#024E87;stroke-width:4;stroke-linecap:round;stroke-linejoin:round;stroke-miterlimit:10;" x1="156.752" y1="-647.433" x2="148.281" y2="-644.715"/> </g> </g> <g> <g> <line style="fill:none;stroke:#7493C1;stroke-width:2;stroke-linecap:round;stroke-linejoin:round;stroke-miterlimit:10;" x1="46.632" y1="-571.747" x2="38.161" y2="-570.493"/> <line style="fill:none;stroke:#7493C1;stroke-width:2;stroke-linecap:round;stroke-linejoin:round;stroke-miterlimit:10;" x1="55.103" y1="-569.238" x2="46.632" y2="-571.747"/> <line style="fill:none;stroke:#7493C1;stroke-width:2;stroke-linecap:round;stroke-linejoin:round;stroke-miterlimit:10;" x1="63.574" y1="-569.029" x2="55.103" y2="-569.238"/> <line style="fill:none;stroke:#7493C1;stroke-width:2;stroke-linecap:round;stroke-linejoin:round;stroke-miterlimit:10;" x1="72.044" y1="-566.311" x2="63.574" y2="-569.029"/> <line style="fill:none;stroke:#7493C1;stroke-width:2;stroke-linecap:round;stroke-linejoin:round;stroke-miterlimit:10;" x1="80.515" y1="-564.011" x2="72.044" y2="-566.311"/> <line style="fill:none;stroke:#7493C1;stroke-width:2;stroke-linecap:round;stroke-linejoin:round;stroke-miterlimit:10;" x1="88.986" y1="-564.638" x2="80.515" y2="-564.011"/> <line style="fill:none;stroke:#7493C1;stroke-width:2;stroke-linecap:round;stroke-linejoin:round;stroke-miterlimit:10;" x1="97.457" y1="-564.22" x2="88.986" y2="-564.638"/> <line style="fill:none;stroke:#7493C1;stroke-width:2;stroke-linecap:round;stroke-linejoin:round;stroke-miterlimit:10;" x1="105.927" y1="-554.185" x2="97.457" y2="-564.22"/> <line style="fill:none;stroke:#7493C1;stroke-width:2;stroke-linecap:round;stroke-linejoin:round;stroke-miterlimit:10;" x1="114.398" y1="-553.348" x2="105.927" y2="-554.185"/> <line style="fill:none;stroke:#7493C1;stroke-width:2;stroke-linecap:round;stroke-linejoin:round;stroke-miterlimit:10;" x1="122.869" y1="-562.129" x2="114.398" y2="-553.348"/> <line style="fill:none;stroke:#7493C1;stroke-width:2;stroke-linecap:round;stroke-linejoin:round;stroke-miterlimit:10;" x1="131.34" y1="-561.084" x2="122.869" y2="-562.129"/> <line style="fill:none;stroke:#7493C1;stroke-width:2;stroke-linecap:round;stroke-linejoin:round;stroke-miterlimit:10;" x1="139.81" y1="-561.084" x2="131.34" y2="-561.084"/> <line style="fill:none;stroke:#7493C1;stroke-width:2;stroke-linecap:round;stroke-linejoin:round;stroke-miterlimit:10;" x1="148.281" y1="-560.875" x2="139.81" y2="-561.084"/> <line style="fill:none;stroke:#7493C1;stroke-width:2;stroke-linecap:round;stroke-linejoin:round;stroke-miterlimit:10;" x1="156.752" y1="-558.575" x2="148.281" y2="-560.875"/> </g> </g> <g> <g> <line style="fill:none;stroke:#AAAAAA;stroke-width:2;stroke-linecap:round;stroke-linejoin:round;stroke-miterlimit:10;" x1="46.632" y1="-521.778" x2="38.161" y2="-521.987"/> <line style="fill:none;stroke:#AAAAAA;stroke-width:2;stroke-linecap:round;stroke-linejoin:round;stroke-miterlimit:10;" x1="55.103" y1="-523.241" x2="46.632" y2="-521.778"/> <line style="fill:none;stroke:#AAAAAA;stroke-width:2;stroke-linecap:round;stroke-linejoin:round;stroke-miterlimit:10;" x1="63.574" y1="-523.241" x2="55.103" y2="-523.241"/> <line style="fill:none;stroke:#AAAAAA;stroke-width:2;stroke-linecap:round;stroke-linejoin:round;stroke-miterlimit:10;" x1="72.044" y1="-523.45" x2="63.574" y2="-523.241"/> <line style="fill:none;stroke:#AAAAAA;stroke-width:2;stroke-linecap:round;stroke-linejoin:round;stroke-miterlimit:10;" x1="80.515" y1="-522.614" x2="72.044" y2="-523.45"/> <line style="fill:none;stroke:#AAAAAA;stroke-width:2;stroke-linecap:round;stroke-linejoin:round;stroke-miterlimit:10;" x1="88.986" y1="-521.778" x2="80.515" y2="-522.614"/> <line style="fill:none;stroke:#AAAAAA;stroke-width:2;stroke-linecap:round;stroke-linejoin:round;stroke-miterlimit:10;" x1="97.457" y1="-521.987" x2="88.986" y2="-521.778"/> <line style="fill:none;stroke:#AAAAAA;stroke-width:2;stroke-linecap:round;stroke-linejoin:round;stroke-miterlimit:10;" x1="105.927" y1="-531.395" x2="97.457" y2="-521.987"/> <line style="fill:none;stroke:#AAAAAA;stroke-width:2;stroke-linecap:round;stroke-linejoin:round;stroke-miterlimit:10;" x1="114.398" y1="-532.44" x2="105.927" y2="-531.395"/> <line style="fill:none;stroke:#AAAAAA;stroke-width:2;stroke-linecap:round;stroke-linejoin:round;stroke-miterlimit:10;" x1="122.869" y1="-527.632" x2="114.398" y2="-532.44"/> <line style="fill:none;stroke:#AAAAAA;stroke-width:2;stroke-linecap:round;stroke-linejoin:round;stroke-miterlimit:10;" x1="131.34" y1="-523.45" x2="122.869" y2="-527.632"/> <line style="fill:none;stroke:#AAAAAA;stroke-width:2;stroke-linecap:round;stroke-linejoin:round;stroke-miterlimit:10;" x1="139.81" y1="-523.032" x2="131.34" y2="-523.45"/> <line style="fill:none;stroke:#AAAAAA;stroke-width:2;stroke-linecap:round;stroke-linejoin:round;stroke-miterlimit:10;" x1="148.281" y1="-522.823" x2="139.81" y2="-523.032"/> <line style="fill:none;stroke:#AAAAAA;stroke-width:2;stroke-linecap:round;stroke-linejoin:round;stroke-miterlimit:10;" x1="156.752" y1="-522.614" x2="148.281" y2="-522.823"/> </g> </g> </g> <g> <g> </g> <g> </g> <g> </g> </g> </g>   <g> <g> <line style="fill:none;" x1="34.333" y1="-102.529" x2="279.346" y2="-102.529"/> <g> <g> <line style="fill:none;" x1="42.5" y1="-102.529" x2="42.5" y2="-106.885"/> <line style="fill:none;" x1="58.835" y1="-102.529" x2="58.835" y2="-106.885"/> <line style="fill:none;" x1="75.169" y1="-102.529" x2="75.169" y2="-106.885"/> <line style="fill:none;" x1="91.503" y1="-102.529" x2="91.503" y2="-106.885"/> <line style="fill:none;" x1="107.837" y1="-102.529" x2="107.837" y2="-106.885"/> <line style="fill:none;" x1="124.171" y1="-102.529" x2="124.171" y2="-106.885"/> <line style="fill:none;" x1="140.505" y1="-102.529" x2="140.505" y2="-106.885"/> <line style="fill:none;" x1="156.839" y1="-102.529" x2="156.839" y2="-106.885"/> <line style="fill:none;" x1="173.174" y1="-102.529" x2="173.174" y2="-106.885"/> <line style="fill:none;" x1="189.508" y1="-102.529" x2="189.508" y2="-106.885"/> <line style="fill:none;" x1="205.842" y1="-102.529" x2="205.842" y2="-106.885"/> <line style="fill:none;" x1="222.176" y1="-102.529" x2="222.176" y2="-106.885"/> <line style="fill:none;" x1="238.51" y1="-102.529" x2="238.51" y2="-106.885"/> <line style="fill:none;" x1="254.844" y1="-102.529" x2="254.844" y2="-106.885"/> <line style="fill:none;" x1="271.178" y1="-102.529" x2="271.178" y2="-106.885"/> </g> <g> </g> </g> </g> <g> <g>          </g> <line style="fill:none;" x1="34.333" y1="-102.529" x2="27.333" y2="-276.79"/> <g> <g> <line style="fill:none;" x1="34.333" y1="-102.529" x2="279.346" y2="-102.529"/> <line style="fill:none;stroke:#E0E0E0;stroke-miterlimit:10;" x1="27.333" y1="-124.311" x2="279.346" y2="-124.311"/> <line style="fill:none;stroke:#E0E0E0;stroke-miterlimit:10;" x1="27.333" y1="-146.094" x2="279.346" y2="-146.094"/> <line style="fill:none;stroke:#E0E0E0;stroke-miterlimit:10;" x1="27.333" y1="-167.877" x2="279.346" y2="-167.877"/> <line style="fill:none;stroke:#E0E0E0;stroke-miterlimit:10;" x1="27.333" y1="-189.659" x2="279.346" y2="-189.659"/> <line style="fill:none;stroke:#E0E0E0;stroke-miterlimit:10;" x1="27.333" y1="-211.442" x2="279.346" y2="-211.442"/> <line style="fill:none;stroke:#E0E0E0;stroke-miterlimit:10;" x1="27.333" y1="-233.225" x2="279.346" y2="-233.225"/> <line style="fill:none;stroke:#E0E0E0;stroke-miterlimit:10;" x1="27.333" y1="-255.007" x2="279.346" y2="-255.007"/> <line style="fill:none;stroke:#E0E0E0;stroke-miterlimit:10;" x1="27.333" y1="-276.79" x2="279.346" y2="-276.79"/> </g> <g> </g> </g> </g> <g> <g> <g> <line style="fill:none;stroke:#024E87;stroke-width:4;stroke-linecap:round;stroke-linejoin:round;stroke-miterlimit:10;" x1="58.835" y1="-236.492" x2="42.5" y2="-237.363"/> <line style="fill:none;stroke:#024E87;stroke-width:4;stroke-linecap:round;stroke-linejoin:round;stroke-miterlimit:10;" x1="75.169" y1="-237.581" x2="58.835" y2="-236.492"/> <line style="fill:none;stroke:#024E87;stroke-width:4;stroke-linecap:round;stroke-linejoin:round;stroke-miterlimit:10;" x1="91.503" y1="-237.581" x2="75.169" y2="-237.581"/> <line style="fill:none;stroke:#024E87;stroke-width:4;stroke-linecap:round;stroke-linejoin:round;stroke-miterlimit:10;" x1="107.837" y1="-240.413" x2="91.503" y2="-237.581"/> <line style="fill:none;stroke:#024E87;stroke-width:4;stroke-linecap:round;stroke-linejoin:round;stroke-miterlimit:10;" x1="124.171" y1="-243.68" x2="107.837" y2="-240.413"/> <line style="fill:none;stroke:#024E87;stroke-width:4;stroke-linecap:round;stroke-linejoin:round;stroke-miterlimit:10;" x1="140.505" y1="-243.898" x2="124.171" y2="-243.68"/> <line style="fill:none;stroke:#024E87;stroke-width:4;stroke-linecap:round;stroke-linejoin:round;stroke-miterlimit:10;" x1="156.839" y1="-244.116" x2="140.505" y2="-243.898"/> <line style="fill:none;stroke:#024E87;stroke-width:4;stroke-linecap:round;stroke-linejoin:round;stroke-miterlimit:10;" x1="173.174" y1="-244.77" x2="156.839" y2="-244.116"/> <line style="fill:none;stroke:#024E87;stroke-width:4;stroke-linecap:round;stroke-linejoin:round;stroke-miterlimit:10;" x1="189.508" y1="-244.77" x2="173.174" y2="-244.77"/> <line style="fill:none;stroke:#024E87;stroke-width:4;stroke-linecap:round;stroke-linejoin:round;stroke-miterlimit:10;" x1="205.842" y1="-240.413" x2="189.508" y2="-244.77"/> <line style="fill:none;stroke:#024E87;stroke-width:4;stroke-linecap:round;stroke-linejoin:round;stroke-miterlimit:10;" x1="222.176" y1="-246.076" x2="205.842" y2="-240.413"/> <line style="fill:none;stroke:#024E87;stroke-width:4;stroke-linecap:round;stroke-linejoin:round;stroke-miterlimit:10;" x1="238.51" y1="-246.294" x2="222.176" y2="-246.076"/> <line style="fill:none;stroke:#024E87;stroke-width:4;stroke-linecap:round;stroke-linejoin:round;stroke-miterlimit:10;" x1="254.844" y1="-246.512" x2="238.51" y2="-246.294"/> <line style="fill:none;stroke:#024E87;stroke-width:4;stroke-linecap:round;stroke-linejoin:round;stroke-miterlimit:10;" x1="271.178" y1="-249.344" x2="254.844" y2="-246.512"/> </g> </g> <g> <g> <line style="fill:none;stroke:#7493C1;stroke-width:2;stroke-linecap:round;stroke-linejoin:round;stroke-miterlimit:10;" x1="58.835" y1="-170.491" x2="42.5" y2="-169.184"/> <line style="fill:none;stroke:#7493C1;stroke-width:2;stroke-linecap:round;stroke-linejoin:round;stroke-miterlimit:10;" x1="75.169" y1="-167.877" x2="58.835" y2="-170.491"/> <line style="fill:none;stroke:#7493C1;stroke-width:2;stroke-linecap:round;stroke-linejoin:round;stroke-miterlimit:10;" x1="91.503" y1="-167.659" x2="75.169" y2="-167.877"/> <line style="fill:none;stroke:#7493C1;stroke-width:2;stroke-linecap:round;stroke-linejoin:round;stroke-miterlimit:10;" x1="107.837" y1="-164.827" x2="91.503" y2="-167.659"/> <line style="fill:none;stroke:#7493C1;stroke-width:2;stroke-linecap:round;stroke-linejoin:round;stroke-miterlimit:10;" x1="124.171" y1="-162.431" x2="107.837" y2="-164.827"/> <line style="fill:none;stroke:#7493C1;stroke-width:2;stroke-linecap:round;stroke-linejoin:round;stroke-miterlimit:10;" x1="140.505" y1="-163.084" x2="124.171" y2="-162.431"/> <line style="fill:none;stroke:#7493C1;stroke-width:2;stroke-linecap:round;stroke-linejoin:round;stroke-miterlimit:10;" x1="156.839" y1="-162.649" x2="140.505" y2="-163.084"/> <line style="fill:none;stroke:#7493C1;stroke-width:2;stroke-linecap:round;stroke-linejoin:round;stroke-miterlimit:10;" x1="173.174" y1="-152.193" x2="156.839" y2="-162.649"/> <line style="fill:none;stroke:#7493C1;stroke-width:2;stroke-linecap:round;stroke-linejoin:round;stroke-miterlimit:10;" x1="189.508" y1="-151.322" x2="173.174" y2="-152.193"/> <line style="fill:none;stroke:#7493C1;stroke-width:2;stroke-linecap:round;stroke-linejoin:round;stroke-miterlimit:10;" x1="205.842" y1="-160.471" x2="189.508" y2="-151.322"/> <line style="fill:none;stroke:#7493C1;stroke-width:2;stroke-linecap:round;stroke-linejoin:round;stroke-miterlimit:10;" x1="222.176" y1="-159.381" x2="205.842" y2="-160.471"/> <line style="fill:none;stroke:#7493C1;stroke-width:2;stroke-linecap:round;stroke-linejoin:round;stroke-miterlimit:10;" x1="238.51" y1="-159.381" x2="222.176" y2="-159.381"/> <line style="fill:none;stroke:#7493C1;stroke-width:2;stroke-linecap:round;stroke-linejoin:round;stroke-miterlimit:10;" x1="254.844" y1="-159.164" x2="238.51" y2="-159.381"/> <line style="fill:none;stroke:#7493C1;stroke-width:2;stroke-linecap:round;stroke-linejoin:round;stroke-miterlimit:10;" x1="271.178" y1="-156.767" x2="254.844" y2="-159.164"/> </g> </g> <g> <g> <line style="fill:none;stroke:#AAAAAA;stroke-width:2;stroke-linecap:round;stroke-linejoin:round;stroke-miterlimit:10;" x1="58.835" y1="-118.43" x2="42.5" y2="-118.648"/> <line style="fill:none;stroke:#AAAAAA;stroke-width:2;stroke-linecap:round;stroke-linejoin:round;stroke-miterlimit:10;" x1="75.169" y1="-119.955" x2="58.835" y2="-118.43"/> <line style="fill:none;stroke:#AAAAAA;stroke-width:2;stroke-linecap:round;stroke-linejoin:round;stroke-miterlimit:10;" x1="91.503" y1="-119.955" x2="75.169" y2="-119.955"/> <line style="fill:none;stroke:#AAAAAA;stroke-width:2;stroke-linecap:round;stroke-linejoin:round;stroke-miterlimit:10;" x1="107.837" y1="-120.173" x2="91.503" y2="-119.955"/> <line style="fill:none;stroke:#AAAAAA;stroke-width:2;stroke-linecap:round;stroke-linejoin:round;stroke-miterlimit:10;" x1="124.171" y1="-119.301" x2="107.837" y2="-120.173"/> <line style="fill:none;stroke:#AAAAAA;stroke-width:2;stroke-linecap:round;stroke-linejoin:round;stroke-miterlimit:10;" x1="140.505" y1="-118.43" x2="124.171" y2="-119.301"/> <line style="fill:none;stroke:#AAAAAA;stroke-width:2;stroke-linecap:round;stroke-linejoin:round;stroke-miterlimit:10;" x1="156.839" y1="-118.648" x2="140.505" y2="-118.43"/> <line style="fill:none;stroke:#AAAAAA;stroke-width:2;stroke-linecap:round;stroke-linejoin:round;stroke-miterlimit:10;" x1="173.174" y1="-128.45" x2="156.839" y2="-118.648"/> <line style="fill:none;stroke:#AAAAAA;stroke-width:2;stroke-linecap:round;stroke-linejoin:round;stroke-miterlimit:10;" x1="189.508" y1="-129.539" x2="173.174" y2="-128.45"/> <line style="fill:none;stroke:#AAAAAA;stroke-width:2;stroke-linecap:round;stroke-linejoin:round;stroke-miterlimit:10;" x1="205.842" y1="-124.529" x2="189.508" y2="-129.539"/> <line style="fill:none;stroke:#AAAAAA;stroke-width:2;stroke-linecap:round;stroke-linejoin:round;stroke-miterlimit:10;" x1="222.176" y1="-120.173" x2="205.842" y2="-124.529"/> <line style="fill:none;stroke:#AAAAAA;stroke-width:2;stroke-linecap:round;stroke-linejoin:round;stroke-miterlimit:10;" x1="238.51" y1="-119.737" x2="222.176" y2="-120.173"/> <line style="fill:none;stroke:#AAAAAA;stroke-width:2;stroke-linecap:round;stroke-linejoin:round;stroke-miterlimit:10;" x1="254.844" y1="-119.519" x2="238.51" y2="-119.737"/> <line style="fill:none;stroke:#AAAAAA;stroke-width:2;stroke-linecap:round;stroke-linejoin:round;stroke-miterlimit:10;" x1="271.178" y1="-119.301" x2="254.844" y2="-119.519"/> </g> </g> </g> <g> <g> </g> <g> </g> <g> </g> </g> </g> <g>         </g>  <g> <g> <g> <line style="fill:none;stroke:#000000;stroke-miterlimit:10;" x1="42.237" y1="-96.251" x2="42.237" y2="-102.181"/> <line style="fill:none;stroke:#000000;stroke-miterlimit:10;" x1="58.577" y1="-96.251" x2="58.577" y2="-102.181"/> <line style="fill:none;stroke:#000000;stroke-miterlimit:10;" x1="74.916" y1="-96.251" x2="74.916" y2="-102.181"/> <line style="fill:none;stroke:#000000;stroke-miterlimit:10;" x1="91.255" y1="-96.251" x2="91.255" y2="-102.181"/> <line style="fill:none;stroke:#000000;stroke-miterlimit:10;" x1="107.594" y1="-96.251" x2="107.594" y2="-102.181"/> <line style="fill:none;stroke:#000000;stroke-miterlimit:10;" x1="123.934" y1="-96.251" x2="123.934" y2="-102.181"/> <line style="fill:none;stroke:#000000;stroke-miterlimit:10;" x1="140.273" y1="-96.251" x2="140.273" y2="-102.181"/> <line style="fill:none;stroke:#000000;stroke-miterlimit:10;" x1="156.612" y1="-96.251" x2="156.612" y2="-102.181"/> <line style="fill:none;stroke:#000000;stroke-miterlimit:10;" x1="172.952" y1="-96.251" x2="172.952" y2="-102.181"/> <line style="fill:none;stroke:#000000;stroke-miterlimit:10;" x1="189.291" y1="-96.251" x2="189.291" y2="-102.181"/> <line style="fill:none;stroke:#000000;stroke-miterlimit:10;" x1="205.63" y1="-96.251" x2="205.63" y2="-102.181"/> <line style="fill:none;stroke:#000000;stroke-miterlimit:10;" x1="221.969" y1="-96.251" x2="221.969" y2="-102.181"/> <line style="fill:none;stroke:#000000;stroke-miterlimit:10;" x1="238.309" y1="-96.251" x2="238.309" y2="-102.181"/> <line style="fill:none;stroke:#000000;stroke-miterlimit:10;" x1="254.648" y1="-96.251" x2="254.648" y2="-102.181"/> <line style="fill:none;stroke:#000000;stroke-miterlimit:10;" x1="270.987" y1="-96.251" x2="270.987" y2="-102.181"/> </g> </g> <g> <g>  </g> <g>  </g> <g>  </g> <g>  </g> <g>  </g> <g>  </g> <g>  </g> <g>  </g> </g> </g>    <rect x="0" y="-332.892" style="fill:none;" width="280" height="22.054"/>  <g> <rect x="115" y="-300.669" style="fill:#FFFFFF;" width="165" height="27.277"/> <g>    </g> </g> <g> <rect x="115" y="-219.415" style="fill:#FFFFFF;" width="165" height="41.927"/> <g>    </g> </g> <g> <g>   </g> </g> <g> <circle style="fill:none;stroke:#231F20;" cx="269.425" cy="-157.693" r="9.5"/> <line style="fill:none;stroke:#231F20;" x1="269.425" y1="-179.616" x2="269.425" y2="-167.193"/> </g> <g> <circle style="fill:none;stroke:#231F20;" cx="269.425" cy="-118.977" r="9.5"/> <polyline style="fill:none;stroke:#231F20;" points="269.425,-128.477 269.425,-136.9 158.251,-136.9 		"/> </g> <g> <circle style="fill:none;stroke:#231F20;" cx="269.425" cy="-249.069" r="9.5"/> <line style="fill:none;stroke:#231F20;" x1="269.425" y1="-267.864" x2="269.425" y2="-258.569"/> </g> <g>         </g>  <g> <g> <g> <line style="fill:none;stroke:#000000;stroke-width:2;stroke-miterlimit:10;" x1="38.025" y1="-500.237" x2="38.025" y2="-506.167"/> <line style="fill:none;stroke:#000000;stroke-miterlimit:10;" x1="46.498" y1="-500.237" x2="46.498" y2="-506.167"/> <line style="fill:none;stroke:#000000;stroke-miterlimit:10;" x1="54.972" y1="-500.237" x2="54.972" y2="-506.167"/> <line style="fill:none;stroke:#000000;stroke-miterlimit:10;" x1="63.445" y1="-500.237" x2="63.445" y2="-506.167"/> <line style="fill:none;stroke:#000000;stroke-width:2;stroke-miterlimit:10;" x1="71.919" y1="-500.237" x2="71.919" y2="-506.167"/> <line style="fill:none;stroke:#000000;stroke-miterlimit:10;" x1="80.392" y1="-500.237" x2="80.392" y2="-506.167"/> <line style="fill:none;stroke:#000000;stroke-miterlimit:10;" x1="88.865" y1="-500.237" x2="88.865" y2="-506.167"/> <line style="fill:none;stroke:#000000;stroke-miterlimit:10;" x1="97.339" y1="-500.237" x2="97.339" y2="-506.167"/> <line style="fill:none;stroke:#000000;stroke-miterlimit:10;" x1="105.812" y1="-500.237" x2="105.812" y2="-506.167"/> <line style="fill:none;stroke:#000000;stroke-width:2;stroke-miterlimit:10;" x1="114.286" y1="-500.237" x2="114.286" y2="-506.167"/> <line style="fill:none;stroke:#000000;stroke-miterlimit:10;" x1="122.759" y1="-500.237" x2="122.759" y2="-506.167"/> <line style="fill:none;stroke:#000000;stroke-miterlimit:10;" x1="131.233" y1="-500.237" x2="131.233" y2="-506.167"/> <line style="fill:none;stroke:#000000;stroke-miterlimit:10;" x1="139.706" y1="-500.237" x2="139.706" y2="-506.167"/> <line style="fill:none;stroke:#000000;stroke-miterlimit:10;" x1="148.179" y1="-500.237" x2="148.179" y2="-506.167"/> <line style="fill:none;stroke:#000000;stroke-width:2;stroke-miterlimit:10;" x1="156.653" y1="-500.237" x2="156.653" y2="-506.167"/> </g> </g> <g> <g>  </g> <g>  </g> <g>  </g> <g>  </g> </g> </g>    <rect x="0" y="-716.824" style="fill:none;" width="171.324" height="25.041"/>  <g> <g>   </g> </g> <g> <g>   </g> </g> <g> <g>   </g> </g> <g> <circle style="fill:none;stroke:#231F20;" cx="156.251" cy="-558.68" r="9.5"/> <line style="fill:none;stroke:#231F20;" x1="156.251" y1="-584.603" x2="156.251" y2="-568.18"/> </g> <g> <circle style="fill:none;stroke:#231F20;" cx="157.408" cy="-522.964" r="9.5"/> <polyline style="fill:none;stroke:#231F20;" points="157.408,-532.464 157.408,-539.887 112.398,-539.887 		"/> </g> <g> <circle style="fill:none;stroke:#231F20;" cx="158.251" cy="-647.056" r="9.5"/> <line style="fill:none;stroke:#231F20;" x1="158.251" y1="-665.851" x2="158.251" y2="-656.556"/> </g> <g> <g> <line style="fill:none;" x1="34.333" y1="256.462" x2="320.001" y2="256.462"/> <g> <g> <line style="fill:none;" x1="43.856" y1="256.462" x2="43.856" y2="252.105"/> <line style="fill:none;" x1="62.9" y1="256.462" x2="62.9" y2="252.105"/> <line style="fill:none;" x1="81.945" y1="256.462" x2="81.945" y2="252.105"/> <line style="fill:none;" x1="100.989" y1="256.462" x2="100.989" y2="252.105"/> <line style="fill:none;" x1="120.034" y1="256.462" x2="120.034" y2="252.105"/> <line style="fill:none;" x1="139.078" y1="256.462" x2="139.078" y2="252.105"/> <line style="fill:none;" x1="158.123" y1="256.462" x2="158.123" y2="252.105"/> <line style="fill:none;" x1="177.167" y1="256.462" x2="177.167" y2="252.105"/> <line style="fill:none;" x1="196.212" y1="256.462" x2="196.212" y2="252.105"/> <line style="fill:none;" x1="215.256" y1="256.462" x2="215.256" y2="252.105"/> <line style="fill:none;" x1="234.301" y1="256.462" x2="234.301" y2="252.105"/> <line style="fill:none;" x1="253.345" y1="256.462" x2="253.345" y2="252.105"/> <line style="fill:none;" x1="272.39" y1="256.462" x2="272.39" y2="252.105"/> <line style="fill:none;" x1="291.434" y1="256.462" x2="291.434" y2="252.105"/> <line style="fill:none;" x1="310.479" y1="256.462" x2="310.479" y2="252.105"/> </g> <g> </g> </g> </g> <g> <g>          </g> <line style="fill:none;" x1="34.333" y1="256.462" x2="27.333" y2="82.2"/> <g> <g> <line style="fill:none;" x1="34.333" y1="256.462" x2="320.001" y2="256.462"/> <line style="fill:none;stroke:#E0E0E0;stroke-miterlimit:10;" x1="27.333" y1="234.679" x2="320.001" y2="234.679"/> <line style="fill:none;stroke:#E0E0E0;stroke-miterlimit:10;" x1="27.333" y1="212.896" x2="320.001" y2="212.896"/> <line style="fill:none;stroke:#E0E0E0;stroke-miterlimit:10;" x1="27.333" y1="191.114" x2="320.001" y2="191.114"/> <line style="fill:none;stroke:#E0E0E0;stroke-miterlimit:10;" x1="27.333" y1="169.331" x2="320.001" y2="169.331"/> <line style="fill:none;stroke:#E0E0E0;stroke-miterlimit:10;" x1="27.333" y1="147.548" x2="320.001" y2="147.548"/> <line style="fill:none;stroke:#E0E0E0;stroke-miterlimit:10;" x1="27.333" y1="125.766" x2="320.001" y2="125.766"/> <line style="fill:none;stroke:#E0E0E0;stroke-miterlimit:10;" x1="27.333" y1="103.983" x2="320.001" y2="103.983"/> <line style="fill:none;stroke:#E0E0E0;stroke-miterlimit:10;" x1="27.333" y1="82.2" x2="320.001" y2="82.2"/> </g> <g> </g> </g> </g> <g> <g> <g> <line style="fill:none;stroke:#024E87;stroke-width:4;stroke-linecap:round;stroke-linejoin:round;stroke-miterlimit:10;" x1="62.9" y1="122.498" x2="43.856" y2="121.627"/> <line style="fill:none;stroke:#024E87;stroke-width:4;stroke-linecap:round;stroke-linejoin:round;stroke-miterlimit:10;" x1="81.945" y1="121.409" x2="62.9" y2="122.498"/> <line style="fill:none;stroke:#024E87;stroke-width:4;stroke-linecap:round;stroke-linejoin:round;stroke-miterlimit:10;" x1="100.989" y1="121.409" x2="81.945" y2="121.409"/> <line style="fill:none;stroke:#024E87;stroke-width:4;stroke-linecap:round;stroke-linejoin:round;stroke-miterlimit:10;" x1="120.034" y1="118.577" x2="100.989" y2="121.409"/> <line style="fill:none;stroke:#024E87;stroke-width:4;stroke-linecap:round;stroke-linejoin:round;stroke-miterlimit:10;" x1="139.078" y1="115.31" x2="120.034" y2="118.577"/> <line style="fill:none;stroke:#024E87;stroke-width:4;stroke-linecap:round;stroke-linejoin:round;stroke-miterlimit:10;" x1="158.123" y1="115.092" x2="139.078" y2="115.31"/> <line style="fill:none;stroke:#024E87;stroke-width:4;stroke-linecap:round;stroke-linejoin:round;stroke-miterlimit:10;" x1="177.167" y1="114.874" x2="158.123" y2="115.092"/> <line style="fill:none;stroke:#024E87;stroke-width:4;stroke-linecap:round;stroke-linejoin:round;stroke-miterlimit:10;" x1="196.212" y1="114.221" x2="177.167" y2="114.874"/> <line style="fill:none;stroke:#024E87;stroke-width:4;stroke-linecap:round;stroke-linejoin:round;stroke-miterlimit:10;" x1="215.256" y1="114.221" x2="196.212" y2="114.221"/> <line style="fill:none;stroke:#024E87;stroke-width:4;stroke-linecap:round;stroke-linejoin:round;stroke-miterlimit:10;" x1="234.301" y1="118.577" x2="215.256" y2="114.221"/> <line style="fill:none;stroke:#024E87;stroke-width:4;stroke-linecap:round;stroke-linejoin:round;stroke-miterlimit:10;" x1="253.345" y1="112.914" x2="234.301" y2="118.577"/> <line style="fill:none;stroke:#024E87;stroke-width:4;stroke-linecap:round;stroke-linejoin:round;stroke-miterlimit:10;" x1="272.39" y1="112.696" x2="253.345" y2="112.914"/> <line style="fill:none;stroke:#024E87;stroke-width:4;stroke-linecap:round;stroke-linejoin:round;stroke-miterlimit:10;" x1="291.434" y1="112.478" x2="272.39" y2="112.696"/> <line style="fill:none;stroke:#024E87;stroke-width:4;stroke-linecap:round;stroke-linejoin:round;stroke-miterlimit:10;" x1="310.479" y1="109.646" x2="291.434" y2="112.478"/> </g> </g> <g> <g> <line style="fill:none;stroke:#7493C1;stroke-width:2;stroke-linecap:round;stroke-linejoin:round;stroke-miterlimit:10;" x1="62.9" y1="188.5" x2="43.856" y2="189.807"/> <line style="fill:none;stroke:#7493C1;stroke-width:2;stroke-linecap:round;stroke-linejoin:round;stroke-miterlimit:10;" x1="81.945" y1="191.114" x2="62.9" y2="188.5"/> <line style="fill:none;stroke:#7493C1;stroke-width:2;stroke-linecap:round;stroke-linejoin:round;stroke-miterlimit:10;" x1="100.989" y1="191.331" x2="81.945" y2="191.114"/> <line style="fill:none;stroke:#7493C1;stroke-width:2;stroke-linecap:round;stroke-linejoin:round;stroke-miterlimit:10;" x1="120.034" y1="194.163" x2="100.989" y2="191.331"/> <line style="fill:none;stroke:#7493C1;stroke-width:2;stroke-linecap:round;stroke-linejoin:round;stroke-miterlimit:10;" x1="139.078" y1="196.559" x2="120.034" y2="194.163"/> <line style="fill:none;stroke:#7493C1;stroke-width:2;stroke-linecap:round;stroke-linejoin:round;stroke-miterlimit:10;" x1="158.123" y1="195.906" x2="139.078" y2="196.559"/> <line style="fill:none;stroke:#7493C1;stroke-width:2;stroke-linecap:round;stroke-linejoin:round;stroke-miterlimit:10;" x1="177.167" y1="196.341" x2="158.123" y2="195.906"/> <line style="fill:none;stroke:#7493C1;stroke-width:2;stroke-linecap:round;stroke-linejoin:round;stroke-miterlimit:10;" x1="196.212" y1="206.797" x2="177.167" y2="196.341"/> <line style="fill:none;stroke:#7493C1;stroke-width:2;stroke-linecap:round;stroke-linejoin:round;stroke-miterlimit:10;" x1="215.256" y1="207.668" x2="196.212" y2="206.797"/> <line style="fill:none;stroke:#7493C1;stroke-width:2;stroke-linecap:round;stroke-linejoin:round;stroke-miterlimit:10;" x1="234.301" y1="198.52" x2="215.256" y2="207.668"/> <line style="fill:none;stroke:#7493C1;stroke-width:2;stroke-linecap:round;stroke-linejoin:round;stroke-miterlimit:10;" x1="253.345" y1="199.609" x2="234.301" y2="198.52"/> <line style="fill:none;stroke:#7493C1;stroke-width:2;stroke-linecap:round;stroke-linejoin:round;stroke-miterlimit:10;" x1="272.39" y1="199.609" x2="253.345" y2="199.609"/> <line style="fill:none;stroke:#7493C1;stroke-width:2;stroke-linecap:round;stroke-linejoin:round;stroke-miterlimit:10;" x1="291.434" y1="199.827" x2="272.39" y2="199.609"/> <line style="fill:none;stroke:#7493C1;stroke-width:2;stroke-linecap:round;stroke-linejoin:round;stroke-miterlimit:10;" x1="310.479" y1="202.223" x2="291.434" y2="199.827"/> </g> </g> <g> <g> <line style="fill:none;stroke:#AAAAAA;stroke-width:2;stroke-linecap:round;stroke-linejoin:round;stroke-miterlimit:10;" x1="62.9" y1="240.56" x2="43.856" y2="240.342"/> <line style="fill:none;stroke:#AAAAAA;stroke-width:2;stroke-linecap:round;stroke-linejoin:round;stroke-miterlimit:10;" x1="81.945" y1="239.036" x2="62.9" y2="240.56"/> <line style="fill:none;stroke:#AAAAAA;stroke-width:2;stroke-linecap:round;stroke-linejoin:round;stroke-miterlimit:10;" x1="100.989" y1="239.036" x2="81.945" y2="239.036"/> <line style="fill:none;stroke:#AAAAAA;stroke-width:2;stroke-linecap:round;stroke-linejoin:round;stroke-miterlimit:10;" x1="120.034" y1="238.818" x2="100.989" y2="239.036"/> <line style="fill:none;stroke:#AAAAAA;stroke-width:2;stroke-linecap:round;stroke-linejoin:round;stroke-miterlimit:10;" x1="139.078" y1="239.689" x2="120.034" y2="238.818"/> <line style="fill:none;stroke:#AAAAAA;stroke-width:2;stroke-linecap:round;stroke-linejoin:round;stroke-miterlimit:10;" x1="158.123" y1="240.56" x2="139.078" y2="239.689"/> <line style="fill:none;stroke:#AAAAAA;stroke-width:2;stroke-linecap:round;stroke-linejoin:round;stroke-miterlimit:10;" x1="177.167" y1="240.342" x2="158.123" y2="240.56"/> <line style="fill:none;stroke:#AAAAAA;stroke-width:2;stroke-linecap:round;stroke-linejoin:round;stroke-miterlimit:10;" x1="196.212" y1="230.54" x2="177.167" y2="240.342"/> <line style="fill:none;stroke:#AAAAAA;stroke-width:2;stroke-linecap:round;stroke-linejoin:round;stroke-miterlimit:10;" x1="215.256" y1="229.451" x2="196.212" y2="230.54"/> <line style="fill:none;stroke:#AAAAAA;stroke-width:2;stroke-linecap:round;stroke-linejoin:round;stroke-miterlimit:10;" x1="234.301" y1="234.461" x2="215.256" y2="229.451"/> <line style="fill:none;stroke:#AAAAAA;stroke-width:2;stroke-linecap:round;stroke-linejoin:round;stroke-miterlimit:10;" x1="253.345" y1="238.818" x2="234.301" y2="234.461"/> <line style="fill:none;stroke:#AAAAAA;stroke-width:2;stroke-linecap:round;stroke-linejoin:round;stroke-miterlimit:10;" x1="272.39" y1="239.253" x2="253.345" y2="238.818"/> <line style="fill:none;stroke:#AAAAAA;stroke-width:2;stroke-linecap:round;stroke-linejoin:round;stroke-miterlimit:10;" x1="291.434" y1="239.471" x2="272.39" y2="239.253"/> <line style="fill:none;stroke:#AAAAAA;stroke-width:2;stroke-linecap:round;stroke-linejoin:round;stroke-miterlimit:10;" x1="310.479" y1="239.689" x2="291.434" y2="239.471"/> </g> </g> </g> <g> <g> </g> <g> </g> <g> </g> </g> </g> <g>         </g> <line style="fill:#FFFFFF;stroke:#231F20;" x1="0" y1="256.462" x2="320.001" y2="256.462"/> <g> <g> <g> <line style="fill:none;stroke:#000000;stroke-miterlimit:10;" x1="43.549" y1="262.74" x2="43.549" y2="256.81"/> <line style="fill:none;stroke:#000000;stroke-miterlimit:10;" x1="62.599" y1="262.74" x2="62.599" y2="256.81"/> <line style="fill:none;stroke:#000000;stroke-miterlimit:10;" x1="81.65" y1="262.74" x2="81.65" y2="256.81"/> <line style="fill:none;stroke:#000000;stroke-miterlimit:10;" x1="100.7" y1="262.74" x2="100.7" y2="256.81"/> <line style="fill:none;stroke:#000000;stroke-miterlimit:10;" x1="119.751" y1="262.74" x2="119.751" y2="256.81"/> <line style="fill:none;stroke:#000000;stroke-miterlimit:10;" x1="138.801" y1="262.74" x2="138.801" y2="256.81"/> <line style="fill:none;stroke:#000000;stroke-miterlimit:10;" x1="157.852" y1="262.74" x2="157.852" y2="256.81"/> <line style="fill:none;stroke:#000000;stroke-miterlimit:10;" x1="176.902" y1="262.74" x2="176.902" y2="256.81"/> <line style="fill:none;stroke:#000000;stroke-miterlimit:10;" x1="195.953" y1="262.74" x2="195.953" y2="256.81"/> <line style="fill:none;stroke:#000000;stroke-miterlimit:10;" x1="215.003" y1="262.74" x2="215.003" y2="256.81"/> <line style="fill:none;stroke:#000000;stroke-miterlimit:10;" x1="234.054" y1="262.74" x2="234.054" y2="256.81"/> <line style="fill:none;stroke:#000000;stroke-miterlimit:10;" x1="253.104" y1="262.74" x2="253.104" y2="256.81"/> <line style="fill:none;stroke:#000000;stroke-miterlimit:10;" x1="272.155" y1="262.74" x2="272.155" y2="256.81"/> <line style="fill:none;stroke:#000000;stroke-miterlimit:10;" x1="291.205" y1="262.74" x2="291.205" y2="256.81"/> <line style="fill:none;stroke:#000000;stroke-miterlimit:10;" x1="310.256" y1="262.74" x2="310.256" y2="256.81"/> </g> </g> <g>         </g> </g>   <rect x="0" y="26.098" style="fill:none;" width="280" height="22.054"/>  <g> <rect x="155" y="58.321" style="fill:#FFFFFF;" width="165" height="27.277"/> <g>    </g> </g> <g> <rect x="155" y="139.575" style="fill:#FFFFFF;" width="165" height="41.927"/> <g>    </g> </g> <g> <g>   </g> </g> <g> <circle style="fill:none;stroke:#231F20;" cx="309.425" cy="201.297" r="9.5"/> <line style="fill:none;stroke:#231F20;" x1="309.425" y1="179.374" x2="309.425" y2="191.797"/> </g> <g> <circle style="fill:none;stroke:#231F20;" cx="309.425" cy="240.013" r="9.5"/> <polyline style="fill:none;stroke:#231F20;" points="309.425,230.513 309.425,222.09 198.251,222.09 		"/> </g> <g> <circle style="fill:none;stroke:#231F20;" cx="309.425" cy="109.921" r="9.5"/> <line style="fill:none;stroke:#231F20;" x1="309.425" y1="91.126" x2="309.425" y2="100.421"/> </g>   </g> <g id="Layer_1"> </g> </svg> 