<?xml version="1.0" encoding="utf-8"?> <!-- Generator: Adobe Illustrator 21.0.0, SVG Export Plug-In . SVG Version: 6.00 Build 0)  --> <svg version="1.1" xmlns="http://www.w3.org/2000/svg" xmlns:xlink="http://www.w3.org/1999/xlink" x="0px" y="0px" viewBox="0 0 320 300" style="enable-background:new 0 0 320 300;" xml:space="preserve"> <style> path,line,circle,rect,polygon { vector-effect: non-scaling-stroke } </style> <g id="content"> <rect x="1727.193" y="-503.025" style="fill:none;" width="233.241" height="120"/>  <rect x="1200.712" y="-503.025" style="fill:none;" width="233.241" height="120"/>  <rect x="1453.953" y="-503.025" style="fill:none;" width="233.241" height="120"/>  <rect x="927.471" y="-89.214" style="fill:none;" width="233.241" height="120"/>  <rect x="927.471" y="-503.025" style="fill:none;" width="233.241" height="120"/>         <g>  </g>          <g>  <rect x="1717.193" y="-557.78" style="fill:#231F20;" width="79.5" height="30.984"/>  </g> <g>  <rect x="917.472" y="-1084.397" style="fill:#231F20;" width="188.107" height="30.984"/>  </g> <g>  <rect x="1190.712" y="-557.78" style="fill:#231F20;" width="122.955" height="30.984"/>  </g> <g>  <rect x="917.472" y="-557.779" style="fill:#231F20;" width="171.124" height="30.984"/>  </g> <g>  <rect x="917.472" y="-130.301" style="fill:#231F20;" width="171.124" height="30.984"/>  </g>                                     <g> <g> <rect x="927.472" y="143.588" style="fill:none;" width="277.879" height="17.816"/>  </g> <rect x="927.807" y="170.792" style="fill:#004E87;stroke:#E0E0E0;stroke-miterlimit:10;" width="11" height="11"/> <g>  </g> <rect x="1021.777" y="170.792" style="fill:#85B4D3;stroke:#E0E0E0;stroke-miterlimit:10;" width="11" height="11"/> <g>  </g> </g> <g> <g> <rect x="927.472" y="220.588" style="fill:none;" width="277.879" height="17.816"/>  </g> <rect x="927.807" y="247.792" style="fill:#004E87;stroke:#E0E0E0;stroke-miterlimit:10;" width="11" height="11"/> <g>  </g> <rect x="927.807" y="270.042" style="fill:#85B4D3;stroke:#E0E0E0;stroke-miterlimit:10;" width="11" height="11"/> </g>   <g> <rect x="927.471" y="-315.83" style="fill:none;" width="527.974" height="20.999"/>  <rect x="917.471" y="-323.242" width="547.974" height="33.411"/> <rect x="927.471" y="-315.83" style="fill:none;" width="527.974" height="20.999"/>  </g> </g> <g id="ai2html-settings"> <rect x="-705.497" y="-546.83" style="fill:none;" width="499" height="462"/>  </g> <g id="Layer_6"> </g> <g id="Layer_3"> <g> <g> <line style="fill:none;" x1="33.926" y1="-506.515" x2="160.987" y2="-506.515"/> <g> <g> <line style="fill:none;" x1="38.161" y1="-506.515" x2="38.161" y2="-510.696"/> <line style="fill:none;" x1="46.632" y1="-506.515" x2="46.632" y2="-510.696"/> <line style="fill:none;" x1="55.103" y1="-506.515" x2="55.103" y2="-510.696"/> <line style="fill:none;" x1="63.574" y1="-506.515" x2="63.574" y2="-510.696"/> <line style="fill:none;" x1="72.044" y1="-506.515" x2="72.044" y2="-510.696"/> <line style="fill:none;" x1="80.515" y1="-506.515" x2="80.515" y2="-510.696"/> <line style="fill:none;" x1="88.986" y1="-506.515" x2="88.986" y2="-510.696"/> <line style="fill:none;" x1="97.457" y1="-506.515" x2="97.457" y2="-510.696"/> <line style="fill:none;" x1="105.927" y1="-506.515" x2="105.927" y2="-510.696"/> <line style="fill:none;" x1="114.398" y1="-506.515" x2="114.398" y2="-510.696"/> <line style="fill:none;" x1="122.869" y1="-506.515" x2="122.869" y2="-510.696"/> <line style="fill:none;" x1="131.34" y1="-506.515" x2="131.34" y2="-510.696"/> <line style="fill:none;" x1="139.81" y1="-506.515" x2="139.81" y2="-510.696"/> <line style="fill:none;" x1="148.281" y1="-506.515" x2="148.281" y2="-510.696"/> <line style="fill:none;" x1="156.752" y1="-506.515" x2="156.752" y2="-510.696"/> </g> <g> </g> </g> </g> <g> <g>          </g> <line style="fill:none;" x1="33.926" y1="-506.515" x2="28.926" y2="-673.777"/> <g> <g> <line style="fill:none;" x1="33.926" y1="-506.515" x2="160.987" y2="-506.515"/> <line style="fill:none;stroke:#E0E0E0;stroke-miterlimit:10;" x1="28.926" y1="-527.423" x2="160.987" y2="-527.423"/> <line style="fill:none;stroke:#E0E0E0;stroke-miterlimit:10;" x1="28.926" y1="-548.33" x2="160.987" y2="-548.33"/> <line style="fill:none;stroke:#E0E0E0;stroke-miterlimit:10;" x1="28.926" y1="-569.238" x2="160.987" y2="-569.238"/> <line style="fill:none;stroke:#E0E0E0;stroke-miterlimit:10;" x1="28.926" y1="-590.146" x2="160.987" y2="-590.146"/> <line style="fill:none;stroke:#E0E0E0;stroke-miterlimit:10;" x1="28.926" y1="-611.054" x2="160.987" y2="-611.054"/> <line style="fill:none;stroke:#E0E0E0;stroke-miterlimit:10;" x1="28.926" y1="-631.961" x2="160.987" y2="-631.961"/> <line style="fill:none;stroke:#E0E0E0;stroke-miterlimit:10;" x1="28.926" y1="-652.869" x2="160.987" y2="-652.869"/> <line style="fill:none;stroke:#E0E0E0;stroke-miterlimit:10;" x1="28.926" y1="-673.777" x2="160.987" y2="-673.777"/> </g> <g> </g> </g> </g> <g> <g> <g> <line style="fill:none;stroke:#024E87;stroke-width:4;stroke-linecap:round;stroke-linejoin:round;stroke-miterlimit:10;" x1="46.632" y1="-635.097" x2="38.161" y2="-635.934"/> <line style="fill:none;stroke:#024E87;stroke-width:4;stroke-linecap:round;stroke-linejoin:round;stroke-miterlimit:10;" x1="55.103" y1="-636.143" x2="46.632" y2="-635.097"/> <line style="fill:none;stroke:#024E87;stroke-width:4;stroke-linecap:round;stroke-linejoin:round;stroke-miterlimit:10;" x1="63.574" y1="-636.143" x2="55.103" y2="-636.143"/> <line style="fill:none;stroke:#024E87;stroke-width:4;stroke-linecap:round;stroke-linejoin:round;stroke-miterlimit:10;" x1="72.044" y1="-638.861" x2="63.574" y2="-636.143"/> <line style="fill:none;stroke:#024E87;stroke-width:4;stroke-linecap:round;stroke-linejoin:round;stroke-miterlimit:10;" x1="80.515" y1="-641.997" x2="72.044" y2="-638.861"/> <line style="fill:none;stroke:#024E87;stroke-width:4;stroke-linecap:round;stroke-linejoin:round;stroke-miterlimit:10;" x1="88.986" y1="-642.206" x2="80.515" y2="-641.997"/> <line style="fill:none;stroke:#024E87;stroke-width:4;stroke-linecap:round;stroke-linejoin:round;stroke-miterlimit:10;" x1="97.457" y1="-642.415" x2="88.986" y2="-642.206"/> <line style="fill:none;stroke:#024E87;stroke-width:4;stroke-linecap:round;stroke-linejoin:round;stroke-miterlimit:10;" x1="105.927" y1="-643.042" x2="97.457" y2="-642.415"/> <line style="fill:none;stroke:#024E87;stroke-width:4;stroke-linecap:round;stroke-linejoin:round;stroke-miterlimit:10;" x1="114.398" y1="-643.042" x2="105.927" y2="-643.042"/> <line style="fill:none;stroke:#024E87;stroke-width:4;stroke-linecap:round;stroke-linejoin:round;stroke-miterlimit:10;" x1="122.869" y1="-638.861" x2="114.398" y2="-643.042"/> <line style="fill:none;stroke:#024E87;stroke-width:4;stroke-linecap:round;stroke-linejoin:round;stroke-miterlimit:10;" x1="131.34" y1="-644.297" x2="122.869" y2="-638.861"/> <line style="fill:none;stroke:#024E87;stroke-width:4;stroke-linecap:round;stroke-linejoin:round;stroke-miterlimit:10;" x1="139.81" y1="-644.506" x2="131.34" y2="-644.297"/> <line style="fill:none;stroke:#024E87;stroke-width:4;stroke-linecap:round;stroke-linejoin:round;stroke-miterlimit:10;" x1="148.281" y1="-644.715" x2="139.81" y2="-644.506"/> <line style="fill:none;stroke:#024E87;stroke-width:4;stroke-linecap:round;stroke-linejoin:round;stroke-miterlimit:10;" x1="156.752" y1="-647.433" x2="148.281" y2="-644.715"/> </g> </g> <g> <g> <line style="fill:none;stroke:#7493C1;stroke-width:2;stroke-linecap:round;stroke-linejoin:round;stroke-miterlimit:10;" x1="46.632" y1="-571.747" x2="38.161" y2="-570.493"/> <line style="fill:none;stroke:#7493C1;stroke-width:2;stroke-linecap:round;stroke-linejoin:round;stroke-miterlimit:10;" x1="55.103" y1="-569.238" x2="46.632" y2="-571.747"/> <line style="fill:none;stroke:#7493C1;stroke-width:2;stroke-linecap:round;stroke-linejoin:round;stroke-miterlimit:10;" x1="63.574" y1="-569.029" x2="55.103" y2="-569.238"/> <line style="fill:none;stroke:#7493C1;stroke-width:2;stroke-linecap:round;stroke-linejoin:round;stroke-miterlimit:10;" x1="72.044" y1="-566.311" x2="63.574" y2="-569.029"/> <line style="fill:none;stroke:#7493C1;stroke-width:2;stroke-linecap:round;stroke-linejoin:round;stroke-miterlimit:10;" x1="80.515" y1="-564.011" x2="72.044" y2="-566.311"/> <line style="fill:none;stroke:#7493C1;stroke-width:2;stroke-linecap:round;stroke-linejoin:round;stroke-miterlimit:10;" x1="88.986" y1="-564.638" x2="80.515" y2="-564.011"/> <line style="fill:none;stroke:#7493C1;stroke-width:2;stroke-linecap:round;stroke-linejoin:round;stroke-miterlimit:10;" x1="97.457" y1="-564.22" x2="88.986" y2="-564.638"/> <line style="fill:none;stroke:#7493C1;stroke-width:2;stroke-linecap:round;stroke-linejoin:round;stroke-miterlimit:10;" x1="105.927" y1="-554.185" x2="97.457" y2="-564.22"/> <line style="fill:none;stroke:#7493C1;stroke-width:2;stroke-linecap:round;stroke-linejoin:round;stroke-miterlimit:10;" x1="114.398" y1="-553.348" x2="105.927" y2="-554.185"/> <line style="fill:none;stroke:#7493C1;stroke-width:2;stroke-linecap:round;stroke-linejoin:round;stroke-miterlimit:10;" x1="122.869" y1="-562.129" x2="114.398" y2="-553.348"/> <line style="fill:none;stroke:#7493C1;stroke-width:2;stroke-linecap:round;stroke-linejoin:round;stroke-miterlimit:10;" x1="131.34" y1="-561.084" x2="122.869" y2="-562.129"/> <line style="fill:none;stroke:#7493C1;stroke-width:2;stroke-linecap:round;stroke-linejoin:round;stroke-miterlimit:10;" x1="139.81" y1="-561.084" x2="131.34" y2="-561.084"/> <line style="fill:none;stroke:#7493C1;stroke-width:2;stroke-linecap:round;stroke-linejoin:round;stroke-miterlimit:10;" x1="148.281" y1="-560.875" x2="139.81" y2="-561.084"/> <line style="fill:none;stroke:#7493C1;stroke-width:2;stroke-linecap:round;stroke-linejoin:round;stroke-miterlimit:10;" x1="156.752" y1="-558.575" x2="148.281" y2="-560.875"/> </g> </g> <g> <g> <line style="fill:none;stroke:#AAAAAA;stroke-width:2;stroke-linecap:round;stroke-linejoin:round;stroke-miterlimit:10;" x1="46.632" y1="-521.778" x2="38.161" y2="-521.987"/> <line style="fill:none;stroke:#AAAAAA;stroke-width:2;stroke-linecap:round;stroke-linejoin:round;stroke-miterlimit:10;" x1="55.103" y1="-523.241" x2="46.632" y2="-521.778"/> <line style="fill:none;stroke:#AAAAAA;stroke-width:2;stroke-linecap:round;stroke-linejoin:round;stroke-miterlimit:10;" x1="63.574" y1="-523.241" x2="55.103" y2="-523.241"/> <line style="fill:none;stroke:#AAAAAA;stroke-width:2;stroke-linecap:round;stroke-linejoin:round;stroke-miterlimit:10;" x1="72.044" y1="-523.45" x2="63.574" y2="-523.241"/> <line style="fill:none;stroke:#AAAAAA;stroke-width:2;stroke-linecap:round;stroke-linejoin:round;stroke-miterlimit:10;" x1="80.515" y1="-522.614" x2="72.044" y2="-523.45"/> <line style="fill:none;stroke:#AAAAAA;stroke-width:2;stroke-linecap:round;stroke-linejoin:round;stroke-miterlimit:10;" x1="88.986" y1="-521.778" x2="80.515" y2="-522.614"/> <line style="fill:none;stroke:#AAAAAA;stroke-width:2;stroke-linecap:round;stroke-linejoin:round;stroke-miterlimit:10;" x1="97.457" y1="-521.987" x2="88.986" y2="-521.778"/> <line style="fill:none;stroke:#AAAAAA;stroke-width:2;stroke-linecap:round;stroke-linejoin:round;stroke-miterlimit:10;" x1="105.927" y1="-531.395" x2="97.457" y2="-521.987"/> <line style="fill:none;stroke:#AAAAAA;stroke-width:2;stroke-linecap:round;stroke-linejoin:round;stroke-miterlimit:10;" x1="114.398" y1="-532.44" x2="105.927" y2="-531.395"/> <line style="fill:none;stroke:#AAAAAA;stroke-width:2;stroke-linecap:round;stroke-linejoin:round;stroke-miterlimit:10;" x1="122.869" y1="-527.632" x2="114.398" y2="-532.44"/> <line style="fill:none;stroke:#AAAAAA;stroke-width:2;stroke-linecap:round;stroke-linejoin:round;stroke-miterlimit:10;" x1="131.34" y1="-523.45" x2="122.869" y2="-527.632"/> <line style="fill:none;stroke:#AAAAAA;stroke-width:2;stroke-linecap:round;stroke-linejoin:round;stroke-miterlimit:10;" x1="139.81" y1="-523.032" x2="131.34" y2="-523.45"/> <line style="fill:none;stroke:#AAAAAA;stroke-width:2;stroke-linecap:round;stroke-linejoin:round;stroke-miterlimit:10;" x1="148.281" y1="-522.823" x2="139.81" y2="-523.032"/> <line style="fill:none;stroke:#AAAAAA;stroke-width:2;stroke-linecap:round;stroke-linejoin:round;stroke-miterlimit:10;" x1="156.752" y1="-522.614" x2="148.281" y2="-522.823"/> </g> </g> </g> <g> <g> </g> <g> </g> <g> </g> </g> </g>   <g> <g> <line style="fill:none;" x1="34.333" y1="-102.529" x2="279.346" y2="-102.529"/> <g> <g> <line style="fill:none;" x1="42.5" y1="-102.529" x2="42.5" y2="-106.885"/> <line style="fill:none;" x1="58.835" y1="-102.529" x2="58.835" y2="-106.885"/> <line style="fill:none;" x1="75.169" y1="-102.529" x2="75.169" y2="-106.885"/> <line style="fill:none;" x1="91.503" y1="-102.529" x2="91.503" y2="-106.885"/> <line style="fill:none;" x1="107.837" y1="-102.529" x2="107.837" y2="-106.885"/> <line style="fill:none;" x1="124.171" y1="-102.529" x2="124.171" y2="-106.885"/> <line style="fill:none;" x1="140.505" y1="-102.529" x2="140.505" y2="-106.885"/> <line style="fill:none;" x1="156.839" y1="-102.529" x2="156.839" y2="-106.885"/> <line style="fill:none;" x1="173.174" y1="-102.529" x2="173.174" y2="-106.885"/> <line style="fill:none;" x1="189.508" y1="-102.529" x2="189.508" y2="-106.885"/> <line style="fill:none;" x1="205.842" y1="-102.529" x2="205.842" y2="-106.885"/> <line style="fill:none;" x1="222.176" y1="-102.529" x2="222.176" y2="-106.885"/> <line style="fill:none;" x1="238.51" y1="-102.529" x2="238.51" y2="-106.885"/> <line style="fill:none;" x1="254.844" y1="-102.529" x2="254.844" y2="-106.885"/> <line style="fill:none;" x1="271.178" y1="-102.529" x2="271.178" y2="-106.885"/> </g> <g> </g> </g> </g> <g> <g>          </g> <line style="fill:none;" x1="34.333" y1="-102.529" x2="27.333" y2="-276.79"/> <g> <g> <line style="fill:none;" x1="34.333" y1="-102.529" x2="279.346" y2="-102.529"/> <line style="fill:none;stroke:#E0E0E0;stroke-miterlimit:10;" x1="27.333" y1="-124.311" x2="279.346" y2="-124.311"/> <line style="fill:none;stroke:#E0E0E0;stroke-miterlimit:10;" x1="27.333" y1="-146.094" x2="279.346" y2="-146.094"/> <line style="fill:none;stroke:#E0E0E0;stroke-miterlimit:10;" x1="27.333" y1="-167.877" x2="279.346" y2="-167.877"/> <line style="fill:none;stroke:#E0E0E0;stroke-miterlimit:10;" x1="27.333" y1="-189.659" x2="279.346" y2="-189.659"/> <line style="fill:none;stroke:#E0E0E0;stroke-miterlimit:10;" x1="27.333" y1="-211.442" x2="279.346" y2="-211.442"/> <line style="fill:none;stroke:#E0E0E0;stroke-miterlimit:10;" x1="27.333" y1="-233.225" x2="279.346" y2="-233.225"/> <line style="fill:none;stroke:#E0E0E0;stroke-miterlimit:10;" x1="27.333" y1="-255.007" x2="279.346" y2="-255.007"/> <line style="fill:none;stroke:#E0E0E0;stroke-miterlimit:10;" x1="27.333" y1="-276.79" x2="279.346" y2="-276.79"/> </g> <g> </g> </g> </g> <g> <g> <g> <line style="fill:none;stroke:#024E87;stroke-width:4;stroke-linecap:round;stroke-linejoin:round;stroke-miterlimit:10;" x1="58.835" y1="-236.492" x2="42.5" y2="-237.363"/> <line style="fill:none;stroke:#024E87;stroke-width:4;stroke-linecap:round;stroke-linejoin:round;stroke-miterlimit:10;" x1="75.169" y1="-237.581" x2="58.835" y2="-236.492"/> <line style="fill:none;stroke:#024E87;stroke-width:4;stroke-linecap:round;stroke-linejoin:round;stroke-miterlimit:10;" x1="91.503" y1="-237.581" x2="75.169" y2="-237.581"/> <line style="fill:none;stroke:#024E87;stroke-width:4;stroke-linecap:round;stroke-linejoin:round;stroke-miterlimit:10;" x1="107.837" y1="-240.413" x2="91.503" y2="-237.581"/> <line style="fill:none;stroke:#024E87;stroke-width:4;stroke-linecap:round;stroke-linejoin:round;stroke-miterlimit:10;" x1="124.171" y1="-243.68" x2="107.837" y2="-240.413"/> <line style="fill:none;stroke:#024E87;stroke-width:4;stroke-linecap:round;stroke-linejoin:round;stroke-miterlimit:10;" x1="140.505" y1="-243.898" x2="124.171" y2="-243.68"/> <line style="fill:none;stroke:#024E87;stroke-width:4;stroke-linecap:round;stroke-linejoin:round;stroke-miterlimit:10;" x1="156.839" y1="-244.116" x2="140.505" y2="-243.898"/> <line style="fill:none;stroke:#024E87;stroke-width:4;stroke-linecap:round;stroke-linejoin:round;stroke-miterlimit:10;" x1="173.174" y1="-244.77" x2="156.839" y2="-244.116"/> <line style="fill:none;stroke:#024E87;stroke-width:4;stroke-linecap:round;stroke-linejoin:round;stroke-miterlimit:10;" x1="189.508" y1="-244.77" x2="173.174" y2="-244.77"/> <line style="fill:none;stroke:#024E87;stroke-width:4;stroke-linecap:round;stroke-linejoin:round;stroke-miterlimit:10;" x1="205.842" y1="-240.413" x2="189.508" y2="-244.77"/> <line style="fill:none;stroke:#024E87;stroke-width:4;stroke-linecap:round;stroke-linejoin:round;stroke-miterlimit:10;" x1="222.176" y1="-246.076" x2="205.842" y2="-240.413"/> <line style="fill:none;stroke:#024E87;stroke-width:4;stroke-linecap:round;stroke-linejoin:round;stroke-miterlimit:10;" x1="238.51" y1="-246.294" x2="222.176" y2="-246.076"/> <line style="fill:none;stroke:#024E87;stroke-width:4;stroke-linecap:round;stroke-linejoin:round;stroke-miterlimit:10;" x1="254.844" y1="-246.512" x2="238.51" y2="-246.294"/> <line style="fill:none;stroke:#024E87;stroke-width:4;stroke-linecap:round;stroke-linejoin:round;stroke-miterlimit:10;" x1="271.178" y1="-249.344" x2="254.844" y2="-246.512"/> </g> </g> <g> <g> <line style="fill:none;stroke:#7493C1;stroke-width:2;stroke-linecap:round;stroke-linejoin:round;stroke-miterlimit:10;" x1="58.835" y1="-170.491" x2="42.5" y2="-169.184"/> <line style="fill:none;stroke:#7493C1;stroke-width:2;stroke-linecap:round;stroke-linejoin:round;stroke-miterlimit:10;" x1="75.169" y1="-167.877" x2="58.835" y2="-170.491"/> <line style="fill:none;stroke:#7493C1;stroke-width:2;stroke-linecap:round;stroke-linejoin:round;stroke-miterlimit:10;" x1="91.503" y1="-167.659" x2="75.169" y2="-167.877"/> <line style="fill:none;stroke:#7493C1;stroke-width:2;stroke-linecap:round;stroke-linejoin:round;stroke-miterlimit:10;" x1="107.837" y1="-164.827" x2="91.503" y2="-167.659"/> <line style="fill:none;stroke:#7493C1;stroke-width:2;stroke-linecap:round;stroke-linejoin:round;stroke-miterlimit:10;" x1="124.171" y1="-162.431" x2="107.837" y2="-164.827"/> <line style="fill:none;stroke:#7493C1;stroke-width:2;stroke-linecap:round;stroke-linejoin:round;stroke-miterlimit:10;" x1="140.505" y1="-163.084" x2="124.171" y2="-162.431"/> <line style="fill:none;stroke:#7493C1;stroke-width:2;stroke-linecap:round;stroke-linejoin:round;stroke-miterlimit:10;" x1="156.839" y1="-162.649" x2="140.505" y2="-163.084"/> <line style="fill:none;stroke:#7493C1;stroke-width:2;stroke-linecap:round;stroke-linejoin:round;stroke-miterlimit:10;" x1="173.174" y1="-152.193" x2="156.839" y2="-162.649"/> <line style="fill:none;stroke:#7493C1;stroke-width:2;stroke-linecap:round;stroke-linejoin:round;stroke-miterlimit:10;" x1="189.508" y1="-151.322" x2="173.174" y2="-152.193"/> <line style="fill:none;stroke:#7493C1;stroke-width:2;stroke-linecap:round;stroke-linejoin:round;stroke-miterlimit:10;" x1="205.842" y1="-160.471" x2="189.508" y2="-151.322"/> <line style="fill:none;stroke:#7493C1;stroke-width:2;stroke-linecap:round;stroke-linejoin:round;stroke-miterlimit:10;" x1="222.176" y1="-159.381" x2="205.842" y2="-160.471"/> <line style="fill:none;stroke:#7493C1;stroke-width:2;stroke-linecap:round;stroke-linejoin:round;stroke-miterlimit:10;" x1="238.51" y1="-159.381" x2="222.176" y2="-159.381"/> <line style="fill:none;stroke:#7493C1;stroke-width:2;stroke-linecap:round;stroke-linejoin:round;stroke-miterlimit:10;" x1="254.844" y1="-159.164" x2="238.51" y2="-159.381"/> <line style="fill:none;stroke:#7493C1;stroke-width:2;stroke-linecap:round;stroke-linejoin:round;stroke-miterlimit:10;" x1="271.178" y1="-156.767" x2="254.844" y2="-159.164"/> </g> </g> <g> <g> <line style="fill:none;stroke:#AAAAAA;stroke-width:2;stroke-linecap:round;stroke-linejoin:round;stroke-miterlimit:10;" x1="58.835" y1="-118.43" x2="42.5" y2="-118.648"/> <line style="fill:none;stroke:#AAAAAA;stroke-width:2;stroke-linecap:round;stroke-linejoin:round;stroke-miterlimit:10;" x1="75.169" y1="-119.955" x2="58.835" y2="-118.43"/> <line style="fill:none;stroke:#AAAAAA;stroke-width:2;stroke-linecap:round;stroke-linejoin:round;stroke-miterlimit:10;" x1="91.503" y1="-119.955" x2="75.169" y2="-119.955"/> <line style="fill:none;stroke:#AAAAAA;stroke-width:2;stroke-linecap:round;stroke-linejoin:round;stroke-miterlimit:10;" x1="107.837" y1="-120.173" x2="91.503" y2="-119.955"/> <line style="fill:none;stroke:#AAAAAA;stroke-width:2;stroke-linecap:round;stroke-linejoin:round;stroke-miterlimit:10;" x1="124.171" y1="-119.301" x2="107.837" y2="-120.173"/> <line style="fill:none;stroke:#AAAAAA;stroke-width:2;stroke-linecap:round;stroke-linejoin:round;stroke-miterlimit:10;" x1="140.505" y1="-118.43" x2="124.171" y2="-119.301"/> <line style="fill:none;stroke:#AAAAAA;stroke-width:2;stroke-linecap:round;stroke-linejoin:round;stroke-miterlimit:10;" x1="156.839" y1="-118.648" x2="140.505" y2="-118.43"/> <line style="fill:none;stroke:#AAAAAA;stroke-width:2;stroke-linecap:round;stroke-linejoin:round;stroke-miterlimit:10;" x1="173.174" y1="-128.45" x2="156.839" y2="-118.648"/> <line style="fill:none;stroke:#AAAAAA;stroke-width:2;stroke-linecap:round;stroke-linejoin:round;stroke-miterlimit:10;" x1="189.508" y1="-129.539" x2="173.174" y2="-128.45"/> <line style="fill:none;stroke:#AAAAAA;stroke-width:2;stroke-linecap:round;stroke-linejoin:round;stroke-miterlimit:10;" x1="205.842" y1="-124.529" x2="189.508" y2="-129.539"/> <line style="fill:none;stroke:#AAAAAA;stroke-width:2;stroke-linecap:round;stroke-linejoin:round;stroke-miterlimit:10;" x1="222.176" y1="-120.173" x2="205.842" y2="-124.529"/> <line style="fill:none;stroke:#AAAAAA;stroke-width:2;stroke-linecap:round;stroke-linejoin:round;stroke-miterlimit:10;" x1="238.51" y1="-119.737" x2="222.176" y2="-120.173"/> <line style="fill:none;stroke:#AAAAAA;stroke-width:2;stroke-linecap:round;stroke-linejoin:round;stroke-miterlimit:10;" x1="254.844" y1="-119.519" x2="238.51" y2="-119.737"/> <line style="fill:none;stroke:#AAAAAA;stroke-width:2;stroke-linecap:round;stroke-linejoin:round;stroke-miterlimit:10;" x1="271.178" y1="-119.301" x2="254.844" y2="-119.519"/> </g> </g> </g> <g> <g> </g> <g> </g> <g> </g> </g> </g> <g>         </g>  <g> <g> <g> <line style="fill:none;stroke:#000000;stroke-miterlimit:10;" x1="42.237" y1="-96.251" x2="42.237" y2="-102.181"/> <line style="fill:none;stroke:#000000;stroke-miterlimit:10;" x1="58.577" y1="-96.251" x2="58.577" y2="-102.181"/> <line style="fill:none;stroke:#000000;stroke-miterlimit:10;" x1="74.916" y1="-96.251" x2="74.916" y2="-102.181"/> <line style="fill:none;stroke:#000000;stroke-miterlimit:10;" x1="91.255" y1="-96.251" x2="91.255" y2="-102.181"/> <line style="fill:none;stroke:#000000;stroke-miterlimit:10;" x1="107.594" y1="-96.251" x2="107.594" y2="-102.181"/> <line style="fill:none;stroke:#000000;stroke-miterlimit:10;" x1="123.934" y1="-96.251" x2="123.934" y2="-102.181"/> <line style="fill:none;stroke:#000000;stroke-miterlimit:10;" x1="140.273" y1="-96.251" x2="140.273" y2="-102.181"/> <line style="fill:none;stroke:#000000;stroke-miterlimit:10;" x1="156.612" y1="-96.251" x2="156.612" y2="-102.181"/> <line style="fill:none;stroke:#000000;stroke-miterlimit:10;" x1="172.952" y1="-96.251" x2="172.952" y2="-102.181"/> <line style="fill:none;stroke:#000000;stroke-miterlimit:10;" x1="189.291" y1="-96.251" x2="189.291" y2="-102.181"/> <line style="fill:none;stroke:#000000;stroke-miterlimit:10;" x1="205.63" y1="-96.251" x2="205.63" y2="-102.181"/> <line style="fill:none;stroke:#000000;stroke-miterlimit:10;" x1="221.969" y1="-96.251" x2="221.969" y2="-102.181"/> <line style="fill:none;stroke:#000000;stroke-miterlimit:10;" x1="238.309" y1="-96.251" x2="238.309" y2="-102.181"/> <line style="fill:none;stroke:#000000;stroke-miterlimit:10;" x1="254.648" y1="-96.251" x2="254.648" y2="-102.181"/> <line style="fill:none;stroke:#000000;stroke-miterlimit:10;" x1="270.987" y1="-96.251" x2="270.987" y2="-102.181"/> </g> </g> <g> <g>  </g> <g>  </g> <g>  </g> <g>  </g> <g>  </g> <g>  </g> <g>  </g> <g>  </g> </g> </g>    <rect x="0" y="-332.892" style="fill:none;" width="280" height="22.054"/>  <g> <rect x="115" y="-300.669" style="fill:#FFFFFF;" width="165" height="27.277"/> <g>    </g> </g> <g> <rect x="115" y="-219.415" style="fill:#FFFFFF;" width="165" height="41.927"/> <g>    </g> </g> <g> <g>   </g> </g> <g> <circle style="fill:none;stroke:#231F20;" cx="269.425" cy="-157.693" r="9.5"/> <line style="fill:none;stroke:#231F20;" x1="269.425" y1="-179.616" x2="269.425" y2="-167.193"/> </g> <g> <circle style="fill:none;stroke:#231F20;" cx="269.425" cy="-118.977" r="9.5"/> <polyline style="fill:none;stroke:#231F20;" points="269.425,-128.477 269.425,-136.9 158.251,-136.9 		"/> </g> <g> <circle style="fill:none;stroke:#231F20;" cx="269.425" cy="-249.069" r="9.5"/> <line style="fill:none;stroke:#231F20;" x1="269.425" y1="-267.864" x2="269.425" y2="-258.569"/> </g> <g>         </g>  <g> <g> <g> <line style="fill:none;stroke:#000000;stroke-width:2;stroke-miterlimit:10;" x1="38.025" y1="-500.237" x2="38.025" y2="-506.167"/> <line style="fill:none;stroke:#000000;stroke-miterlimit:10;" x1="46.498" y1="-500.237" x2="46.498" y2="-506.167"/> <line style="fill:none;stroke:#000000;stroke-miterlimit:10;" x1="54.972" y1="-500.237" x2="54.972" y2="-506.167"/> <line style="fill:none;stroke:#000000;stroke-miterlimit:10;" x1="63.445" y1="-500.237" x2="63.445" y2="-506.167"/> <line style="fill:none;stroke:#000000;stroke-width:2;stroke-miterlimit:10;" x1="71.919" y1="-500.237" x2="71.919" y2="-506.167"/> <line style="fill:none;stroke:#000000;stroke-miterlimit:10;" x1="80.392" y1="-500.237" x2="80.392" y2="-506.167"/> <line style="fill:none;stroke:#000000;stroke-miterlimit:10;" x1="88.865" y1="-500.237" x2="88.865" y2="-506.167"/> <line style="fill:none;stroke:#000000;stroke-miterlimit:10;" x1="97.339" y1="-500.237" x2="97.339" y2="-506.167"/> <line style="fill:none;stroke:#000000;stroke-miterlimit:10;" x1="105.812" y1="-500.237" x2="105.812" y2="-506.167"/> <line style="fill:none;stroke:#000000;stroke-width:2;stroke-miterlimit:10;" x1="114.286" y1="-500.237" x2="114.286" y2="-506.167"/> <line style="fill:none;stroke:#000000;stroke-miterlimit:10;" x1="122.759" y1="-500.237" x2="122.759" y2="-506.167"/> <line style="fill:none;stroke:#000000;stroke-miterlimit:10;" x1="131.233" y1="-500.237" x2="131.233" y2="-506.167"/> <line style="fill:none;stroke:#000000;stroke-miterlimit:10;" x1="139.706" y1="-500.237" x2="139.706" y2="-506.167"/> <line style="fill:none;stroke:#000000;stroke-miterlimit:10;" x1="148.179" y1="-500.237" x2="148.179" y2="-506.167"/> <line style="fill:none;stroke:#000000;stroke-width:2;stroke-miterlimit:10;" x1="156.653" y1="-500.237" x2="156.653" y2="-506.167"/> </g> </g> <g> <g>  </g> <g>  </g> <g>  </g> <g>  </g> </g> </g>    <rect x="0" y="-716.824" style="fill:none;" width="171.324" height="25.041"/>  <g> <g>   </g> </g> <g> <g>   </g> </g> <g> <g>   </g> </g> <g> <circle style="fill:none;stroke:#231F20;" cx="156.251" cy="-558.68" r="9.5"/> <line style="fill:none;stroke:#231F20;" x1="156.251" y1="-584.603" x2="156.251" y2="-568.18"/> </g> <g> <circle style="fill:none;stroke:#231F20;" cx="157.408" cy="-522.964" r="9.5"/> <polyline style="fill:none;stroke:#231F20;" points="157.408,-532.464 157.408,-539.887 112.398,-539.887 		"/> </g> <g> <circle style="fill:none;stroke:#231F20;" cx="158.251" cy="-647.056" r="9.5"/> <line style="fill:none;stroke:#231F20;" x1="158.251" y1="-665.851" x2="158.251" y2="-656.556"/> </g> <g> <g> <line style="fill:none;" x1="34.333" y1="256.462" x2="320.001" y2="256.462"/> <g> <g> <line style="fill:none;" x1="43.856" y1="256.462" x2="43.856" y2="252.105"/> <line style="fill:none;" x1="62.9" y1="256.462" x2="62.9" y2="252.105"/> <line style="fill:none;" x1="81.945" y1="256.462" x2="81.945" y2="252.105"/> <line style="fill:none;" x1="100.989" y1="256.462" x2="100.989" y2="252.105"/> <line style="fill:none;" x1="120.034" y1="256.462" x2="120.034" y2="252.105"/> <line style="fill:none;" x1="139.078" y1="256.462" x2="139.078" y2="252.105"/> <line style="fill:none;" x1="158.123" y1="256.462" x2="158.123" y2="252.105"/> <line style="fill:none;" x1="177.167" y1="256.462" x2="177.167" y2="252.105"/> <line style="fill:none;" x1="196.212" y1="256.462" x2="196.212" y2="252.105"/> <line style="fill:none;" x1="215.256" y1="256.462" x2="215.256" y2="252.105"/> <line style="fill:none;" x1="234.301" y1="256.462" x2="234.301" y2="252.105"/> <line style="fill:none;" x1="253.345" y1="256.462" x2="253.345" y2="252.105"/> <line style="fill:none;" x1="272.39" y1="256.462" x2="272.39" y2="252.105"/> <line style="fill:none;" x1="291.434" y1="256.462" x2="291.434" y2="252.105"/> <line style="fill:none;" x1="310.479" y1="256.462" x2="310.479" y2="252.105"/> </g> <g> </g> </g> </g> <g> <g>          </g> <line style="fill:none;" x1="34.333" y1="256.462" x2="27.333" y2="82.2"/> <g> <g> <line style="fill:none;" x1="34.333" y1="256.462" x2="320.001" y2="256.462"/> <line style="fill:none;stroke:#E0E0E0;stroke-miterlimit:10;" x1="27.333" y1="234.679" x2="320.001" y2="234.679"/> <line style="fill:none;stroke:#E0E0E0;stroke-miterlimit:10;" x1="27.333" y1="212.896" x2="320.001" y2="212.896"/> <line style="fill:none;stroke:#E0E0E0;stroke-miterlimit:10;" x1="27.333" y1="191.114" x2="320.001" y2="191.114"/> <line style="fill:none;stroke:#E0E0E0;stroke-miterlimit:10;" x1="27.333" y1="169.331" x2="320.001" y2="169.331"/> <line style="fill:none;stroke:#E0E0E0;stroke-miterlimit:10;" x1="27.333" y1="147.548" x2="320.001" y2="147.548"/> <line style="fill:none;stroke:#E0E0E0;stroke-miterlimit:10;" x1="27.333" y1="125.766" x2="320.001" y2="125.766"/> <line style="fill:none;stroke:#E0E0E0;stroke-miterlimit:10;" x1="27.333" y1="103.983" x2="320.001" y2="103.983"/> <line style="fill:none;stroke:#E0E0E0;stroke-miterlimit:10;" x1="27.333" y1="82.2" x2="320.001" y2="82.2"/> </g> <g> </g> </g> </g> <g> <g> <g> <line style="fill:none;stroke:#024E87;stroke-width:4;stroke-linecap:round;stroke-linejoin:round;stroke-miterlimit:10;" x1="62.9" y1="122.498" x2="43.856" y2="121.627"/> <line style="fill:none;stroke:#024E87;stroke-width:4;stroke-linecap:round;stroke-linejoin:round;stroke-miterlimit:10;" x1="81.945" y1="121.409" x2="62.9" y2="122.498"/> <line style="fill:none;stroke:#024E87;stroke-width:4;stroke-linecap:round;stroke-linejoin:round;stroke-miterlimit:10;" x1="100.989" y1="121.409" x2="81.945" y2="121.409"/> <line style="fill:none;stroke:#024E87;stroke-width:4;stroke-linecap:round;stroke-linejoin:round;stroke-miterlimit:10;" x1="120.034" y1="118.577" x2="100.989" y2="121.409"/> <line style="fill:none;stroke:#024E87;stroke-width:4;stroke-linecap:round;stroke-linejoin:round;stroke-miterlimit:10;" x1="139.078" y1="115.31" x2="120.034" y2="118.577"/> <line style="fill:none;stroke:#024E87;stroke-width:4;stroke-linecap:round;stroke-linejoin:round;stroke-miterlimit:10;" x1="158.123" y1="115.092" x2="139.078" y2="115.31"/> <line style="fill:none;stroke:#024E87;stroke-width:4;stroke-linecap:round;stroke-linejoin:round;stroke-miterlimit:10;" x1="177.167" y1="114.874" x2="158.123" y2="115.092"/> <line style="fill:none;stroke:#024E87;stroke-width:4;stroke-linecap:round;stroke-linejoin:round;stroke-miterlimit:10;" x1="196.212" y1="114.221" x2="177.167" y2="114.874"/> <line style="fill:none;stroke:#024E87;stroke-width:4;stroke-linecap:round;stroke-linejoin:round;stroke-miterlimit:10;" x1="215.256" y1="114.221" x2="196.212" y2="114.221"/> <line style="fill:none;stroke:#024E87;stroke-width:4;stroke-linecap:round;stroke-linejoin:round;stroke-miterlimit:10;" x1="234.301" y1="118.577" x2="215.256" y2="114.221"/> <line style="fill:none;stroke:#024E87;stroke-width:4;stroke-linecap:round;stroke-linejoin:round;stroke-miterlimit:10;" x1="253.345" y1="112.914" x2="234.301" y2="118.577"/> <line style="fill:none;stroke:#024E87;stroke-width:4;stroke-linecap:round;stroke-linejoin:round;stroke-miterlimit:10;" x1="272.39" y1="112.696" x2="253.345" y2="112.914"/> <line style="fill:none;stroke:#024E87;stroke-width:4;stroke-linecap:round;stroke-linejoin:round;stroke-miterlimit:10;" x1="291.434" y1="112.478" x2="272.39" y2="112.696"/> <line style="fill:none;stroke:#024E87;stroke-width:4;stroke-linecap:round;stroke-linejoin:round;stroke-miterlimit:10;" x1="310.479" y1="109.646" x2="291.434" y2="112.478"/> </g> </g> <g> <g> <line style="fill:none;stroke:#7493C1;stroke-width:2;stroke-linecap:round;stroke-linejoin:round;stroke-miterlimit:10;" x1="62.9" y1="188.5" x2="43.856" y2="189.807"/> <line style="fill:none;stroke:#7493C1;stroke-width:2;stroke-linecap:round;stroke-linejoin:round;stroke-miterlimit:10;" x1="81.945" y1="191.114" x2="62.9" y2="188.5"/> <line style="fill:none;stroke:#7493C1;stroke-width:2;stroke-linecap:round;stroke-linejoin:round;stroke-miterlimit:10;" x1="100.989" y1="191.331" x2="81.945" y2="191.114"/> <line style="fill:none;stroke:#7493C1;stroke-width:2;stroke-linecap:round;stroke-linejoin:round;stroke-miterlimit:10;" x1="120.034" y1="194.163" x2="100.989" y2="191.331"/> <line style="fill:none;stroke:#7493C1;stroke-width:2;stroke-linecap:round;stroke-linejoin:round;stroke-miterlimit:10;" x1="139.078" y1="196.559" x2="120.034" y2="194.163"/> <line style="fill:none;stroke:#7493C1;stroke-width:2;stroke-linecap:round;stroke-linejoin:round;stroke-miterlimit:10;" x1="158.123" y1="195.906" x2="139.078" y2="196.559"/> <line style="fill:none;stroke:#7493C1;stroke-width:2;stroke-linecap:round;stroke-linejoin:round;stroke-miterlimit:10;" x1="177.167" y1="196.341" x2="158.123" y2="195.906"/> <line style="fill:none;stroke:#7493C1;stroke-width:2;stroke-linecap:round;stroke-linejoin:round;stroke-miterlimit:10;" x1="196.212" y1="206.797" x2="177.167" y2="196.341"/> <line style="fill:none;stroke:#7493C1;stroke-width:2;stroke-linecap:round;stroke-linejoin:round;stroke-miterlimit:10;" x1="215.256" y1="207.668" x2="196.212" y2="206.797"/> <line style="fill:none;stroke:#7493C1;stroke-width:2;stroke-linecap:round;stroke-linejoin:round;stroke-miterlimit:10;" x1="234.301" y1="198.52" x2="215.256" y2="207.668"/> <line style="fill:none;stroke:#7493C1;stroke-width:2;stroke-linecap:round;stroke-linejoin:round;stroke-miterlimit:10;" x1="253.345" y1="199.609" x2="234.301" y2="198.52"/> <line style="fill:none;stroke:#7493C1;stroke-width:2;stroke-linecap:round;stroke-linejoin:round;stroke-miterlimit:10;" x1="272.39" y1="199.609" x2="253.345" y2="199.609"/> <line style="fill:none;stroke:#7493C1;stroke-width:2;stroke-linecap:round;stroke-linejoin:round;stroke-miterlimit:10;" x1="291.434" y1="199.827" x2="272.39" y2="199.609"/> <line style="fill:none;stroke:#7493C1;stroke-width:2;stroke-linecap:round;stroke-linejoin:round;stroke-miterlimit:10;" x1="310.479" y1="202.223" x2="291.434" y2="199.827"/> </g> </g> <g> <g> <line style="fill:none;stroke:#AAAAAA;stroke-width:2;stroke-linecap:round;stroke-linejoin:round;stroke-miterlimit:10;" x1="62.9" y1="240.56" x2="43.856" y2="240.342"/> <line style="fill:none;stroke:#AAAAAA;stroke-width:2;stroke-linecap:round;stroke-linejoin:round;stroke-miterlimit:10;" x1="81.945" y1="239.036" x2="62.9" y2="240.56"/> <line style="fill:none;stroke:#AAAAAA;stroke-width:2;stroke-linecap:round;stroke-linejoin:round;stroke-miterlimit:10;" x1="100.989" y1="239.036" x2="81.945" y2="239.036"/> <line style="fill:none;stroke:#AAAAAA;stroke-width:2;stroke-linecap:round;stroke-linejoin:round;stroke-miterlimit:10;" x1="120.034" y1="238.818" x2="100.989" y2="239.036"/> <line style="fill:none;stroke:#AAAAAA;stroke-width:2;stroke-linecap:round;stroke-linejoin:round;stroke-miterlimit:10;" x1="139.078" y1="239.689" x2="120.034" y2="238.818"/> <line style="fill:none;stroke:#AAAAAA;stroke-width:2;stroke-linecap:round;stroke-linejoin:round;stroke-miterlimit:10;" x1="158.123" y1="240.56" x2="139.078" y2="239.689"/> <line style="fill:none;stroke:#AAAAAA;stroke-width:2;stroke-linecap:round;stroke-linejoin:round;stroke-miterlimit:10;" x1="177.167" y1="240.342" x2="158.123" y2="240.56"/> <line style="fill:none;stroke:#AAAAAA;stroke-width:2;stroke-linecap:round;stroke-linejoin:round;stroke-miterlimit:10;" x1="196.212" y1="230.54" x2="177.167" y2="240.342"/> <line style="fill:none;stroke:#AAAAAA;stroke-width:2;stroke-linecap:round;stroke-linejoin:round;stroke-miterlimit:10;" x1="215.256" y1="229.451" x2="196.212" y2="230.54"/> <line style="fill:none;stroke:#AAAAAA;stroke-width:2;stroke-linecap:round;stroke-linejoin:round;stroke-miterlimit:10;" x1="234.301" y1="234.461" x2="215.256" y2="229.451"/> <line style="fill:none;stroke:#AAAAAA;stroke-width:2;stroke-linecap:round;stroke-linejoin:round;stroke-miterlimit:10;" x1="253.345" y1="238.818" x2="234.301" y2="234.461"/> <line style="fill:none;stroke:#AAAAAA;stroke-width:2;stroke-linecap:round;stroke-linejoin:round;stroke-miterlimit:10;" x1="272.39" y1="239.253" x2="253.345" y2="238.818"/> <line style="fill:none;stroke:#AAAAAA;stroke-width:2;stroke-linecap:round;stroke-linejoin:round;stroke-miterlimit:10;" x1="291.434" y1="239.471" x2="272.39" y2="239.253"/> <line style="fill:none;stroke:#AAAAAA;stroke-width:2;stroke-linecap:round;stroke-linejoin:round;stroke-miterlimit:10;" x1="310.479" y1="239.689" x2="291.434" y2="239.471"/> </g> </g> </g> <g> <g> </g> <g> </g> <g> </g> </g> </g> <g>         </g> <line style="fill:#FFFFFF;stroke:#231F20;" x1="0" y1="256.462" x2="320.001" y2="256.462"/> <g> <g> <g> <line style="fill:none;stroke:#000000;stroke-miterlimit:10;" x1="43.549" y1="262.74" x2="43.549" y2="256.81"/> <line style="fill:none;stroke:#000000;stroke-miterlimit:10;" x1="62.599" y1="262.74" x2="62.599" y2="256.81"/> <line style="fill:none;stroke:#000000;stroke-miterlimit:10;" x1="81.65" y1="262.74" x2="81.65" y2="256.81"/> <line style="fill:none;stroke:#000000;stroke-miterlimit:10;" x1="100.7" y1="262.74" x2="100.7" y2="256.81"/> <line style="fill:none;stroke:#000000;stroke-miterlimit:10;" x1="119.751" y1="262.74" x2="119.751" y2="256.81"/> <line style="fill:none;stroke:#000000;stroke-miterlimit:10;" x1="138.801" y1="262.74" x2="138.801" y2="256.81"/> <line style="fill:none;stroke:#000000;stroke-miterlimit:10;" x1="157.852" y1="262.74" x2="157.852" y2="256.81"/> <line style="fill:none;stroke:#000000;stroke-miterlimit:10;" x1="176.902" y1="262.74" x2="176.902" y2="256.81"/> <line style="fill:none;stroke:#000000;stroke-miterlimit:10;" x1="195.953" y1="262.74" x2="195.953" y2="256.81"/> <line style="fill:none;stroke:#000000;stroke-miterlimit:10;" x1="215.003" y1="262.74" x2="215.003" y2="256.81"/> <line style="fill:none;stroke:#000000;stroke-miterlimit:10;" x1="234.054" y1="262.74" x2="234.054" y2="256.81"/> <line style="fill:none;stroke:#000000;stroke-miterlimit:10;" x1="253.104" y1="262.74" x2="253.104" y2="256.81"/> <line style="fill:none;stroke:#000000;stroke-miterlimit:10;" x1="272.155" y1="262.74" x2="272.155" y2="256.81"/> <line style="fill:none;stroke:#000000;stroke-miterlimit:10;" x1="291.205" y1="262.74" x2="291.205" y2="256.81"/> <line style="fill:none;stroke:#000000;stroke-miterlimit:10;" x1="310.256" y1="262.74" x2="310.256" y2="256.81"/> </g> </g> <g>         </g> </g>   <rect x="0" y="26.098" style="fill:none;" width="280" height="22.054"/>  <g> <rect x="155" y="58.321" style="fill:#FFFFFF;" width="165" height="27.277"/> <g>    </g> </g> <g> <rect x="155" y="139.575" style="fill:#FFFFFF;" width="165" height="41.927"/> <g>    </g> </g> <g> <g>   </g> </g> <g> <circle style="fill:none;stroke:#231F20;" cx="309.425" cy="201.297" r="9.5"/> <line style="fill:none;stroke:#231F20;" x1="309.425" y1="179.374" x2="309.425" y2="191.797"/> </g> <g> <circle style="fill:none;stroke:#231F20;" cx="309.425" cy="240.013" r="9.5"/> <polyline style="fill:none;stroke:#231F20;" points="309.425,230.513 309.425,222.09 198.251,222.09 		"/> </g> <g> <circle style="fill:none;stroke:#231F20;" cx="309.425" cy="109.921" r="9.5"/> <line style="fill:none;stroke:#231F20;" x1="309.425" y1="91.126" x2="309.425" y2="100.421"/> </g>   <g> <path d="M41.938,176.256c2.058,0,3.987,0.372,5.788,1.114c1.771,0.772,3.314,1.815,4.63,3.13c1.314,1.315,2.357,2.858,3.13,4.63
			c0.742,1.801,1.114,3.73,1.114,5.788c0,1.972-0.372,3.858-1.114,5.659c-0.715,1.744-1.758,3.301-3.13,4.673
			c-1.344,1.372-2.915,2.43-4.716,3.172c-1.829,0.771-3.729,1.158-5.702,1.158c-1.943,0-3.815-0.386-5.616-1.158
			c-1.801-0.743-3.372-1.801-4.716-3.172c-1.372-1.343-2.43-2.916-3.172-4.716c-0.772-1.801-1.158-3.672-1.158-5.616
			c0-1.972,0.386-3.873,1.158-5.702c0.742-1.801,1.8-3.372,3.172-4.716c1.372-1.372,2.93-2.415,4.673-3.13
			C38.079,176.628,39.966,176.256,41.938,176.256z M42.28,139.215c2.059,0,3.987,0.372,5.788,1.114
			c1.771,0.772,3.315,1.815,4.63,3.13c1.314,1.315,2.358,2.858,3.13,4.63c0.742,1.801,1.114,3.73,1.114,5.788
			c0,1.972-0.372,3.858-1.114,5.659c-0.715,1.744-1.758,3.301-3.13,4.673c-1.344,1.372-2.915,2.43-4.716,3.172
			c-1.829,0.771-3.729,1.158-5.702,1.158c-2.601,0-5.03-0.657-7.288-1.972c-2.286-1.343-4.087-3.115-5.401-5.316
			c-1.315-2.201-1.972-4.658-1.972-7.374c0-2.658,0.656-5.116,1.972-7.374c1.314-2.229,3.115-4.015,5.401-5.359
			C37.278,139.859,39.708,139.215,42.28,139.215z M58.786,138.787l6.13-0.172c2.315-0.085,4.602-0.164,6.859-0.236
			c2.258-0.071,4.145-0.121,5.659-0.15c1.515-0.028,3.286-0.043,5.316-0.043c5.459,0,9.86,0.458,13.204,1.372
			c3.286,0.886,6.002,2.473,8.146,4.759c1.029,1.086,1.9,2.272,2.615,3.558c0.743,1.315,1.3,2.772,1.672,4.373
			c0.399,1.658,0.601,3.23,0.601,4.716c0,3.115-0.772,6.002-2.315,8.66c-1.601,2.687-3.873,4.945-6.816,6.774
			c3.258,2.058,5.659,4.33,7.202,6.816c1.543,2.486,2.315,5.402,2.315,8.746c0,5.573-1.801,10.061-5.402,13.461
			c-3.63,3.373-8.445,5.059-14.447,5.059H56.942v-0.986c1.857-0.343,3.301-0.686,4.33-1.029c0.943-0.286,2.015-0.786,3.215-1.5
			c1.772-0.915,3.33-2.144,4.674-3.687c2.457-2.972,3.687-6.345,3.687-10.118c0-2.029-0.357-3.972-1.072-5.83
			c-0.743-1.858-1.786-3.53-3.129-5.016c-1.43-1.458-3.073-2.658-4.931-3.601c-2.058-0.943-4.573-1.586-7.545-1.929v-1.072
			c3.258-0.657,5.83-1.529,7.717-2.615c1.743-0.971,3.258-2.214,4.544-3.73c2.401-2.8,3.602-6.159,3.602-10.075
			c0-4.515-1.602-8.288-4.802-11.318c-1.229-1.2-2.387-2.128-3.473-2.787C62.444,140.416,60.786,139.616,58.786,138.787z"/> <path d="M159.019,206.48h-44.586l23.364-29.324c0.172-0.199,0.322-0.378,0.45-0.536c0.129-0.157,0.307-0.378,0.536-0.665
			c0.172-0.2,0.328-0.386,0.472-0.557c0.143-0.172,0.3-0.371,0.472-0.601c0.086-0.143,0.264-0.378,0.536-0.707
			c0.271-0.329,0.478-0.593,0.621-0.793c0.343-0.429,0.543-0.671,0.601-0.729c2.771-3.401,4.901-6.188,6.388-8.36
			c1.314-1.915,2.215-3.687,2.701-5.316c0.485-1.629,0.729-3.473,0.729-5.531c0-2.915-0.629-5.587-1.887-8.017
			c-1.286-2.401-3.287-4.615-6.002-6.645c2.801-0.171,6.159-0.257,10.075-0.257c5.145,0,9.073,0.187,11.789,0.558
			c2.857,0.4,5.287,1.058,7.288,1.972c5.43,2.258,9.789,5.888,13.076,10.889c1.286,1.916,2.372,4.13,3.258,6.645
			c0.857,2.601,1.343,4.93,1.458,6.988c0.027,0.085,0.042,0.214,0.042,0.386s0.015,0.372,0.043,0.6
			c0.028,0.257,0.043,0.6,0.043,1.029v0.601L159.019,206.48z M130.853,138.958c2.686,0,5.158,0.658,7.416,1.972
			c2.258,1.315,4.044,3.101,5.359,5.359c1.314,2.258,1.972,4.73,1.972,7.417c0,2.687-0.657,5.13-1.972,7.331
			c-1.344,2.287-3.13,4.087-5.359,5.401c-2.287,1.344-4.759,2.015-7.416,2.015c-2.688,0-5.16-0.671-7.417-2.015
			c-2.229-1.314-4.016-3.115-5.359-5.401c-1.314-2.258-1.972-4.701-1.972-7.331c0-2.658,0.657-5.116,1.972-7.374
			c1.344-2.286,3.13-4.086,5.359-5.401C125.636,139.616,128.108,138.958,130.853,138.958z M166.778,206.48l23.879-30.224v30.224
			H166.778z"/> <path d="M234.257,138.529v68.379h-4.201c-4.773,0-9.218-0.871-13.333-2.615c-4.201-1.772-7.86-4.216-10.976-7.331
			c-3.172-3.115-5.616-6.745-7.331-10.889c-1.743-4.087-2.614-8.489-2.614-13.205c0-4.973,0.871-9.56,2.614-13.761
			c1.772-4.258,4.245-7.902,7.417-10.932c3.201-3.115,6.974-5.501,11.318-7.16c4.344-1.657,9.073-2.486,14.19-2.486H234.257z
			 M240.044,206.908v-68.379h3.516c4.888,0,9.488,0.857,13.805,2.572c4.4,1.8,8.188,4.216,11.36,7.245
			c3.201,3.086,5.702,6.703,7.503,10.846c1.801,4.145,2.7,8.603,2.7,13.376c0,4.973-0.872,9.546-2.614,13.719
			c-1.715,4.144-4.26,7.802-7.632,10.975c-3.258,3.087-7.116,5.474-11.575,7.16c-4.372,1.658-9.231,2.486-14.576,2.486H240.044z"/> </g> <g> <path d="M61.361-183.521H16.775l23.364-29.324c0.172-0.199,0.322-0.378,0.45-0.536c0.129-0.157,0.307-0.378,0.536-0.665
			c0.172-0.2,0.328-0.386,0.472-0.557c0.143-0.172,0.3-0.371,0.472-0.601c0.086-0.143,0.264-0.378,0.536-0.707
			c0.271-0.329,0.478-0.593,0.621-0.793c0.343-0.429,0.543-0.671,0.601-0.729c2.771-3.401,4.901-6.188,6.388-8.36
			c1.314-1.915,2.215-3.687,2.701-5.316c0.485-1.629,0.729-3.473,0.729-5.531c0-2.915-0.629-5.587-1.887-8.017
			c-1.286-2.401-3.287-4.615-6.002-6.645c2.801-0.171,6.159-0.257,10.075-0.257c5.145,0,9.073,0.187,11.789,0.558
			c2.857,0.4,5.287,1.058,7.288,1.972c5.43,2.258,9.789,5.888,13.076,10.889c1.286,1.916,2.372,4.13,3.258,6.645
			c0.857,2.601,1.343,4.93,1.458,6.988c0.027,0.085,0.042,0.214,0.042,0.386s0.015,0.372,0.043,0.6
			c0.028,0.257,0.043,0.6,0.043,1.029v0.601L61.361-183.521z M33.195-251.043c2.686,0,5.158,0.658,7.416,1.972
			c2.258,1.315,4.044,3.101,5.359,5.359c1.314,2.258,1.972,4.73,1.972,7.417c0,2.687-0.657,5.13-1.972,7.331
			c-1.344,2.287-3.13,4.087-5.359,5.401c-2.287,1.344-4.759,2.015-7.416,2.015c-2.688,0-5.16-0.671-7.417-2.015
			c-2.229-1.314-4.016-3.115-5.359-5.401c-1.314-2.258-1.972-4.701-1.972-7.331c0-2.658,0.657-5.116,1.972-7.374
			c1.344-2.286,3.13-4.086,5.359-5.401C27.979-250.385,30.451-251.043,33.195-251.043z M69.121-183.521L93-213.745v30.224H69.121z"/> <path d="M137.843-251.729v68.208h-21.95c-3.145,0-6.045-0.771-8.703-2.315c-2.657-1.543-4.758-3.644-6.302-6.302
			c-1.543-2.658-2.314-5.559-2.314-8.703c0-2.229,0.528-4.416,1.586-6.559c1.028-2.172,2.486-4.073,4.373-5.702
			c1.086-1,2.129-1.772,3.129-2.315c0.943-0.542,2.458-1.143,4.545-1.8v-0.214c-1.887-0.515-3.259-0.971-4.116-1.372
			c-1.028-0.457-2.144-1.157-3.344-2.101c-4.002-3.258-6.002-7.573-6.002-12.947c0-3.543,0.914-6.659,2.744-9.346
			c1.801-2.686,4.357-4.787,7.674-6.302c3.258-1.486,7.016-2.229,11.275-2.229H137.843z M143.545-183.521v-68.208h18.863
			c3.915,0,7.444,0.8,10.589,2.401c3.087,1.572,5.516,3.787,7.288,6.645c1.715,2.858,2.572,6.073,2.572,9.646
			c0,2.715-0.687,5.259-2.058,7.631c-1.372,2.373-3.316,4.302-5.831,5.788c-1.028,0.629-1.958,1.086-2.786,1.372
			c-0.915,0.343-2.058,0.643-3.43,0.9v0.214c2.429,0.429,4.415,1.101,5.959,2.015c1.801,1.001,3.258,2.229,4.373,3.687
			c1.286,1.458,2.286,3.102,3.001,4.93c0.742,1.915,1.114,3.744,1.114,5.487c0,3.258-0.743,6.202-2.229,8.832
			c-1.486,2.658-3.559,4.773-6.216,6.345c-2.658,1.543-5.545,2.315-8.66,2.315H143.545z"/> <path d="M227.101-251.472v68.379h-4.201c-4.773,0-9.218-0.871-13.333-2.615c-4.201-1.772-7.86-4.216-10.976-7.331
			c-3.172-3.115-5.616-6.745-7.331-10.889c-1.743-4.087-2.614-8.489-2.614-13.205c0-4.973,0.871-9.56,2.614-13.761
			c1.772-4.258,4.245-7.902,7.417-10.932c3.201-3.115,6.974-5.501,11.318-7.16c4.344-1.657,9.073-2.486,14.19-2.486H227.101z
			 M232.888-183.093v-68.379h3.516c4.888,0,9.488,0.857,13.805,2.572c4.4,1.8,8.188,4.216,11.36,7.245
			c3.201,3.086,5.702,6.703,7.503,10.846c1.801,4.145,2.7,8.603,2.7,13.376c0,4.973-0.872,9.546-2.614,13.719
			c-1.715,4.144-4.26,7.802-7.632,10.975c-3.258,3.087-7.116,5.474-11.575,7.16c-4.372,1.658-9.231,2.486-14.576,2.486H232.888z"/> </g> <g> <path d="M8.295-662.175l0.06-0.06h27.214v47.16H8.295V-662.175z"/> <path d="M42.984-621.983v-40.251l0.061,0.06h22.039L42.984-621.983z M43.822-615.075l25.658-47.1h30.503l-25.479,47.1H43.822z"/> <path d="M129.08-662.474v47.698h-2.931c-3.33,0-6.43-0.608-9.301-1.824c-2.931-1.236-5.482-2.94-7.655-5.114
			c-2.213-2.173-3.918-4.705-5.114-7.596c-1.216-2.851-1.824-5.921-1.824-9.21c0-3.469,0.608-6.669,1.824-9.6
			c1.236-2.97,2.961-5.512,5.174-7.625c2.232-2.173,4.864-3.838,7.895-4.994s6.33-1.734,9.898-1.734H129.08z M133.117-614.776
			v-47.698h2.452c3.409,0,6.618,0.598,9.629,1.794c3.07,1.256,5.712,2.941,7.925,5.054c2.232,2.153,3.978,4.675,5.233,7.566
			s1.884,6.001,1.884,9.33c0,3.469-0.608,6.659-1.824,9.569c-1.196,2.891-2.971,5.443-5.323,7.656
			c-2.272,2.153-4.964,3.818-8.074,4.994c-3.05,1.156-6.439,1.734-10.167,1.734H133.117z"/> </g> </g> <g id="Layer_1"> </g> </svg> 