<?xml version="1.0" encoding="utf-8"?>
<!DOCTYPE svg PUBLIC "-//W3C//DTD SVG 1.1//EN" "http://www.w3.org/Graphics/SVG/1.1/DTD/svg11.dtd">
<svg version="1.1" xmlns="http://www.w3.org/2000/svg" xmlns:xlink="http://www.w3.org/1999/xlink" x="0px" y="0px" viewBox="0 0 1000 1000" enable-background="new 0 0 1000 1000" xml:space="preserve">
<g><path d="M333.4,794c0,24.5-8.7,45.3-26,62.5c-17.4,17.1-38.1,25.7-62.2,25.7c-24.5,0-45.3-8.6-62.5-25.7c-17.1-17.1-25.7-38-25.7-62.5c0-24.5,8.6-45.3,25.7-62.5c17.1-17.1,38-25.7,62.5-25.7c24.1,0,44.8,8.6,62.2,25.7C324.7,748.7,333.4,769.5,333.4,794z M598,911.6c0,21.6-7.7,40.1-23,55.4c-15.3,15.3-33.8,23-55.4,23s-40.1-7.7-55.4-23c-15.3-15.3-23-33.8-23-55.4c0-21.6,7.7-40.1,23-55.4c15.3-15.3,33.8-23,55.4-23s40.1,7.7,55.4,23C590.3,871.5,598,890,598,911.6z M225.6,519.6c0,27-9.6,50-28.8,69.2c-19.2,19.2-42.3,28.8-69.2,28.8c-27,0-50-9.6-69.2-28.8c-19.2-19.2-28.8-42.3-28.8-69.2c0-27,9.6-50,28.8-69.2c19.2-19.2,42.3-28.8,69.2-28.8c27,0,50,9.6,69.2,28.8C216,469.6,225.6,492.6,225.6,519.6L225.6,519.6z M862.6,794c0,18.8-6.7,34.9-20.2,48.4c-13.5,13.5-29.6,20.2-48.4,20.2c-18.8,0-34.9-6.8-48.4-20.2c-13.5-13.4-20.2-29.6-20.2-48.4c0-18.8,6.7-34.9,20.2-48.4c13.5-13.4,29.6-20.2,48.4-20.2c18.8,0,34.9,6.7,48.4,20.2C855.8,759.1,862.6,775.2,862.6,794z M353,245.2c0,29.8-10.5,55.2-31.6,76.2c-21,21-46.5,31.5-76.2,31.6c-29.8,0-55.2-10.5-76.2-31.6c-21-21.1-31.6-46.5-31.6-76.2S147.9,190,169,169c21-21.1,46.5-31.6,76.2-31.6c29.8,0,55.2,10.5,76.2,31.6C342.5,190,353,215.4,353,245.2L353,245.2z M637.2,127.6c0,32.7-11.4,60.4-34.3,83.3c-22.9,22.9-50.6,34.3-83.3,34.3c-32.7,0-60.4-11.4-83.3-34.3c-22.9-22.9-34.3-50.6-34.3-83.3c0-32.7,11.4-60.4,34.3-83.3C459.1,21.4,486.9,10,519.6,10c32.7,0,60.4,11.4,83.3,34.3C625.7,67.2,637.2,94.9,637.2,127.6z M970.4,519.6c0,16.3-5.7,30.2-17.1,41.6c-11.4,11.4-25.3,17.1-41.6,17.1c-16.3,0-30.2-5.7-41.6-17.1c-11.4-11.4-17.1-25.3-17.1-41.6s5.7-30.2,17.1-41.6c11.4-11.4,25.3-17.1,41.6-17.1c16.3,0,30.2,5.7,41.6,17.1C964.7,489.4,970.4,503.3,970.4,519.6z M843,245.2c0,13.5-4.8,25-14.4,34.6c-9.6,9.6-21.1,14.4-34.6,14.4s-25-4.8-34.6-14.4c-9.6-9.6-14.4-21.1-14.4-34.6c0-13.5,4.8-25,14.4-34.6c9.6-9.6,21.1-14.4,34.6-14.4s25,4.8,34.6,14.4C838.2,220.2,843,231.7,843,245.2z"/></g>
</svg>